<mxfile host="app.diagrams.net" modified="2023-03-23T11:03:11.706Z" agent="5.0 (Macintosh; Intel Mac OS X 10_15_7) AppleWebKit/605.1.15 (KHTML, like Gecko) Version/16.3 Safari/605.1.15" etag="bgD0NUw62vvYMLvh8fCA" version="21.0.10" type="github">
  <diagram name="Seite-1" id="1cwxNS0KpQBC_ZOq_zy8">
    <mxGraphModel dx="4763" dy="2412" grid="1" gridSize="10" guides="1" tooltips="1" connect="1" arrows="1" fold="1" page="1" pageScale="1" pageWidth="827" pageHeight="1169" math="0" shadow="0">
      <root>
        <mxCell id="0" />
        <mxCell id="1" parent="0" />
        <mxCell id="FOVqOBKGCX3OGBPa5XmN-1" value="" style="whiteSpace=wrap;html=1;" vertex="1" parent="1">
          <mxGeometry x="-30" y="60" width="2230" height="2952.75" as="geometry" />
        </mxCell>
        <mxCell id="FOVqOBKGCX3OGBPa5XmN-3" value="" style="rounded=0;whiteSpace=wrap;html=1;fillColor=#dae8fc;strokeColor=#6c8ebf;" vertex="1" parent="1">
          <mxGeometry x="1390" y="150" width="748.03" height="1181.1" as="geometry" />
        </mxCell>
        <mxCell id="FOVqOBKGCX3OGBPa5XmN-5" value="" style="rounded=0;whiteSpace=wrap;html=1;" vertex="1" parent="1">
          <mxGeometry x="380" y="150" width="732.2819999999999" height="511.81" as="geometry" />
        </mxCell>
        <mxCell id="FOVqOBKGCX3OGBPa5XmN-6" value="" style="rounded=0;whiteSpace=wrap;html=1;" vertex="1" parent="1">
          <mxGeometry x="1200" y="2030" width="620" height="91.81" as="geometry" />
        </mxCell>
        <mxCell id="FOVqOBKGCX3OGBPa5XmN-7" value="" style="rounded=0;whiteSpace=wrap;html=1;" vertex="1" parent="1">
          <mxGeometry x="430" y="2030" width="620" height="91.81" as="geometry" />
        </mxCell>
        <mxCell id="FOVqOBKGCX3OGBPa5XmN-11" value="" style="rounded=0;whiteSpace=wrap;html=1;" vertex="1" parent="1">
          <mxGeometry x="1504" y="2460" width="150" height="371.81" as="geometry" />
        </mxCell>
        <mxCell id="FOVqOBKGCX3OGBPa5XmN-18" value="" style="rounded=0;whiteSpace=wrap;html=1;fillColor=#f8cecc;strokeColor=#b85450;" vertex="1" parent="1">
          <mxGeometry x="1340" y="2460" width="150" height="371.81" as="geometry" />
        </mxCell>
        <mxCell id="FOVqOBKGCX3OGBPa5XmN-4" value="" style="rounded=0;whiteSpace=wrap;html=1;" vertex="1" parent="1">
          <mxGeometry x="380" y="940" width="732.2819999999999" height="511.81" as="geometry" />
        </mxCell>
        <mxCell id="FOVqOBKGCX3OGBPa5XmN-21" value="" style="shape=image;verticalLabelPosition=bottom;labelBackgroundColor=default;verticalAlign=top;aspect=fixed;imageAspect=0;image=data:image/jpeg,/9j/4AAQSkZJRgABAQAAAQABAAD/2wCEAAkJCggKCAsLCQsKCwsLDhAMCgsNExcVEBQPFhISDhYSDxQPDxQSFBgTFhQZIBoeGRgrIRwkExwdMiIzKjclIjABBgsKCw0OCwwMDg4MDRAOHRQNDCIUFRcOHggXDBAWEBEXCxATFAsRGREeCRkMCCIYHRQPHRANDA8WEAsUFSMWGP/CABEIBdwF3AMBIgACEQEDEQH/xAA1AAEAAgMBAQEAAAAAAAAAAAAAAQIDBAUGBwgBAQEBAQEBAQEAAAAAAAAAAAABAgMEBQYH/9oADAMBAAIQAxAAAAD7iAAAAAAAAAAAAAAAAAAAAAAAAAAAAAAAAAAAAAAAAAAAAAAAAAAAAAAAAAAAAAAAAAAAAAAAAAAAAAAAAAAAAAAAAAAAAAAAAAAAAAAAAAAAAAAAAAAAAAAAAAAAAAAAAAAAAAAAAAAAAAAAAAAAAAAAAAAAAAAAAAAAAAAAAAAAAAAAAAAAAAAAAAAAAAAAAAAAAAAAAAAAAAAAAAAAAAAAAAAAAAAAAAAAAAAAAAAAAAAAAAAAAAAAAAAAAAAAAAAAAAAAAAAAAAAAAAAAAAAAAAAAAAAAAAAAAAAAAAAAAAAAAAAAAAAAAAAAAAAAAAAAAAAAAAAAAAAAAAAAAAAAAAAAAAAAAAAAAAAAAAAAAAAAAAAAAAAAAAAAAAAAAAAAAAAAAAAAAAAAAAAAAAAAAAAAAAAAAAAAAAAAAAAAAAAAAAAAAAAAAAAAAAAAAAAAAAAAAAAAAAAAAAAAAAAAAAAAAAAAAAAAAAAAAAAAAAAAAAAAAAAAAAAAAAAAAAAAAAAAAAAAAAAAAAAAAAAAAAAAAAAAAAAAAAAAAAAAAAAAAAAAAAAAAAAAAAAAAAAAAAAAAAAAAAAAAABE4UTjSXnGMjGMrFBdpyu9k0NkzMKszCMzFJkYhlYoM0YoLRzWXRyc/bsvFRM1EoJNGDbbVjLIoi7HK3UC+lVelbQ2KzsMmVikyMYyKC7GMjFUzOPU7UcjoxlYSZmEZmGTLbBlq4aAAAAAAAAAAAAAAAAAAAAAAAAAAAAAAAAAAAAAAAAAAAAAAAAAAAAAAAAa0RJZBJIJRWLsQysUGaMYyMasjHJdjkvOMt1JSyotONGRgg2FbVCRCRGrs6kbqJogShEsdTMpBkY4rKxFysYyMcGWKDLGMZGMXUlLqRGRrZ6sABkx1NtW10AAAAAAAAAAAAAAAAAAAAAAAAAAAAAAAAAAAAAAAAAAAAAAAAAAAAAAAIObOBJnYJjNOBGxSAragIACBKJImLAglAlCJhBSlqG1k1spmnBGmdgRsc7c5p1GEZmEZpwXLArAIAQSiRW1S8AAAIJrNCmXFMbd9adNidaDarrjo59Pc1QAAAAAAAAAAAAAAAAAAAAAAAAAAAAAAAAAAAAAAAAAAAAAAAAAAAAAABBxbRMgZJC9omIpahJABCYEwIvWQCQImBW0GOswTmxZQAC/O6PNN8AC0SXBQEAARMCtq1cAAAFa3oVEXtE0BCRt7unuboAAAAAAAAAAAAAAAAAAAAAAAAAAAAAAAAAAAAAAAAAAAAAAAAAAAAAACJg40xOYmETMDJatopFqCJEAAIQmskoEomgFZgpjuJy4soABk5nT5hvpEAWrYumCkAAIAFZguqLK2ApEwKXpEAyItUJgA3NzT3N0AAAAAAAAAAAAAAAAAAAAAAAAAAAAAAAAAAAAAAAAAAAAAAAAAAAAAABEwcW9L5gQJL2raK1tUgESDneY8xvHrNPhei741Wr5nU+gem+P94+mz80+h+Xtsq2zVbQYk1LZceQAAy8zpcw30iEiLRJcGMABPjbPV+b8P3/Tz1se3td+fL6Hz6NPtvR8hzfF1+hW09nj0vAKXoVBlFAAbu3q7W6AAAAAAAAAAAAAAAAAAAAAAAAAAAAAAAAAAAAAAAAAAAAAAAAAAAAAAAiRxLxOYEJgZJi0VpepCRPz3p+K64r2vKZe/PteK9n4v28Ol3fH+rue553v6HLXnPTaXO4dvsu386+heTvlgxcYJyY8gJISL83pc43okQmBatjJS9SiREuOeY+ffVPF+7jfo+V9f15cKdbW9Pz7enxeg8/u5/gNzU3e99T+Vbnl6/U7Ysvi7qXoVSi8p0ARI3drV2t0AAAAAAAAAAAAAAAAAAAAAAAAAAAAAAAAAAAAAAAAAAAAAAAAAAAAAAADjTEyBkBkmLRWl6g4NnhvTeNw+nj6zkX7+8eQ4XufDd+frfJ+r0vT5+bzPR6ud4MPK6XLvx/tnzH03n7fS5pfw9qVmInLjyUmJAL87oaMbgogTNbl4mCgJ+MfVPkfp55PoXzX0Xo4d/y/oPNax6bUyS5cfJk1Nxved6Tp0MXlcnk9f1rr/NfpHm65aWrlAjJJoABu7WrtboAAAAAAAAAAAAAAAAAAAAAAAAAAAAAAAAAAAAAAAAAAAAAAAAAAAAAACJHHROYEJiS9qzEVtUnxntPB2ec5M5vXynp5/F9+O6xfRPX5vI4d/wA9HodXPz+e+X2/Q8bn15Hf4fR49vr2THk8HelbUi+TFlqQAW0N/mx0BRAmYmMkTBSYueM8z7TzXs4dDj8/Z78Of6PifR+vHy/O7fnjp7WHzMYNutNuTtYcvH1bH2T4d9z8He1b057gRkmJ0ARI3tnBn3QAAAAAAAAAAAAAAAAAAAAAAAAAAAAAAAAAAAAAAAAAAAAAAAAAAAAAAAONMTmBCYGS0TEUviMnjvY6dnxfY4XV93HUdLN6OXk+j0utvl47d9T46z1ej5/p3PpN3zUefv2Gh67j19XkifD6MQi2SmQAAvy+py66IgBatiy0VjvSx5T5h9u+P+jjo9HPj9fDFe2brmuxz8GuPbv5TsY32fP7fpOXf531OhS6fWfnX0fwd7UvTnqJIyDQADoZ8GfdAAAAAAAAAAAAAAAAAAAAAAAAAAAAAAAAAAAAAAAAAAAAAAAAAAAAAAAA44zAgIyXx5SMOfGRkxXPlPmfuHxD1cejlz8vrjZ9T5j1DPH8f2d7V8Xu9Tq+rhTS3uf5PTi+web9l5O0xavHVUzU2iYAAvyurya6YgBaJMhNYbTUy/Nvo+lvPybmes0vfw3tHo+Qk9P5XtV68eV1Y6yeSyYp109Vq7ez4e/repLy9orMCVolE1AoDoZ9fY3QAAAAAAAAAAAAAAAAAAAAAAAAAAAAAAAAAAAAAAAAAAAAAAAAAAAAAAAORFq5hKITEWy4cheLDBNqGXjdXJXyB9Z8H1xylcHXnwuhn3NXm4N3Wzcnd6XueOsU2ry2pdFZWoTEAAvx+xxzqyAAGS2PLUY8tCuTDaOX4/6Rqds/JuZ7jznp8/P2NnR6Ne6ku5Ol9D47819UtXz9KjGqzIiZACAmCuhnx5N0AAAAAAAAAAAAAAAAAAAAAAAAAAAAAAAAAAAAAAAAAAAAAAAAAAAAAAADk1tXMkZAJgZrYc1TgzjXm1YvfErJyOpNnndf082cXuQliss2qZKzeCsSIlEAAX4/Y4x1wAAMuK1ZZiaxRmxRF6DNii1nC5nsI1PHdzrltSGbWJRW02KxaCoAISAOjlpfpQAAAAAAAAAAAAAAAAAAAAAAAAAAAAAAAAAAAAAAAAAAAAAAAAAAAAAAAOTW1cyRkTAAyY5M99fNVsWUazYpGJcYLzJVaxjZbFEqrVEBCJETEgFuP2eIdgEokElZgXy4ZrLatqpi2JNVnpGOuWKquKTa0Y73ioiaCIRCRCRAArqWrbdAAAAAAAAAAAAAAAAAAAAAAAAAAAAAAAAAAAAAAAAAAAAAAAAAAAAAAAA5CWZCWUSsVWggQmIM99ea2GK9WQJmsiJqIrjL0hkBEgAAJLcTt8Y6yQABCRKBOTENlr3rKragqxBEKxNYpFqkQAKAARaDoZa26UAAAAAAAAAAAAAAAAAAAAAAAAAAAAAAAAAAAAAAAAAAAAAAAAAAAAAAADj2hiSIACAALVmStkEoETWwAASIAABKBKJJ43Z4x10ohKoSIWiISISIlFSiSazBZAlAmIqXAAFAAAdK1bdKAAAAAAAAAAAAAAAAAAAAAAAAAAAAAAAAAAAAAAAAAAAAAAAAAAAAAAAByUxiLVtkAABEWEJEJESFLxYgAAAAAQFomKcvr8s6YQAAAIJVEgAraKkAAEJgTAiQAhIiSt/Liy9KAAAAAAAAAAAAAAAAAAAAAAAAAAAAAAAAAAAAAAAAAAAAAAAAAAAAAAABy6zGZMmAkiQAUvBMSIAmskWxZQAABEiCSEogUmJlcrq8w6YQAAASABAUrapYUBAAAESITAAJro2OlAAAAAAAAAAAAAAAAAAAAAAAAAAAAAAAAAAAAAAAAAAAAAAAAAAAAAAAA4NOleZ48dpHD2emjTbg0Y3xzdLvjgV9CPNvSDzWP1I831t4aV9oaraRqtouq2YNeNka7ONdsDXbMmtx+vo5dGc8aYWeDCzDAzjXbEGKcgxskmKudGCuyrEyjFGWTCzQYmUYmWDGyDGyDEyjFOWlb81tugAAAAAAAAAAAAAAAAAAAAAAAAAAAAAAAAAAAAAAAAAAAAAAAAAAAAAAMEUSqyZqsISISIiwqsKrSUXgqsKrFqsiEiIsISISKLii4rF6lLQzZWVCREhEhVIhIhIhaaouKLkpNhVYVWLWLwVXJRcUXFJsMubU29aAAAAAAAAAAAAAAAAAAAAAAAAAAAAAAAAAAAAAAAAAAAAAAAAAAAAAAVtqpqbWptRKMKZwAAiYEoLKJUgkoEoLKBKCSiCygupJZUWiBNZpFGOc3aQoBak0QJViLxUWVkuqLKzUqksgShUoLNLCUCUJJRBZW1Rkw1XoC0AAAAAAAAAAAAAAAAAAAAAAAAAAAAAAAAAAAAAAAAAAAAAAAAAAAABp7mkmpsaexGXBapnYhlYxkYyZGMZGMuRjGRRF1CXUF1C3VJZVVoiq3UiMjGjIxi8VgxseSNliVlYhlYhljGMjGMjGMrEMrEMrGMjGMjGMjGrIxjIxjIxjJONGRjGRjF6xFdOTVAAAAAAAAAAAAAAAAAAAAAAAAAAAAAAAAAAAAAAAAAAAAAAAAAAAAAaG/oJzs+rsRdUXVtlaaTVkSJhZM1lJgllCWUCUCUCUElBSApMBWC6gvFYNfPz96MqirqC6gvOMXUF1JLsYyKC84xkYxkYxkY5LqQZGOS6guoLqDIxi7HauyidUAAAAAAAAAAAAAAAAAAAAAAAAAAAAAAAAAAAAAAAAAAAAAAAAAAAABzeloJyc+LLF5rYlFoTCJms1KJsmaksqLCAgALZhFSqghKhAiYIiREhyOnzOjLlVWWVkkAAUBCURIAAAABUoVMAABIIyUudgWgAAAAAAAAAAAAAAAAAAAAAAAAAAAAAAAAAAAAAAAAAAAAAAAAAAAAOf0OenLzYc0WmJFqyTNZJQJmCSgkglAlAlAlAlAELMGahAIBAByd/S3JcyFkzWwAAAASISISABBKJACYoKCAgBkx5dOuLQAAAAAAAAAAAAAAAAAAAAAAAAAAAAAAAAAAAAAAAAAAAAAAAAAAAAHP6HOTmZsOeJmBIJRKSgkoEzCJQJQqUCUSCCUCUFELMGSAgEEHN3uf0Ivpbvm9MTwrd948HY93HhZPb38LQ968FB9AfPx9Bj57Y9/Pz8fQnz+x9AeCofQ3z0fQr/ADwfRZ+c2j6PPzSx9JzfLh9Pt8wqfUdr5J6xPaZsWWOuLQAAAAAAAAAAAAAAAAAAAAAAAAAAAAAAAAAAAAAAAAAAAAAAAAAAAAHM6fOTm58OaAASUSAShJKCygShZM1klAlAlBZgUQgSoAAhHJ6PP6MW4fcnT5LP1qtfK4+sK+UPq4+TvrEnyS31kfJsf10fIZ+uD5HP1sfJ6/Wx8kt9ZHyd9Yg+U4vrcL8op9aivlNfqw+Vz9RqnzGn1Gi/L/Weg2UzZ9fNl1xaAAAAAAAAAAAAAAAAAAAAAAAAAAAAAAAAAAAAAAAAAAAAAAAAAAAAA53R5iaGbDmibeM86fVHy2h9Vn5djX6rHyuD6tHyqD6rPymp9YfKJT6s+Uwv1d8pqfWI+T4q+vR8ik+tx8lR9ZfJB9cj5JB9bfI7H1mPlEJ9Yt8l7a/QhJy9/Q38rikWBAkUAmJgKACAABJCVBQAkhIhIrmxZTrC0AAAAAAAAAAAAAAAAAAAAAAAAAAAAAAAAAAAAAAAAAAAAAAAAAAAABy+py00c2HPHi/Oei87qvc+H+lGho+P9Qec6+75c99bwvvI4/ld/WrL6vNuJ849j5CV9pg5485GWKr2+V9FjU85hxGn7jwW+es8L7fyB2uz8+2z6H5X03zdJ6vH6y/Rkxicze0d/NtMTYIJAJoKCBESAABIBQmoBKJAACJIzYc51BaAAAAAAAAAAAAAAAAAAAAAAAAAAAAAAAAAAAAAAAAAAAAAAAAAAAAA5nT5aaObDmjxfnPRed1X0r5r9RPl/ZeiMPjux0E6XC7/AJReZ6LQ2zP6HldtPmkbudfV/OvZeUMnp/Kb4+g/M/dp5f0nA7y/P9q3rFnzXpvPs8339dc8Ph9LoLyOnzehX0uJc5xerob+VxSYBW5CVRISiQACEoCgBNAAAAAARnwbB0xaAAAAAAAAAAAAAAAAAAAAAAAAAAAAAAAAAAAAAAAAAAAAAAAAAAAAA53R56c3Phzx4nznveZp5T0O3Bq6PYR5PudKK1rZho8L1Q8v2OlB5be7UnE1fS3PKR64ePy+rHJ4/sJPF7/qJPMcr3ljyc+siXy+H102eD3vX5pezEszmbulvZWSqEiItWom4iQAACggKCJFACSEiEiEiEwRnwbB0xaAAAAAAAAAAAAAAAAAAAAAAAAAAAAAAAAAAAAAAAAAAAAAAAAAAAAA5/Q56c7NhzQSiAJpEZGIZWIZWEZWPJQUEABSY5B2I8Jsnsi0RHlfUVacXjY9vHmPUVExaOXu6W/m2GoJIi1SyAmILKiytDKKEkJEJRElAASgSiQACufDnOmLQAAAAAAAAAAAAAAAAAAAAAAAAAAAAAAAAAAAAAAAAAAAAAAAAAAAAHN6XPTnZ8OWJRJHP6PyJjW5Whknyd2dWzhsVwwme2pR09v9E+A/S30vfKXvrhMAAD519A8ce35PVHL1u3c+W/SPM+lOLu87tHm/VcPonTtExy9/n9DNsNSSDW+S+h+avH0J0cjwbsahz241KNb3qfDVej9BbfhvZvqZkrcPC9F4gnveG9nW3j1eAd/vfLvpp55isdfrYtCM2Dye+eyVsARnwbB0haAAAAAAAAAAAAAAAAAAAAAAAAAAAAAAAAAAAAAAAAAAAAAAAAAAAAA0N/QTnZsOaIJJ+JfbvJOfxzLqJ8noTp2ebajWg2ceDG67PvPCfb77+tkiXvAEkJgnwHvqnL4nQz1rekRHl+62DS5PpuCcr13G74mJjk9DQ6GbZKxEq+WeB+9fC3jx5OfkeHfaRz3MetRvZjW7L0e995p9G/RyBp4f2HlDh+w4uzW5y/QaBy/Z8DqHmbdTejHHc8seY9D1OIet2NXaAiNjX2K6QtAAAAAAAAAAAAAAAAAAAAAAAAAAAAAAAAAAAAAAAAAAAAAAAAAAAAAaG/oJzs2HNAE5MQ1uL6Vc+aj0xPMPTjys+pRo7N4bAAAAEhyfOp63maXQtx9LV5x6iPE9mO6kJiY5XQ0d7NuLEwLYsk1zXTrc82OorkOwjkb2zWXHeYWRQEwCYEgEEoCYkAAjY19g6QtAAAAAAAAAAAAAAAAAAAAAAAAAAAAAAAAAAAAAAAAAAAAAAAAAAAAAaG/z05+bFlgSQ4/ZKvL9s3WnxT0y3kz1bS1TrS4p2UiFhVYVSI5nT8eT6rP88rY3+j446W3qdZdvV9Ek876Lx3siJiY5m9o7+bYWBQAUAJiJAKAAAAkAEAlEggkEbOtsp0RdAAAAAAAAAAAAAAAAAAAAAAAAAAAAAAAAAAAAAAAAAAAAAAAAAAAAANDf0U5ubDmhx+xJ4L2XB6pycHX5tYd7B2TBpYuqcbLbeO34/pWjpcHv+fJd7h1WOxpluxyevDzvofNnpvD+r51bnK4MVu+28Bgl+jtDdk8r67xnsiL0vHK39DfzbjUCgAAEgAAAAAmJAITABKBIAGxr7J0BaAAAAAAAAAAAAAAAAAAAAAAAAAAAAAAAAAAAAAAAAAAAAAAAAAAAAA0t3RTnZcOaEwPM96u0ed0+rvVxo7/ENzR9Jw45/qdXcPm30jX2BMCUAABMDxnS9Fya6d/F1PY5PC2PQeZ7PpTBnIm1LxzN3S3M3IRqSKAAAATAlEgA5h03mPUkR5/0BM83zJ7Zi5J21qkgAAbOtsnQFoAAAAAAAAAAAAAAAAAAAAAAAAAAAAAAAAAAAAAAAAAAAAAAAAAAAADR3tFOblw5oms+RPWY/PaB7PJw+Oetz+F9QdCfBdw71/DdE9M8fB7LD5rSPc8/W8+e5aG+AAATNfMHqY8/3wASLVtHN3NTbzbwnUCgAAABIAArapwPR87onnPQ+d9EYvLdziHouV2+IeiregmBIAGxr7B0RaAAAAAAAAAAAAAAAAAAAAAAAAAAAAAAAAAAAAAAAAAAAAAAAAAAAAA0d7STmZcWaHk/W+VMnK7Hdrmcn13mj0mhtcGPPetroVlpmwGDQ6licHa82drxvovRF9jhd6MePl6x3HDudfnYt0896ncg4vX8zirrYfDddfodfJetkWraOdt6u3mzMTuAAAAJgSAAAYjNwsWc8n9E4Peq0uBHX8T7bz5udzkdYlEgBAbOtsnRFoAAAAAAAAAAAAAAAAAAAAAAAAAAAAAAAAAAAAAAAAAAAAAAAAAAAADS3dJOZmwZ4cPuQcbzXq9muNfo7B4n23NucPt7+c8xtbsnP1PUcyJ4npqGTx/ueMdTLMABKIFEwamTPBgw70iAXpeOZvaW5m3G4AAAASCASAAOZxPXcU2tLq7ByadmTxvo+j5Y9PFoiEqhIhIbOtsp0BdAAAAAAAAAAAAAAAAAAAAAAAAAAAAAAAAAAAAAAAAAAAAAAAAAAAAANLd0k5ebFmh5j0/nTRy7/NrD2/IexXTz7G3J4j0mO5pX2tKr6GPnr67B2/Nyep8r6zzh19ylwiTQ5nH41fU5I896Dg9881j28BqdHS2jY7PK60Reto5u7p7kthqBQAAAAEoEwADBn1Tg8nuaC+0rMJPm/ScM527ap6BEgADZ1tk6AtAAAAAAAAAAAAAAAAAAAAAAAAAAAAAAAAAAAAAAAAAAAAAAAAAAAAAaW7pJzM2HNDz3odUw+Wx+mqlOH62MOXNBy772U4m7p2rSx+l4hsYuhiOh5XucU9bOLLAg4/G9Dyq9MIi0CcWQRIRaETalo0NvT3JbDUAACgAAgKATEkcHvDzHosfnV9YEt8+9/Q53R8l6syzEgADZ1ts3haAAAAAAAAAAAAAAAAAAAAAAAAAAAAAAAAAAAAAAAAAAAAAAAAAAAAA09zTTlZ8OaFbeXOnvefpXW2PO5Y61uOOvtcHOdHd8v6cAATAlAA53L6vJr00kIvQksVLFUiLVtHP29TbzbjQEACiBIAgAKGmbjTG55emyejicBmTxjc1eF7IsSAANzT2jfFoAAAAAAAAAAAAAAAAAAAAAAAAAAAAAAAAAAAAAAAAAAAAAAAAAAAADT3NROVmw5oeK9r5U4/dmmmS2G8TfBYtq5qGt7PxPsS4gAAAD5/xfovm9Pd83ocLLR629xTPz9jtnBc3o1Ozq7p2r1nLnbmlvZtkxqBQAETCJAFRMCUCeN2vFLffDu5RK/OPZeWPonjPU8M9GBMCQANzT3DdFoAAAAAAAAAAAAAAAAAAAAAAAAAAAAAAAAAAAAAAAAAAAAAAAAAAAADT3NNOXnwZonU2x5Xu7g4O90IONn6ReVl3xiZSAoAAAE4cqSUK4XbtI4XdFLyMGdELVmOdu6W7LkROoAiRAITCgABQE62wNXPcSgThyktgzBMSJICgG7pbqbgugAAAAAAAAAAAAAAAAAAAAAAAAAAAAAAAAAAAAAAAAAAAAAAAAAAAAGnuaicrPhnLK1IzdtqtXaazLYjVXWy1pNhrjYa42GuNidYmy1lbLWRstYbLVG01SbbX2bIWWVWRS0I529obeLnnHFZZ1xsRgg2IwVt2GrFu21YXbjVG01RtNUbU6g22oNtpDdaQ3WkN6dKU3Zm1xRcUWpTe0d42xaAAAAAAAAAAAAAAAAAAAAAAAAAAAAAAAAAAAAAAAAAAAAAAAAAAAAAraDyOa+bDezYsuoIkmEL88y/F9bz/a+5V+IWnb7c+JTL9tfEZt+2x8TH2yPig+1vihPtj4lFn26PiMM/bnxCjP3DB8Vm8/vPufg33rr86BvgEU1dvTy5uhyPX8t06WLa6y0zO81i9Yr4D6D+Vufr+zviLn9D7ZPxOWvtb4oX7XHxWV+0x8XJ9lj43B9lj42PsUfHoPsUfHq3P2GPj0MfX+j8Q9Vvj+iZR0+ZKBOLJStff0dw2xaAAAAAAAAAAAAAAAAAAAAAAAAAAAAAAAAAAAAAAAAAAAAAAAAAAAAABwK5KSb2bBnBBOO+A/OVutveD93563omfR56fRmvOPRTL5u3pIrzb0hPNx6Wp5yPRjzdfTVTzWP09Lz8vT1OPXHZ+2/JvrPq/K2Vnp88Ipqbenm/OPffNvovLW/s62z1xeYbShEfmf9LfAuH2eNPft5/0/At6C0352fQSvnXo4l869BY8+9BJ56PRRp52PRk83X0lGfN09Jj1x876PH1enzvtytvV+UAY8lDX3dLfrYCgAAAAAAAAAAAAAAAAAAAAAAAAAAAAAAAAAAAAAAAAAAAAAAAAAAAAAcXDsa0m9lw5CyBODNgl+Nb3P3fD+7zsczva1JWygyVrBkUJkihLqKuxykxEJOO2K8ez9L+ZfTPT+WTV1+daaIaW3pYvyz6N8z+kcd9fY18/fF5rO5KIh8X+y/G+H3M+xiv5/0iZhqxVSCyqS0QJmtVtNIMkVhitZxXnOfXz9PD9htjn1fkLqKvWIMW9o71bAUAAAAAAAAAAAAAAAAAAAAAAAAAAAAAAAAAAAAAAAAAAAAAAAAAAAAADkam3qSbuTFcsgTr58E18V3OdsfO/oW5bVvO+acMVlYqzWe2vBnYRnnWvZla9pM7BFmeMNbnNTDi1x7/1T5R9W9P5Ah1+ZKA0d7Q56+RfR/nP0Xhvu7Gvn9XPIqstEIfFftPw/h97pW0svn/VbM6xdhr1lzsCXOwVNmMA2Iw1NiNcueddc58WLHeWfJo5ung+3TS3s/E2QqazUpvaHQrOFAAAAAAAAAAAAAAAAAAAAAAAAAAAAAAAAAAAAAAAAAAAAAAAAAAAAAA5Gnuacm7fFkJQJxZMK/Cs2tf5n9K2smC09OaMQyRjGRjGaMUmRiGS2EZIoMkYoYmtaXz+h+t/JPrPt/F2VdPlWVVbn7/O56+TfQ/nn0HzdfQ5sOX18bzEallQ+F/dPhXm/Q5suvk8v67PGKrpmrjLknHUzMUJlYpXJWKmRjM2YZZvStNcWzobnTwfc7Ut7fwtkLJrNSvQ5/QszhoAAAAAAAAAAAAAAAAAAAAAAAAAAAAAAAAAAAAAAAAAAAAAAAAAAAAADkae5pJt3xXiyothyYl+D5tfN8r+l5ppbPqlBqYRVkKmaEtMQllYSyspNYrcxjtjvD0P174/9f9v4qUOnypRBk5vQ5uL8o9/4D33l6+ky4b+zllQ1JQJ+DfdvhHl/Q574r+b9heKmrVRNTNSXtimpRBaEJagIVGO+JxpvaO71+d9ytS3u/B3UWWVDq8nrFhaAAAAAAAAAAAAAAAAAAAAAAAAAAAAAAAAAAAAAAAAAAAAAAAAAAAAAByNLd0U2rY74soE4cuFfz7l06+D970Z0LZ9O61E1ttQ1ttQbbUG21Fm21JTaaUJu1063G7GlF4ev+x/E/tXr/KWQ6fMlAtzejzM7+V++8D7rx9fTZcGX28cyi5sqI+E/c/zr5/0Pdnhz5v1Pbnhpvt045exHKsnQc0nQc8b0aRN2upFzuV1K3ns014vLN0OT0t+P79alvb+MmazcygT1uV1iRaAAAAAAAAAAAAAAAAAAAAAAAAAAAAAAAAAAAAAAAAAAAAAAAAAAAAABydHe0UzXx2zbIEwpHxPzfsud4v2/n7+ic/o+en0FmvOvRxL52fQE889Cs889DROBHoB5+O+ufP179bz8/Pbrrj2vsHyf6v6vytlW/nWVLfm9DmZ18u9x4r2Pj6+py6+X28c7HNl4iC355/QfwTj9rnzv38/6XnupM6cqepeb5LrWOPXtTHEduxwXfiuBHfSedr6Sus+bj0Vby4HocfT34/sl8d/X+MsgkzWbLdjj9Wri0AAAAAAAAAAAAAAAAAAAAAAAAAAAAAAAAAAAAAAAAAAAAAAAAAAAAADlaG/opkms5tohLOK9F+E5tTY+f/RMt9djvsRghvYa8mZrDZaw2WsNhrwmzGvFmxGvDGauBrh3/r/xj7J6/wApkUnr8m00F+X0uTz3829d431Xl6+ztgze3jlVWXQTH8T+z/B/N+j6dtaPL+p2rahraaqXajWGw1ibMa01sNcmxGuTPGCrOauKm+OTd5nR34vuN8V/b+HsqS8471k6fM69kigAAAAAAAAAAAAAAAAAAAAAAAAAAAAAAAAAAAAAAAAAAAAAAAAAAAAAOVpbuklkMalBpWS/nu+K3h/cbLPfPq1a7Vq1I3YXSbtTVjcJpxuwabZk1Y3KM6tdqjOvGxp3j2vtPxH7R6fzuecLp83MwFz8bqcXD556fyPpPL293l1Mns5bbCszMMyYPhX3D4Xw+5uzr5/P+jialssKMiqRlkxWvKYI2Fa7YhNeu1RjWrsVvLB1uT09+P7lfDl9f5O8VlicmPImXrcnrbxIUAAAAAAAAAAAAAAAAAAAAAAAAAAAAAAAAAAAAAAAAAAAAAAAAAAAAADlaW/oIQxuYirVmI1+eLYdzx/rfbR0ME9+Bntc4I2ITBObIacbSzWjcxms2qxrU3qmlG/jrheb9j5DF2/tfwn7V6PzW7Oi3595ojpcLd4mceG9D5jveXr77Lyc3q59SdC+m7GnEtfhv2T4lj6O/wBHz/peH2+7O+ddOdydY077N6052xrMuRnVbhNKm2m9LD0Ky6VduLnymfZxOH2vJq5PX+Sz2w2Yy5cGZjP1uT1unKQoAAAAAAAAAAAAAAAAAAAAAAAAAAAAAAAAAAAAAAAAAAAAAAAAAAAAAHL0tzTSkTiz0UrinS8a9J0+C9vner8v6fuY6uX1rFK2aYoYzTrlzzghMtteTMwSZoxLMrFEup5X20zp85+l1dfl5VIyyMMzW5oZJ1y8T2e8wpi2G9UsLa2GJcXyf67j0+U+t9TOPXa1YdrzSDNSkJnxqJNqjLbWsualJSKZojGum+Xy/UVPXbHmtvv+b9Bk5uz2+TubfO3t+fb63J62+MgAAAAAAAAAAAAAAAAAAAAAAAAAAAAAAAAAAAAAAAAAAAAAAAAAAAAAA5Opsa6U19jWx0x4cmHPbBxaYPJ+qgc/tVTFxMYs7NLSspaISVRaLVJRescZKS2rMEqXBVJmsKtW4tQl7YxMwIiYK2VarZUvbHeS8Y8lQmhYuY7JKzMESJM1Ra2O9TNBkjFlz0yVSsdPm0vD13S8r6r2/i9vrcnqdvnXCgAAAAAAAAAAAAAAAAAAAAAAAAAAAAAAAAAAAAAAAAAAAAAAAAAAAACDg0yamWbV2cM3r8vseQ5fV0M+tseH9zato1yjldLjlO/5r1GPRjtFenkvfHNlorBkisJnnXtZdilcqkFpxTLmikJkrWGrxQZYokvOO9MlLM0yYsy4EGomsraIiJTWyVqEovFQpjlb2xWLzitZsW18rntYqZU4GbnbfL6nXmt+vzUxOd630P5567t8f0HX4/Y9v42RQAAAAAAAAAAAAAAAAAAAAAAAAAAAAAAAAAAAAAAAAAAAAAAAAAAAAAg87iyYs3Xx5cU618d7LxHm/QRsau75v1VK3prjHE7nDa1/Vec9DjomK9fIXgitxC0JEpSq9Vi0lpaJRW9SItURJVgWhc5YqSmSsLWJmaqsKpkhIreKJa1YJpaqjKYpiyxMkm9bpNscTXAy3py+n3bUdfmZlZl1+3xOs8/se3wu79L8DIsAAAAAAAAAAAAAAAAAAAAAAAAAAAAAAAAAAAAAAAAAAAAAAAAAAAAARI83iy4pcGPLTPbF4n3Pz/z/AKDY3NHa8v6XKxOnC3nPS+Zm49DwfQc/XWbuvhpGWqC9la3gWrZLVtjStplaWmStchMc2m3De8S45yCs2i5VtWWtr0WsrFYvCVXhYtS5RKETjW+xrUs3WnNmzqSzq8wW0VgspkzvjUya3P6XdvTN1+bjyxBGbDo4v1Xs8btfU/nEi5AAAAAAAAAAAAAAAAAAAAAAAAAAAAAAAAAAAAAAAAAAAAAAAAAAAAARI83S9JrBTJTHWnz36J894ffvt6l/L+p2GtO+Oz57rcXOs3d8/t49nUty2uHUyceLnt15JOxHJmzqzyEddy1nRc4103MM9WOXZOnHNV0qc6Zem5tE6zkjquYjoTzbL0HNV0p5w33PR0J5xd9oDenRG7GmNydKDdaML0q6MG9XSS7t+dM3i1trWnp72TC6/LvfHE2182HO/qPZ4/Y+p/NLCwAAAAAAAAAAAAAAAAAAAAAAAAAAAAAAAAAAAAAAAAAAAAAAAAAAAAADzdL1lw0yUx2r8/8AoPgOH3OdRTw/ursUMzr5cdxlyUu2rCWb4xaEFlSlSzegvNYLscJdRLknHFmZiJkjGayMRMs45svWkGWtImslYiWUFtakJlrStZZwlz5tQxt4cMGVQ1ecYzTiszkVsu1jtTXLYx44uNhrznpt7eh19+T6P2OP0/qfzHOLAAAAAAAAAAAAAAAAAAAAAAAAAAAAAAAAAAAAAAAAAAAAAAAAAAAAAETB5ytozcUWjPWvgvf+H5fX4NM+Lxft8cyTEyTrjS8xO1ElqkQFiZkovEtZkEiqVQtEVSKrEhMlUqiLIqtBCSwmSi8FVpWq4qsSq0lF6pC0lJsKrSVusbGPJS8scxNi601m6nM6e/H9F6XO6X0f53sCwAAAAAAAAAAAAAAAAAAAAAAAAAAAAAAAAAAAAAAAAAAAAAAAAAAAAADztMiMUZIzunh/d+H5/V4WDY1vH+zqVibYsm+OWmfBjvWJidAuUSIllWjgYrw9G8pST1zysL6t5Wp6x5TYPRMmKeiYhRBJRIIEwJQJRMqcnlbz9M8tZj1Dytj1Dy0p6l5utz6VwPRTrQTqmFzNqyTelzYxbOtrjhtS5e2O81tdvh+k38/2nS5vS9/4XYFAAAAAAAAAAAAAAAAAAAAAAAAAAAAAAAAAAAAAAAAAAAAAAAAAAAAAAcCMtIpF4za+M9ryce357r7ur4v3mGMsGDIza45MGxr53SCdAAIz4LteKw7uDXmwzllMMZ0uBmVh3tfMz7bVzYM+qEioJQJQJi1QFm1brTxPtvIXhhbEXlgnOMDOTAzKzev8t6jPWImJ1TE2JiSb0uu7rbeHXl0bTd1WWzvP6nzXtu/yO90uZ1vX+NyCgAAAAAAAAAAAAAAAAAAAAAAAAAAAAAAAAAAAAAAAAAAAAAAAAAAAAAMHK7kJwWxqZt1IjX0eqd+U6sTXJ5nqU38x1PfeN836rnxsxy9+szLcLNBivaZfN4PV0x6fLvUQvmXprHl3qB5XP6MzbBmb8+FllNdngwsy3CyjEyzGJmiMVshXlfV0b8zPpmenmXqKp5qvpbL5mvqbWcHtZl5YWVcYmS1ziZFVvGWXa6Wx7P0fB87fvT1+HwL91XP6MdG8MfSlvmAAAAAAAAAAAAAAAAAAAAAAAAAAAAAAAAAAAAAAAAAAAAAAAAAAAAAAABz+X0+ZkiYyBVZRBBKIJisKJIiysV0kJiCoupZbIEoEoEzUWiEY8uK5aIkTAmaqtECyJEhBNlF4KpkLQUtEGW+vMbEVuVrlVFoJKJEwJ6vK6+psjQAAAAAAAAAAAAAAAAAAAAAAAAAAAAAAAAAAAAAAAAAAAAAAAAAAAAAAADmc7pc3KBlBAIUViaILJkiUCIgWx2LRErEXqVi9Cb4pW4ABBIjHkx5BMKkAQmLCZWQQSCUEIgyK2JrMmGufGVza5d1iyJIoCUSk9jjdnTYGgAAAAAAAAAAAAAAAAAAAAAAAAAAAAAAAAAAAAAAAAAAAAAAAAAAAAAAAHO5nT5eQjJAKyWtZrEzFxW2Mth1MPXGbBODty1PPerqec9Nq8jOvd2+a+44dejWZzqkWhbWw5RMAAIx5ceQCpQJQSbrEJoCRGlyOmOhydnT7Yy6e/OnF3NrzeNfRc/wz6Hw37RgzZY8WxhI2tPKu0ibCBIJ7PG7OpsDQAAAAAAAAAAAAAAAAAAAAAAAAAAAAAAAAAAAAAAAAAAAAAAAAAAAAAAADm8zp8vIRkIFZpNQWJlSSulbU9PJhy6Xq8+7y9zwtYdnja/q4fWsuvPm7ZPFet2OXTY6Xyr6j4vTkpaudxaoygACKZMeQCgFq3S0yKQmHK6nk9553V4XS9nHq83LpxvY8nmek7W74/o3PU8l7mvLrpey+T/QPLvv45nGtZNJd3Lq7NBYmJJ7HG7OmyNQAAAAAAAAAAAAAAAAAAAAAAAAAAAAAAAAAAAAAAAAAAAAAAAAAAAAAAADl83pc3KBlBCsd8cs2rcY76Nnz/wBRzafS8XbrwuRc97xnquZ35aWr08vfl6TY43oPB6tvWrr53yOnocrz9/pStvL2oLcqlyUSBFL0uSKAZKZSa2okXpkONp8HB6vL3PM9XyHbPf3edrbxnx7mpeWpvcr0+9dquG3l9Wv571fiJr6zs6W74+2HFn1pcu5ob1lhYmBPY4/Y02hqAAAAAAAAAAAAAAAAAAAAAAAAAAAAAAAAAAAAAAAAAAAAAAAAAAAAAAAAczmdDnZTCM1EwUpkpKyY7kczp+Y3it/n+19b5vZ8lvcftn6Vf5v3szo3cnn09H4zHr+nl7W+7ueH0+celpw692+PJ4vXjIXJfHkAEkUvSxZCpQLZcWZJx5MYyYsyeQ5u9q+7l5/meoxejzeb9RyO+xta21wOWqd3mchv2mTRzc+0+R9Z5DT6V1eV1fB3rrbOtK3tHesuLJRI7HI6+ptjQAAAAAAAAAAAAAAAAAAAAAAAAAAAAAAAAAAAAAAAAAAAAAAAAAAAAAAADj6G/oZImM1EwVx5KSr1sV5PXx2fPOrvx9DyavmPQX3jy+DY4Hq4e68fg3ZcnN+ibnPXjsvpuNz1g7/z/wCh+ft6HJWfF66QhcmTHkEwIsRjvS5IpMC2bDmS2HJiJzYch5Tm+j876+VMG9zemOT6Hz2r28mfQ6WLpMFdP1011tTp4vn+vznC9VzWvpO9q7nn64tba1ZZ3dLdsyCxMCexx+3qbA0AAAAAAAAAAAAAAAAAAAAAAAAAAAAAAAAAAAAAAAAAAAAAAAAAAAAAAAA42jvaOUCWCIjHess2xZCaWHJ43rOB6eGtltT0cfJcT3HkvX59T13A95LqWyY/N2yTi1sa4H0vQ6Pj9V62rjdImplvjygAmMd8eQlE0BbNhypfXz4iuTHJl8X7TR64895H0MezzcXl9vr746OztV5erByuu1Nbo+Y4XCd/3PF9bw9OXIYtNTa1ZZ3tHdsyCxMST1+R19NwagAAAAAAAAAAAAAAAAAAAAAAAAAAAAAAAAAAAAAAAAAAAAAAAAAAAAAAAHF0t7RygjNRMEVtSWZrYArS48/qer0O3Pg03dX0cdfqczKmWuXcxrldvdyefvFjG1bVMQMmXFkJAEY8mO5IoC2bDmS+DPgioW+XBazT8x7evbn4rN2tLrjmbuPJm83Y2s2nlO36LY49KbC3LQGPU2tWW27pbtmRE2JiR1+R19t0WAAAAAAAAAAAAAAAAAAAAAAAAAAAAAAAAAAAAAAAAAAAAAAAAAAAAAAAAcXR3tHJExmwCKXrNRathEwREwICIkmLJFiJBIqAitqmJCMuXFkqQJhFL0uSKAtmwZy+DPgiopNZLWxjIoQSRFpIkJIWYmhhw7GvF9zT3LLixaJHX5HX03RqAAAAAAAAAAAAAAAAAAAAAAAAAAAAAAAAAAAAAAAAAAAAAAAAAAAAAAAAcTS3dLJBmwmCImJqJEVtUhBRABW1LhEgBAVmpiQyzZMeTQBMIpkxZCZhUokbGvnMmDNhKghAmaySBNLkglEgCJgx6uzrRk29TbsvMLLTUW6/I7Gm4NQAAAAAAAAAAAAAAAAAAAAAAAAAAAAAAAAAAAAAAAAAAAAAAAAAAAAAAADh6e3qYQRKRCkJZiBNZqiELMIJQItSSyosqJQFZqYZqjPlw5CyotNJKZMN4yTSasrJfNgyl6WpVYVJQiSCZgLVVeai00ksqLVgYsGfWMu5pbZkms2WVlL9ni9zTZGoAAAAAAAAAAAAAAAAAAAAAAAAAAAAAAAAAAAAAAAAAAAAAAAAAAAAAAABzeP6qMvK19ZU8pHqojyseqS+Vx+uHjq+wxnka+pwr5unW4RsR5rQPU38PEe5eCS+8eFL7h4FJ7188xH0ra+V5q+oW+U2j6pPyui/V4+YTH0q/wAyxH1V8rlPqc/LJPqlvlta+uc/5lmr6C8Aj30+U7tnQy9HvV5O3tJrxVvZ3TxU+1Hi7+wHkHrx5CfXTXj6ezg8lf1Y8q9Ss8w9PJ5b0WaaCgAAAAAAAAAAAAAAAAAAAAAAAAAAAAAAAAAAAAAAAAAAAAAAAAAAAAAAAAAAAESKxcUXFJsKxcc3H1h5nV9gPH19kPF4fdDwke8Hgre7Hgp94PBV9+Pn76APBU+gD59P0AeJ2vWDzux2hp5NgY7WAAAAAAAAAAAAAAAAAAAAAAAAAAAAAAAAAAAAAAAAAAAAAAAAAAAAAAAAAAAAAAAAAAAAAAAAAAAAAAAAAAAAAAAAAAAAAAAAAAAAAAAAAAAAAAAAAAAAAAAAAAAAAAAAAAAAAAAAAAAAAAAAAAAAAAAAAAAAAAAAAAAAAAAAAAAAAAAAAAAAAAAAAAAAAAAAAAAAAAAAAAAAAAAAAAAAAAAAAAAAAAAAAAAAAAAAAAAAAAAAAAAAAAAAAAAAAAAAAAAAAAAAAAAAAAAAAAAAAAAAAAAAAAAAAAAAAAAAAAAAAAAAAAAAAAAAAAAAAAAAAAAAAAAAAAAAAAAAAAAAAAAAAAAAAAAAAAAAAAAAAAAAAAAAAAAAAAAAAAAAAAAAAAAAAAAAAAAAAAAAAAAAAAAAAAAAAAAAAAAAAAAAAAAAAAAAAAAAAAAAAAAAAAAAAAAAAAAAAAAAAAAAAAAAAAAAAAAAAAAAAAAAAAAAAAAAAAAAAAAAAAAAAAAAAAH/xAA3EAABAwIDBwQBAwMFAQEBAQACAAEDERIEITEQExQgMDJgIjNBUEAjNEIkQ1EFUmFwcUSwU3L/2gAIAQEAAQgC/wDxDqqqqqqqqqqqvV6v628W8ZX1VVVV2VfkryVdVVVVVV63iv614reCrxVVVVVVVVVVXz61WqnLVVVVVVVVVV2WKxCNPwrVaqbaqqqqqqqqqqqqp81YrHTA9ei3/TDf9P121VVXZXZVVVei7qvQH561VVVVdtVXoV6Df9I12VVVXYD6/nMqqqqqquxv+kG5w+fpR/6XD5+lH/pePR/pR/6Xj0f6Uf8ApePR/pR/6BOWOPu4r/HESOuJkZcTKhxTfzExJsuvHo/XIhFqk+KD4fFSu+XEYhPi5mQ4z/eEsZ9vXHz/AP5eSci7KoAIzysgh94yjlF7P/A9RspnZrRUeJIe9nEmqPVj0frTYmnpiC+Y6O8EQe6x4ce3ehILiz60TVrlDHuwq7Yl2NCQmNR6o+fzSbx6K5/nDsByWliJpmN4wyrnGe7kZHHaVFANubyvlXZCbw1NxISFiHqR6dXEzV/TBndnyhJhmBYgf6oqpvRILqUaGSw0VPU+IloDszaqEyAshJiGo9QfPsXJbSIXemSpV0DuL1WN92OVPsYipa7vZEt25NV33MWm7xE2ZwlFh/R1Y9OpNKMdGco45BzLDSC/p0IVjPeA07oiqmYSJjRPaNFK9x0ajs6YKd0UrRzZ9QfPf+VGdZTlL9I2zeCP44c9Wdr2tKIbzo+7j0XYVhlJmycnJ8wMQRzES1zfDSbyFn6gadSYyORyUMpA6GQCZqyB/vm/gChALGdYgKNcMEgDWrmJE9f6dmozDJT9N4ZH79zhR1iNjHLpj57iitw5LQApVwUco1zI2HuPtvYH/WZO+aKh5E0MLaygI5j8s6Ybicl+mPdg5aykHUDTpzPSJ1bnnb/gN6zOKB91kUxsZ1ECcAFlc9VuX/gUZ2pkZPuwJNJ/uvWEP9Rx6g+e472xZZOIpxzTRuTp/wBJkclyjjLvdhNRPm9z5llJIDM4oRkN/QcdGa9gBYdhaYXbphp08aVoCgJyTNMpXmErUzPWjDEI5kTUaqYs1Ur2tZ6svl3We5o25NUBlCTNiBp0x89x+gISFmo+8q9o0NmrMVLlDbvxvkb0upDyajZkjygd1FHVC4s1hnE457IvdHqR9vTxBCNrlv3+ClqpKkMRKIrJWdOYu2RtWl1W3juzvYNU7k7qwG9y4W0uzTZphccRGvnph57jW/SYlWJ2ul3/APHD6vV5aUZxW8lfJXF/ILblIP6bqB+5MAP2fqAnjA+2EHaca9OPt6eM9muy0y0BnYCF3E0wOhIhKj2jdVS6ioyYIndMwm2RgQKmdFGzPKh9eMFuoHnso3xEKEBatWsZkLF8N8iLQf8A9N3G1FKAUqL/AKZuzORPrhiYZvVIzM9FcY6bx6LDVepdSPtfpyjfETIXdVemd0lKJqUde2GZ11W9Kid3fWOrwumtqzix/EssBRveEGTOT4JnIzlfpj59i42CW5hJhfJmcu++1qCz1tWjuTt6Qzk/5o6dmZmobtIDSM+bZN/hgGwGbqRdvUlDdzOyf/DZ6K20WufW8h9YTAqVZZKH+TL5dkJmOkJ5+id2b0BFHu4xDqD5l89SSMZQcCcTjktL4qi+EDM8zWkzJyqbuvTLhyZ2jnTBGL1RykVWb/8Azho/5v1IuzqSA0gWpwd60ije/wBROz+tycyJYcqTDU4jGQhZopEDwRM7G/crXqnsiByfBxO77+TqD5l89WaEZmVSieyUg+Ww40qSmf4VCQG4VYSI3omronYBb1wRPJmv/OpD2dWWJz9QX3fpyS1cvV/lXVkZ08kz65vr8JozdkRxxssPhzlJpJ+qPmXz1jAJBtkfCzR+qC9mL9Vwvf0bs00dUVgZkLzy+mGHBsL3TdaHs60kcco0kKKeLT+n/k4wOn3TLeQjo+Kf+LcXiHygwkcWZ9YfMvn8B6Pq8EDp8NCuDhQ4bDitMm68PZ+A4gXc+FwzrgcMuAwyCCCPt/AHzL5f6WH2/pQ8y+X/AAvn8OH2/pR8y+X69FRU2UVFT8CD2/pR8y+X+lg9v6UfMvl/pYPa+lDzL5f6WD2m+lDzL5f8L5/Dg9pvpQ8y/l9I+ih9v6VvMn7n+lh9v6VvMn7vwvn8L4UPtN9KPmT934Xz+HD7bfSjp5kbvf6f1FSVfqr9ZNf85rNVdVdVJVmVZldMrpldKnKVXzIHkrUqus1n1/h1E/6Yqjqjqjqio6o6o6o6zXqWf5Q6eZfNfpD7XULUiGv0jeYv9K+Y/TN5g7/9dk6bX6Z9WXz+Zl0h8uNDtHT6J0/cy+fpX0TeXSIdo6fRv3svn6ZvLpU30z94r5+mby6VN9MXeK+fpm8umTfTH3h9O3l0qb6Y+8Pp28um1ZN9MfeH07eXTapvpj7x+nby6bVk30x94/Tt5dNqyb6Y/cDbIbRjV+JBcUC4oFxQLio1xIrigXEguKBcUC4qNcTGuJjXExrigXExriY1xMa4mJcTGuJiXERLiYlxEK4iJb+Fb+Fb+Fb6Fb2Fb2Kq3kS3sSYhftTa+XTapvpj7w24r2tmXPl0KbaKmz4z20205MJqWwdfLptWTfTH7gbcQzvHlaaoSYSVHoqEqOrSVHVHVrq11RUdUdUdUdUeqzXqVFTZ87MtmSyWXLhP5bG18um1ZN9MXuD+ZkqMqCqCrQVgKyNbuNbqJCIj2/CHy6XVN+NkslkqsqiqiqsqiqiqiqirhVwqrPpsLvD6cdfLpdU2zEuTGNLzVxq6RXGrpFU1cauJVJVJVNVkVxqpqpfFSVSVXWezP5z5M6L/ANTcmH99tpd4/Tjr5dLqm2Yrvba0EdGW5hRYbL0KEQIyY9zCtzCpowAKjqmG4mZSRRNG77BgiIWdcPGjhjEHdfGzVRRbxbuDteaLd5szXOzJooY2zeKKQfQ7WvR4N1bQ/wCmVkaxDCxNRQe8O0vcH6cdfLpdU2zFd7bX9rZhjK618SLVu2NV6M0YNGDu8hub3bIxaMLik9olmyzUAEb1fESVewdlEDWxNTdTl6kckvbI3pJnYjkloKw4lGL3SvdKTr5UYPIVEZDFGndyerqH3m2l7g/Tjr5dLqm2Ynvba/tJlD7rLE9jJlDHa1Xnku9AsoI7nufEOZvaJ+07LTuosoYNgtc9Fw7qQLCX8ariZLlOLHFXYJWFVo5GmqJTBYaZiJ6MzBDGjIpDq+uWyH3R2nXeh9OOvl0ibZifcba7VCiaCWucMbjmU8lx2tAH83m3rtSPcSoo5GarxSsA0fiQRFaNylPeFco/VIKxT5MOxndb6VORSd0JXxLcFdRTPZDRR2bxrpYat+nDE4vc+JJnPKEGEGUsZyOuHNSRFG1XUXujtL3B+nHXy6X4TbMT37eIk0XEyIpZTbYMpA1G4k1xEiKcjC3a85kNqogOx6sZvI9X+dmSpRM7iVQ4mWidyLuQyyhkimlLY0so5Nv5lv5kRmbepR+4O0u8fpx18um1ZNsliveq4Z1wy4ZcMuGXDuuGXDOuGdcM64Z1w7rhiXDOuGXDOuGXDrhlwzLhmXDCuGBcMC4eNcMC4eNcPGuHjXDxrh41w8aaGNnrtLvH6cdfLptWTfTF3j9OOvl0urJufNZrNZrNZrNV6cswR5LiJ37RxJM9Jtk09uUbZtVO7CzkT4iV39EU9z2ybS7x6GazWazWazWf5I6+XS6puWSQYguM8VMem8lV8qvlV8qvlV8qaWZlFi3rSVn6OmahHeyu5KaMZRUIEAWlO0jjQJIniZrg9sVinpEoBthFYwe02B7oxfaXuDzE7CLkUmKlN/TfIr5FfKr5FfKr5VvJm0ixZVpL/wCbSe0XdcQKDE914zAZMzFIwSMJHNGNVHODg19WcatxIrio1HKEj0FRnvKoJGOQhblHXy6XVk3Ljjums6WDOsbi7adAsxdlhe822s7PosZ2ig9sFi/bZRe0CxftMoPZDaXuDzY8/Sw9LCG5Q0duSczaajfGWGzizMv1LJMQ8d9jfpsQqoMLLFEBALNiLH3VPR/GQZn9s2njJBFigb0tWmfIOvl0urJuXFtbiS6WBbudN0ZLoZ72aeF2U04O1g4aOwK7MX2Mo/bBSjdG7LDSC4WviSY6AItQWbaXuDzf6g2Yv0sC36bpuSf3tmG9lTu98QDM360ijFrohcgAmteaKMSjEJoAC20IIgKrFHM5O4y3tJRCOKJqsN1rMXIOvl0urJuXFwb4Ki9wvQqqqqqqqqqoBOQrQjBgBhbouzO1HfDROggjDaYCbUJmozMyPDxE9UEAA9eQvcDmnjaSN2c4zjehVVVVVVVVVUUMkroRYRZmbaV1r2PHiXe57MSohxQZIhLe7wQiOyRzslEQIY2kGKhRRnvHllmFyFqKU8RdZHDC0YvVwmgesQOTizlyDr5dLqybmOOM+/hMMuEwy4TDLhMOuEwy4TDLhcOmAR7eq5xsuIhXEQppI35y90OdxF9dzEtzEtzEtzEtzCtzEtzEqM2n446+XS6sm/KllCJs/wCom0bCj87iFPBC6fCxvpZiYe2KcJMuUvcH6cdfLpdU35M0m7BQwu77yUiYWq5Yp60BsSzRteOJJyap4oW7YJCMXd5oGPMIJHL0HtL3B+nHXy6TVNyb1nn3bI8SAlQYzGQbhkMYxuKPEgRUdHigEqNGYyjcISsUjx7HlpM0bdGT14sR2TuUmIYBtCCNyUUe9epYqmUYxRU9Umyf0TBI20vcH6cdfLpU22Z5KM0cQPHiWYpHoBOsILbtycG3eLIWm9eJjBYkB3VVd/TXLCiO7ueNt3iiFpfRMB7IPXNJIiut9NmKW7xC3My3Brh3UcVj125NiG2O9k41m9t1hcmKNYhmY71qzPtxX8G5C9wfpx18ulTcn/2Kb2SWHyhFF+8FP+9ZS+0SH9moPZFf/Yp2rG6eT+mvWHG2JkTuw1beYlDdb6rsWo97T9UuJq9kbYiv6mzEC+RjGbSBc00V4vQZ5YvTITGwjNHvd+4iQyTYf0lGe8Gqd2ZqvH+tNvOQvcH6cdfLpdWTclP6t3RtcDsopQzYo/1MQ5qX0SsaxEgbugsP9PaoTBhtKL1zua1yWbtuVpl0yjOEr4Y8RGXd6S2WinZn7ilij0bfYh8xEQFhHaXeP046+XS6sm5LRuu2HBEb1cAEGoDixNRxw8QvXYcER5uACA0BWtWvVKGInquHlD2/61f1q3WKPuHDRt3cpd4/iymYN6cJVwJ3UTu88tVKThG7i/FRhvHF7hYlMRDu7eiOvl0urJtuSybW4FVn0TEDvksvlZNqsvnJ9EJCXat7FW38Mu9vxfh1hfafZB7k2x3FqXYgZqO6jdnjF2n7oukOvl0urJtuI96FYz22XCNRQw7p3U98krRAeGsG8IjviuIIyxFTPDueYHZv5zUF0chQlOzyzjGmDh5xtxVxOEbHDuaSRzu+49JYcGw9yidyiF36B4hu2KEZ7r5ecu8fxX0dRjYNNmH/ALuyUL2Zf1Z+lxZhFhafvi6Q6+XS/HJiPeiWM9tk2L+FBLvarD+/K+w8oioBzuDDDBJvBzw391F+7FYl7DAhAylxI72egyAb4iWN47We3hWvcpt1Rwt3Y2qrfNwK+NXxq+JHPECsnnzkAABvTPIUdlCuYXtilYxe6GQ5SJ25C7x/HlGT3I495JUAZqMzbSZ3F2YzkYh3sQy1c5egOvl0vwm24j3Ili/bZUajLJlHlOQontFycDKWAnfDUaLKL9zJSDukZnzxgpmZ8YV2K/tupd09AkliiijdTt/Txsit3LrDewOw4I5CqXCwrhYFw0C4aBBDEGY7MV/bW5xCskMipEMpgzg0WJ5C7x/FKtr2xzVeyWWM5HYUULZFC1aZo5t3JQ3f01BsPdV5omlH0n0B18ul5JQIjB2xAkYei3GqBp2d97NFfQhsxZuzGLMI2s8eIB33MMe7DOSOVpN5DDGQ1KSaMydiijjmI7p5g3g5BFMRs85jeNFucS/oJmYRYW6JCxO1Sa4XZALA1BGMBNyHkLvH8aWIJWzGSSF7Jz3lG3Q8Vc1x7+v6YtKVWnslw71jjkCRqj0R18ulTbdGq4yxE9BMxDvCWM8hImFqu88TPRxmiMqCRCDep8tY5Y5K2HIEfezs7M7b6LeWIyEBuIJBkaorfxNJZ1Mucu8fx8RnA7IOweWCm+mp0R18ulTbcTV7I2lw4CFY5/XHE7yxBFYcc/YzKeOPdmSiijZhJTkRyM6xVd3RiAYjhIbBPFFfF6GmFBAxYdSA57tnBmHEmwvo9NyDYYro3d4gd9spWRE6wp3R0fY/7sdk9xGEQlhxEXeKUt5hBJRG7gQHh/YHkLvH8chuGi4ZSRvG4chQVJ3bhyosK7vFnzjr5dKm2n+6jUs4RlR5yvgEwIpXIN9L3xMp/ZNB2CsR2AsR/bWI/toz3WIqQE5NiCTBI0bTJ6uHpgq0piaxDu9IxZqMzcmLP1CChPdzNtf90z7JPQbSo5ws9BBZhhF5xdqShB7I8hd4/jmbANxcTCiljkIabXxELPR+IhosL7PQHXy6X4TbZnYZIzeQY3FyP/4wWIpw71zuhrN7JqP2xU/aCxHazqX1HCzVA5XjMPUMxMRNwbK5wKIFri8rhzpBbcUp/wDm2UA3ZksKAPG7ly0FtP8A3lfvH8fEtWJDNA+RUD42gcUckm8FsObVFmZtOcdfLpfhNtMWMXEuHm0c46w7sWwpV9Vv6lyJrhdkLWizIxuZk7XC7PFDuyuUsO8erALALC3DjfVSg0g0eKJok0bCxsnwgOha0WFts3smsJ7T9V+8fyCADahRXRS7p9tBUse6ffQi7ELE3OOvl0vI7szVcJojegkQi1SjlCTtMxjG4o5Ql7JJAjapRyBK1QJ7RcnjNpAubpzeyawnsv1X7x/JkzxcbNySUaIq4f2B6Ad3l0qbbiq0AGOBvTucT6iiBSC0UsZhP6p4gchGPEg4yMx4oGejBimtxL0hWH9BnH1JvYNYP2n6r+4P4pmAN6wkjPsMxjG4nxLf2oIiGpyJyEe5b+GtE7niStFmZmo3OOvl0vJi6scdrhJh3CRS54iJYrtBH+6BYjuiX/2OpffhWKdr42cpY3xIOHTxV4mgvchEVKe7jck0WJdrnhNzF75zIWEQ3eJBrmOVywryC0c1FM8l0QC0c7PnsL3B/FeK6a8/Q+KHc4v2kzC1KJ3Zmq8t8lJHWHACeS7ohr5dJyYnI4iWLpu2ZTemWF3xGZxA0vpxMbvL6p4gYssYNT9WLjZjEJcRR54QjjujZ6iz9OYL4nZYQc3PZiWuiQkJCxNDnLMan9JxyJzBguTM/BGhw40F1iWuKJkEDAVW2P7g/izldLu3iLDD6Y8V7bbZgeQLWladhBjC+314f+50g18ukTbTETFxIMPabEcgDINCigaN7nkjGQaFFCMealjGUaPFEMWgAwO7s7XC7Jmo1OozMLUbY+Hhd0zMzUHLR+HhrVOzO1HTiz0rtf3G/FsjfVgjZ6s7M+u12F+5Mwtp0Q18uk+nf3G+nDXy6RN9M/uN9OGvl0mmyrK4VcrlV1V1VXMrmVzK5lcyuZXMrmVzK5lcyuZXMrmVzK5lcyuZXMrmVzK5lVlR1R1R1mqPt/uttqyuZXCrhVwq4Vcrlcrlcrlcrlcrlcrlcrlcrlcrlcr1cr2V7KjqjqjrNZ7Q18uPNk5Z0Fhb5bl+HTSRrexLexLewrewrfQrewrfQrfQrfQrfQLfQLfwLfQLfQLfQrfQrewrewrexLexLexKIxKRmHnfvqr6vRrP9zCKy25LJb6Jb+Bb+Bb/AA63+HW/w63+HXEYdcRh1xGHXEYdcTh1xOGXE4dcThlxOGXFYZcVhlxOHXE4dcTh1xECjkjM2t5X2Br5fpXY3L8OizMnVqtVqtVqtZWq1Wq1Wq1Wq1Wq1Wq1Wq1Wr/Tm/qud9VivdgWTc/w6ds3VFRUVFRUVFaqKioqKiorVRUVFRUVFg/3I8z7B8vfXY3K/aSoqK1UVqtVqtVqtVqtVqtVqtVqtVqtVFRYFv6nnJY33MP0Ph1TN1RUVFRUVqorVRUVFRUVFRUVFRUVFRYT9w3M+wPLy7tjcpdhIWVqtVqtVFRUVqtVqtVqtVqtVqtVqtVqtWFamI5yWP7oeg+jqitVqtVqtVqtVqtVqorVaqK1Wq1Wq1Wq1Ydv125n2B5eXdsblLsJD1X6OH9/nNY/WHoPo6b8DLldRe63M+wPLz7tjcpdhIeevXw/vtzn8L/UP7SbRud9HTfjR+63QDy8+7Y3Kftkm0/Ez2Yb325z+F/qP9pD2Dz/DpttevVV2xv8ArD0A8vPu5y7CTdSvSw3vtzyfC/1H+0m0Hn+HTdWvRi94OgHl593OXYSb8bC/uG55NGX+o6RJshFuf4dN+NF74L45w8vPu5y7CTfjYSm/bnk0Zf6hpEq6c/x+PF7wJtOcPLz7ucuwk342F/cDzy6MsfpEv8c/w/48XvAvjnDy8+7nLsJNp+Nhf3A88ujLHf2l88/w6b8aL3gXxzh5eevOXYSYler1er1er1er1er1er1er1er1er1er1esI9cS3PL2rG/2l8tzv2um5asqsqsqqrKrK5lcyuZXK9Xq9Xq9XK5Qv8ArB0A8vPXnLsJUdsn61G58H+5bnm7VjdI1/Jud+11nsz2UVNlFRUVFRUVNuSyWSyWWyH3gXxzh5eevQxf7o/xsD7z883asZ2xr+TdAu4vxsL+4boBp5eevO+inIJJbmoCpGqAqAqRqkapGqAqRqkatjVsatBWxq2NWgrY1aCtBWgrRWEo03PN2LFaRL+fQcak7tu3W6dbpbpbtbtbtlu2W7FbsVYCsjVkasBWxq0FbGrY1SNUBUBQWtK3QHTy89ed+0vx8P8AuB55uxYrSNfybnLsJZ0Vfwa8kPvB0G08vPXnftdM7qrfP4mH/cBzzdixOka/lsblPsNCZUV9da/iQe+PQHy89ed9HX+fxsP+4Dnn7WWI/tr+WxuWT2TQ6fjYf3x6A6eXnr0Pl9luSsdWOrFYrFYrHVisVjqx1YrFYrFYrXVuyD9wHPP2rEf21888ntGh02MqOqOrXVHVrq0la6tdWurXVjqx1YrVarVarU6w3vt0B08vPXoP3Eh1TtRUVFRUVFRUVFRUVFRWqioqKiPROsO/9QHPP2sp/wC2vnnl9mRNoqodWVFRWqiorVRUVFRWqioyoqKionZGsL+5bmbYOnl569AvcJRN6mRZv+FIjUHvgqqqqqqqqp+1lNrGvlVTOqqqqqqZ/wBCRfGwNW/DNlh/3LczbG08vPXnbVSe6ag1ZPyZ9X4Ro2yUNzTArlcrlcrkJKV8lLqGyquV6vV6uUhfpGs1nVDq3M3VJR5YkUzqvI2xtPLz1521W7kKQ6RxuNNlFRlRtlFRUVFRUZUVrKioytZWsqMrWVoqgqjLJZLJZLJZKjK1lRlQVkslkslRvm0VaKoKoytZUZWsqMqMqMqK1layoqKioqK1Wq1WsrBrVVJkx/5Z/wDGwdjaeXnrzub/AB4BpoJ/DodjaeXn3bH5DKr0bkq3zVuTPbny58me3PbmqLNUfkz5M+XJa6cmazVFnzZ7a80Z19Ljpsby8n9Wx9sj2im15T7lX7TLa6qgf18r5OgeoM+wdPLnWTrTXbiO5kPLJ3bH+4j725SUD/o7B08ufTmm70HKfcm1+5DvblJYftJNoh08ufTml9x0GnKfempVvr6dF6VQ97cpaLD9pJtEOnlz6c0tL3QaclEfeh1b63JZdItU2vK+ihdmPYHlz6c0vuug05T73Qa8+v2Jar55XQZmzL4QeXPpzTe6SHTlPudBr9nXlPVfLcr6KL3Q2B5c+nNN7xJslVVZXK5F3Om2VVVVVVVVVVyuVyuVyuVVcrlcrlVXK5VVyuVyqrlcqqqqqq5VVVVXKqqqqqqqq5XKqqqq5VVyqqqqfZXli90NgeXPpzTe8XO2yv4NeWv4lVVvnqVVVVVTKP3Q2B5c+nNN7xc7ffMovdHYOnlz6c03ul9/8czKL3RTIfLn05pvdLwVkHc2wPLn05pvddP4IyiasmwPLn5p/df8Bs3TzE0j0eY3W9kW8kW9kW8kW9NbyRb2RNKeif8AA/5W+kW8kW9kW8kW9kW8kW9kW+kW9kQyG5tXrsoPc2B5piPcT8rdJtUXeXRje2RnR934D9hdKP3B6b8rLD9z7A80ljvarO3K3TPvLoj3si7vwH7C6UfuD035WUIWs7uh8vIfnmIALu3EK3EK3EK3EKOCmYdIm9ZKioqKioqKiohoxZlr+B8OqKioqKioqKioo/cbphERrhwXDguHjW4jQxgOwWr5i7M6JqdKWO7MXEmVFRUVFRU25KjLJZLLZRUVFRZqjqjqjqjqioqclHVHVHVHVHWaoqLJej49K9Koyoyoyp/ijqjrPniju15hZvM5Px8uqXa/WyWSy6eSoKoPQHzOT6Qu36UPMz+kLtf6UPM5PpC7X+lDzOTX8ByVxIjmpk82KZDiz/mE0R6dYu1/wHkFlvJn0unV2JW/xA6ji4X7mdnardYPM5Nes5f42O+zJOAOigF9GOaF/VGYSNUeo/b1jNhWb66g6bbRlLEztUWeaJ/RBiQlyLlboB5nJr1XdP8A5Zn2SvbE5K8lvCZNSwXZOzO2bscJXRxm0gXN037erNJuxyjdn2DqmyJ22PQRq7G2xwZ1JD/tw0+89Bt1A8zk16hPtLL1DVTGRNRWunZ0OUYqqapKguNEDvh5uo/b1NGRep6pwdnqIlVfDo39TEmzdGbmar/kCzo+idqqYHahjFI0kbE3I3OHmcmvU3/6pJiF9KqtFJUGd2pXYXwr6i1GH5PZiQrHVYU7oem/b1JSZnYXp/hGVSyYzTuzxJrrXqiyUDZ3PsJqi7LClZK4O2x9jc4eZya9M+11uwW6H4O4Bqt8T5L9SlHVFa2iAhjbNnbXZVSGNjssG/6rj037epM9Znqzu3bvRtdVTUtyZnWbsqJ9VHQRVVmqEpfTMJN0w8zk16Z6LJMsT2ihdmJndpoXRELNlRExXNTJPW56RtcD13TLcqONwlF+m/b1CYXd6vGPwYO+jNTWtHVVmzZkVmacWL1MzxfFf8VLZivhB2j0x8zk16eK9pXkmI0ZO7ZsqKLMaPbR1JKTPaF8iZ1C1Itv8m5W5i7eo/c6qrv8WmXcQeu1bt0WQ+rIlRhQFR0zs+mzEvoyDsHph5nJr05huiJkEOXq3YMnEVZ68pAsURCxOnMLUzVdWl8UdnV0i3hrfO2sRtI+XSLt6kjet16WVT+NM3F3uuTSCjJzLN0xO+T0qTMzCLNRExj273/LvvJRbqD5nJr1NH2PnkP/AA0uqZfCiejr/lUCicQdFE/8Seiw4WxZ9Iu3qTD87ZHyt2EomvqiF60VHZ84ma6u042PTCBWQjTdMPM5NepI3ytV/wCKXKtWVFDGzRsSzZaabADez9Qu3qasiZxeiEXLQndydMyepFQQGwUbNeytF1RhNlfR6Pk6lJ3dogjBowYWbph5nJr1Sa19sguUT7HrTKlIg2aaonLsCMGAbW6ZdvVkG5smd2dEzHm7iaAN2NNh6NsdmdSPRkxkz5YeJx9Z9QPM5Ner/wCuDtpXZSqYXqnf/OxriyEAYNOoXb1jjY04uPczu2la7NQ2yVN7I4cOMeZdUfM5NeuQCSeIvi2RetUkTAfzu2+esXb18n1eIfjdkrTQsSsJbuurCI9vWHzOTX8L5/CLt/Mz6I+Znr9IXb9KPmZ6/SF2/Sj5mev5zcxdv0o+Znr9IXb9KHmZ6/SF2/nNzh5nIPRqqqqqrmVwq8VeKvFPILEy3ka3ka3gLeRreRregt4C3oLexq8HWSqqqu2qN2YFVV5KqquFPJGt7Gt7Gt5Gt4C3gK5lVVVduazWazWa9SoSoStJUdUdZrPayHTzWjK1laytZUZUZUZUZUZUZWsrBRQs6LDp4CZbt1arVRU6NXVXVXVSVXVxJyJ9auriVxKpKpL1L1Kjq11YS3ZpoJHQ4QvkcKDatGDKjKjKjLLq5f8ARLiK3YLcAuHBcKK4UVworhBXBiuDFcIy4JcEuDZcEy4JlwTLglwTLgmXBMuCFcEKbBCuDBcIC4aJbiJbqJbsFaP/AODL/8QAKhEAAgIBAwQCAQUAAwAAAAAAAAECERIQITEgMFBgA0FAEyJRcJAyYYD/2gAIAQIBAQgA/wAt7LLLLL7lll6WWWX6DffvSy/6of5dl+hPrUGKCMEP4rVji13km+F8cfvCJ+lEcN3jv6NFH0fGo4kkrQxqySp9xJtkXFbCX7lpOX0RhSTPkiuV6KtPji9xJGxJJOz5Emk12/jS3Y4p7kLsbeRirJuls7Gq8++lckbIwsVLZNXubLck2+Zcdz43Qm7RNval/wBqP2S3VLAn599KEIzQnexLh1b+51T7nxq9hRqjOnQ1fElwjeA5Jol599UZ0ZWITpkpxQ5fxJ9yLFLYim3YnuybdbWq3k1brz760xSLQ2hy7a1TI/IZo/VQ52N+gPsWWX+BZkWX6C/Xn+dfoD9efrz9eaKKKKKKKKKKKKKKKKK0oooooooooooooooor/DZemIooooooooooooooor0+yyyyyyyyyyy+pedrporrf8A4afrz9efbRWlFenv0+yy+zRWr6bLL9UrV+vP1qinq/T6K7z9XooovStGL15er1/WVfgP1ytH/VeWmRZZZZZZZZZZfTZkjJFovosssssssvzldDkZGRkZGRkZmRkWR1Y0LWRZkZGRkZGRkWWL0B8vooorpjxq9FrPTc3Nzc36Y8rzj6Hy+xeseNXwz6QtZ9tcrzj6H1XpelkONXwz6QtfkfbjyvQHz24cay4Z9RFr8nC7a5XnH0P77cONZcM+oi1+XhduPK84+hxMTAwMDAxMDAxMSC21lwz6gLX5FsimYsxZizFmLMTExMRKmvOPom9yyyyyyyyyyyPGsuGfUBazZZZZZZZZZZZF7rzj6Hy+1RDjWXDPqItfk+tKKKKK1ooS3XoD5ZRRRRiYlGJRRHjWXDPqItZ/WlFMplMplFFFC5XnH0SF2b3EWWN7M+oierHt2ovf0CetlstmRbLZb0yZZkZPTIyZkxSJO9LZbLZbLZb0sT3sU0Ji85Kb4XgE2iMrXm5OkxaPgj3K1rqoooroXJRR8b3a838nAih8EfzFzrD/AJIXmvk4Fo+CP41l9P3qnTQvNfJwIsk9hMssyMjIyMjIyMizIyLLLMjIyLLLLLLLL1bFyhea+TjWiuxWu/4e5DlC81Pgrs10V2a6qK0WseV5uXHZoooorspGJiYmI10rWPPm5cMdrV9Nllllj7CZZZZY+tkFb87sUiUWUymUUOLMWYsxZiyiimUynrRTKZTKZUimVpRiRiUikKvNPv3079qy+leafhF5p9cYNmEVzhFj+JfTi13lFsUI7p4RH8cfpxa615p9UI3uIxtpGCWjVjVdxCf0PlFWOFcWiSrqXmn0rlGCpVUvqMWuf5t7c2T7ijsQiSjZRLZI2HTW3SvNPpjyjFkdlQ0K2Y3y6TZJ7dxfQppEmqNxptGKGfz0rzT6UKTNyO6H+1C+Rlo+Su5BJ80hxLithuhyY5PVarzT6oSLIS2Js4GyTvuRe4jJIb+yyaX03qtV5p9cZfzmjJDmhy70Z0ZJlozHLoWq80/ArVeafgVqvNPwi83RRiYmLMWUzFlMplMooqRUipFSKZUipFSKZTMWYGJiYmJiYlFFFf4o/wD/xAAxEQACAgAFAQYFAwUBAAAAAAAAAQIRAxASEyEEFCAwMVBgBSIyM1FAQYAjQmFwkKD/2gAIAQMBAQgA/wCK9lll9yy/Csvv2X/L2xyZqZr5E/HcqNdmtmr2O8pvkTEWLxWyf0sXmJFkH7GY20YjTSE2i2R5RF+JJiZP/CSo1sg9TK9jMbYxHLI0Vz4k42OHDIK7u/xqsgpJ2XJkfYrGymO0K0aV+0U/Em6NUn5rDQ1pbIebKvyoXsVps0JDGrQosSoXiNFFko2iEXZVeyKKyoS8ZoaZTNDFH2VX6Kv/ABgcZ8d/jKiv9N0iiis6KKXe4/mRJ0myWLM3sQ3sQWLMwsRy4fjYk2uE5yNyYsSZDFkhO17FlG0ycGaDQKDMODXj4kWxwZoYoMjBi8l7GpGmJpiaV+hpFIpfxtr27x/yGooo0s0s0s0s0s0s0s0s0spmlld2iiimaWaWaWaWaWaWaWaWaWaWaX65fcjgNpC6VnZWdlZ2RnZGdlZ2WR2aQ+nkPBZiKnXdvPBi5WjYZ2dnZmdmZ2ZnZpHZpHZpHZ2bLJ4bSb9fXmjDS0xFRxnwcHBwNJjSOq+4813ehVymKMSkUiolRKiUikUiUUY0Vol6+vNEE9MRIoplFGkplDQ0dX9x+B0H1YmXOVFFZUUNGKvkn6/HzRhriJRRRpNJRRRpJROr+4813fh6uWIaDSaTSaSjSUOI0Yy+Wfr680YX0xKKK78jrPuvNZPP4d9WIIorKiu40Y30T9fXmjD+mIvAZI637uayefw36sQXcrKs2Yy+Wfr680YeN8sRY5vm+b5vG+b5vjxx41nVu8S81k8/h0lGWI2sWBvRN6JvRN5G+jfRvjxx45i4rcZewOnwntwtYRtG2bZtG2bZtjwh4R1SrEeaH+48+ii3KZtM2jaNo2zbRtI2jaHhGNh/JMfry80Yb+WImajUajUajUWOQ5HWc4ma80fkefw508QUizUajUajUajUORiy+SY/Xl5ow38sTUazWazcRuI1m4h4g5HVczRRpEj8lFFHRecxM1o3EbiNaNaNZrNY5GK/llbTKH67gNtR8KSqDZi8tM0mkrkrzKKKOnehtmFPVdcd282jqY1AaeT9aRQkdLGfDNBoNs2zbNs2zbNtDScdIujidkidkiPo4t2djR2SJ2SJ2SJ2RGFhbdmiJoiaEaEaEbaNs0mgxMPXHSYnR4q5Ti15y9aQjp+jSSnP/A/8cnJycnJyc5clPLnKnnycnJycnJznznTLryxMDDxVUuowXhScZesUI6TD14sU5KuBmH9RiuqLLLLystllssssscjUaiyzUWaiy0cF5LhoklpYiz4lC8OEz8+sIR8N+8Yj+ZjZh/UYv7d6y+7ffvuXnYlZLmDFl1nPTyH5v1hCPhv3WT83lhN6jF80PwLyvKxZPvaWzQJVlQkf2llk4KWFiJvzfrCy+G/eJRbbHCRhwakThZtG0bTNpmyzZkbTNqRss2pG0zakbLNpm0zaZtM2mbTNtm2zbZoZts22aGKDP7aKYkyfGFiofrCy+HP+sIdFotFosstFllostZ2i0cZWi0Wi0cHBSytFosTGxUfKdRJLDxB+b9YWXQusUUuByNQnlZZZZZZZZZZZZbLLLLLLLLLLLNRZKRYpHUO4TH6wsuif9VCfBY2RZZZZqN5G+jeRvI3kWXlZZZZZLEUeHvxN+JvRN9EZ6iy8rJMsR1Taw5j9a6bEUMRScZJpZSIPju7Ztm2bZtiVJeBONs2zbNBoIKr7snyIR1s0oSXrixcSKpb+KR6nGi7On6qE4m7A3IG5E3ICxsI38I38E38EeNhG5A3YG7hm5A3IG5A3IG5AWLhrz3sI3cI3sI3sEeLh3xuQNyJuRNyB1PV6Xph2nHO045KcpO5ewLZbLZbLZfestl9y2Wy2WWWWWzU/9RuVGo1imJ34zZbLL9kSkN/m6RqyTE/EY8nKiM79kavy2v3b4pC58kmLxJSpk58KlN0W2+YeeS9ivyZqQ3lSQmK6I+GzgcL8qZRFpPJexWNZNUxLUzQUyCfiMcqLZplyyKtlCXsaSKJqmQySYl4jRLkUWJUqKI2vZDiUymKIl4ziUUUV7Jr9HRX8ArLLLLLLysvwLLLLLLLLLLLL/wCKn//EAEAQAAIAAwQIBgEBAwwCAwAAAAABAhExECFBURIgMDJAYXCBAyJCUnGRYKFQsdEjM0NicoCCkLDB8PGg4ROSov/aAAgBAQAJPwL/AEeJj/YbGP8AyGc3089z6ee59PM308zfTzN9JnfkiH7skaPwL6HwGb27kQtlxQ0SD6H26H3JVZOGDPF2IjXwKWgPuYXDlo1PND+o5rbZvbXvGIc2R9iFshk7OxvMvhy6HfzUP6uzGh/JqG66pfzZuxXRFHfCYGLKl0GKKPa5va09Tt7WfDLyv+x8Wd10M3o6vkKUKuVjo7iniQ/rZTEvlufB6i5cx6cX6Hlh5/7EU9J7XN7T1H2jz8sRSaqUjgtvuob0RRXF9j8sVV0KwFPSuQkTREmjCnK3/Cy+R9EKcXpG7Kq57TPaUw+Ccjyz3Xh2FPKNVL1ArhXs9NSj/eOROIgI4YTTjZ6bpdCcbrH2HovPA+0O5Gdl5PkdzAVaIvftQtFSu2mez+LVOF1hH5fbjZ3L0yUsiVnwN2YroTmZSHY5qzsfZWy9kMzxVPKHicxNiS+SMvZfqd7KzHAiOZ8dCqkOlEOHw1l6ibWEympWK47k0s0eZe5WZ7TN7NJ5TJL4NIljAzuRw8jC+asxoX8hub9EP8SH/wC159EjPoT6YiO5/wBHDXuQaMOLxJvI72N6lJEfZi7r/dHl/cLnPaZvZ4OyFnKJfIipTK1Tm7zzQ/8A6RTCKyiPT0JxRU+kQyX6HncV1xdyVSd9CkN0cP8AvY+xuxKVjZJlFctpm9tumB/ORV5cj4b524O8egyG5+r098jzQFD+yuhVI/3i0nzoPsXFT0wm94l8S5W71Rf2j4dnfaZvaU8S+Eozt8mF/wAv/wBFfT/Ero6UPzbjY5rJl3vge7LkViojv0Kx/eVhPs7soUrEMXnhvhiQtFczzNX8iSheCs7bXN7S51hfMu8Rb8Jhe2btIF/zMxuM7yGJ3sUucVxHpRf1aKxH/ZV7i6GXRrdi/iKX/MC9HY7lGSvUnMm7HIWj4eeMRctrm9q9HxFR58mfycXrWfwXL0nYUmN5jsXdj0ojdW7D0OWkiLTXsdSGKF5YEadiS5kSnkiA88Xtw2+b2ynzxJeN4eT3hRQHiEbIXF8ihXwaXzgeeP8AToikyBGkOMgn8ly4DN8BCmQS+DSNIgXSjN9PM308zfTzN9POfTzn/wCCHeKxCEIRCyFkLICAgICBkDPCExcM9WRL/SQUxCExMQhMTEJiZMTExMmTJkyZMmTJjGRDIkREREOfRrPh18ErO9nfpDBEJkLIWJkMQmJ/QmJiYmJkLExMTExMmTsmfdtOnSEhISIUQohRCiFCl0JkNDQ0NDQ0NDQ0RIa6ORMiZEyJjZEyJkTGyJkTImRETImNjGMbGO17Pn0YytnY+zKq47W3OdqvVjc8SZO7UoiUzdKkvlnZlYakpzJCUmd9Xn0b9ox/BjWyc3RD+WUW6jAq6/wMrGxuSKKuplbVHZFxSzuz/Cir1efRjK32252bzKLesohPRRlqXzqYkQ5mCKZFVehl8hFMDEw/U7dHsrcrKlEdju7FchMTsuPlmN52MB2VV0RTMxuKElKyiMajkhox6O5WpEhyVimQoSJWpWXvAkpYFC+1yzJfI7HOQ/qxjGOzPo25ERERERERERERERERERERESGRERERETImNkxsnZMmTJk/7t18WRAQynbe1WyiqQXC0W6dH+x5FyPEj+yOP7I4/sjiI4iOMjiL/wCts/l2VwY55E+Y6mRi7zG8qjFW89aiHoQ8iOP7I4/sjj+yOP7I4yOL7PEjL1mU1MMCCIm77hO8o/UPzLAuZQhfcTJ2XNVQt3H86pBsvTsctRzs5mSsyM9TnrY7L03arkpEa+DMhnBE/IyGT9UQpwLeJKHAa3kS3rzR7EWiPzeLkSK4/nONOEoxy5DrWI9VuSK1Rc4R0v7mCt58Bi9WkiJGbMXMwgmUig0mLylYnf8ABO+KTJzPElyItNwY5HiJpl7/ADnehoJp7BfL2d6Jov8AnUorrPK+Re9TnrrvsFKHF6u9gaMyGES0RJuUoUfzniC88MOib5vUhRhEnZD/AIjzRRb7PNB7RSbw/OoUyAhISEhISEUttEiZMiWvz10QohRCiFEKIUQrpFe8i6HBkTeYiEbQ9KE8sWWrz6X7z3Tsi5EJv+0SUOIu5ceWNG/Dqc+jWVbFpSqdzsJwzpZC4pVO6FJqxfL2VF/3Zhd/7L2vVzM5xPPkJJK8lpa/PozWIc3omR6mbsRTEV8ND2l7iqUiUzvZ8FzwPER4p40R4sR4sZHE/m2s3+6yUpybLzehvKpp9jG2upz6Ne23Ix/hqf8ALjAykY3im8jwRSiyIICU+Q4JYDha5W3SqdzelIh0lQny+MmQyizFOHBMUi5FFh+7o98WPRlmUVjm4siuieWWZTCymlUw2dMYTysk7Ej9S95Iug6P1sufK2dlxSz52qkzxLJkd2J5uLh0j3WUVLN7AiXOExvMXf8AntxEh2NPUcrLhzsadkSn+yfc7M7Ow5wVkUke788zMyIc5ncielDeVW8RNL0npoxyhhuHNVgZcsRtwR1PVUbmt49RvynMy2K04iKvp47Oz3WVhvQoUvUzAz/PcyEUpW3XC3al0cO8e4yH5sjyy3YTAiqXLRJ//F7uRuyusaIoSOH7I4fsjhHpPBI8kHtF3PU5FcDyxQ76F/J4avPh3SqZJTelEzC1yeYr/D/Ud8VIPzvMzErOxghfB3KGZgrzBeU3tI9dC+J3I5TKaNsyZpExEN9uZ4p53DVni3YwHianPha4HljHKDE8sUP6lcbIfJhEX5DnG8ch6SW7F+d+krMmUwLo0XLMoXqI3nUfyjeY5RIldRG8qDno2RrQKK7ZYGNl2lVavPhrnhEXw4Rku5oSxFDLmQw6PI83h4o7r88oRXjlMd9jdw7zG5GA6DqXpjv1HwfPiMtXP889bvN6Exd5c0zGJC82YvNI3YIku5jcXemIvUKPTfCfzjelMvS3ykqWLzXuZlqdjeht9tjlpXxfA4lEiraN/wANSf8AHV58PceJERNzepG1M8Rmf51kxMzuJ6Ez3WZHvR7j3G7EjK4ic1hyKtXG9nZvRO/4MNTuY3O322KcrmTicVyRmbyUoua1efD0JmD1HQZn+dfAlSpTSOxkZGR70YMzmJeW9TKO5djG43Wq8zBD3akS0ndCtVKcqin5tZLX58PmQ6PyJctRTnFcKF/nkU4C6RHcUSkjEwMHOyLSeBFosoN6NdEuyZe3Vn9JeyJmGpke79iovTvh1Ei6W+jH86oh3lD6swws7mG1yPd+xsK6uX5362S0oKmNS6/RZSpcovKyiRcvEVDG4/tLaZGe158K5DKELibob8VjlY70LR8NVZRfnVcBznv2e49p7j2mZSc2Ofpe0b0YhtTdlcPk8WUXtwLo4XKI346Hi6UWMJczxyKWlVnizVvPhb4UriX9eR7hJWURuaUvDViT8355RM9TuKUL/NMpQwekz1KR6al6hXmFJpmK2dVejC5WelzHdiUidxSGo1I9TmkRRZmZFFbz4WLRgxZVnu1NGSflkb2Mj3fnlCLSlRWPSiwZ9nmizOzL26tlYqmJhtKWz+BSSwKCfxgUswpqc+FhhZDDMU9ZSn0fy6eZdGUyFkMRCyF8flrsfQ6pfrxIjhI4SOEjhI4SOEjhI4SOEjhI4SOEjhI4SOEjhI4SOEjhI4SOEc9hgi9jFrRojRHCeJCRwkcJHCRwkaI0RojIyMjIyMjIyMjI0Of59kZ8Nk9hRxXktfIz6KZcPk9h79hl0Vy4fLYe7o7lx+fR3Lh8thn0dy4fLYczJdHMuHy2GbMl0cy4fLYZsyXRzLh64bDPY59FMnw+T2GfR3J8f7thl0VyfD5PYe7YZdFci58NlsPdsMui3Lhsth79jnw2T/P6SlYhCEITETJ2TsmTJk9XFa+Z71scXdY0NDQxoiGMYxjJk7J2Tty/PsuP962GT6K5WLjMz3rYe12JdMcz3oz1/a+i2fG5nv2HtfRbPjcz37D29Fs3w2evme7YZcPl+f5vhs9hnsMtotnz/P1iyqHtp6q4JCFtZkydkx2V/uc0/ZjJf3kMH08z/u8Uf+Rpn08z/wA3e9YCSGMY7HZLgpDsdjskSJX8Dl+bZcDnxWXF5fm1VwOexz4HLZZ8Dj+boTJiEy/ls8+Ky4W5ZjY2OIcRf+fVyFsUIQhCEIRCJkxMmTtT1ExMTExMQhCEKxCIRCex3ekMtlISEhLZpCQl/lgQkIl9EP0OT58feKFGiOH6IYYkThY59FkXHmhO64u+LLYXcjyx9E2XmNvc7rid50N7HY1Rvr9eh/eyluVlyzKPE3XXiqlbMbN1bp9na2qxO/z0LoO2mr9H1ZgVhu4rCyqHdrYnq6FouHZfqIepiuIfYui2Ksz6Hu2lsxsfH0KYk2QrUyXQp2YW4WxWeq3PiVMksrHZF2spq5dDO9l6sZiIWphxCmXE3ZdqovX62Z9Dfs+9Sp3QlZfZWK/iq424W1tuKQ3LoZS3HG2rso7d2GvF1swsxsuyPuzeiuMOhlLc7crKY2b0VXkju+JqXFz938RFXWzD/q2qJvJG/F0OplZMY1qU9x3fF3PYKbxZfF0RYiEVl/H3WIVjFL/w+GNDQ0NESIkRIiIhjGMiQ9u0RIiREiJESGtkhCYhC6DoVq27GNjY2MbGxsbGyZMmIQhWro0hbR2seoxj1EIQv9Bl/8QALRAAAgECBQEIAgMBAQAAAAAAAAERITEQQVFhcSAwYIGRobHw8UDBUNHhcLD/2gAIAQEAAT8h/wDENbwS6gOnHq7aBtCVoxpEvAlkslkyWSyXgSJYJEVSCGgk7W2O6V+/oA+walQR1ZDUUWSyWSycSsl0CQ2yGAQ8zPYOwuxaNzJHVijmST2YAM0glgCCOqO/hsmv8I8/wi75zPXOCScECBKIEogQIEolEkolEolEoh3Er7B58XW3BJJJJJOCBAgSiVggSSiUSiUSiUR68++ZO5JJJJJP4zwTwT0BMoGkkkkkntH2TwbEgQORPfu/xHg3Ui38KO/ZPBFOq7vkuwf4jwXUi3+Fl3fJdgzP8N4LqX4Zs/w7u+S6lg/xVMVF1L8Mz7J9jd3yXUsH+I8F1LsbPsn2T7G7vkuwfXnXymObdPTP5FxKWyQ2M+8CbLVmZDeSyjO9aTnqeC6kfBa9g+uBBBWaSWJTJQV8nuQ0VPL/AKPp5xR5mq/W+xv75LsH00SbFUMsKXpH6miHBTabx/ZH3cjUmRlm8hs6a9UNN+QFURR6jGNEytSizszkFlZ9mutdSPitewfT8Zeq+BBVZqMRJw+o83RllAtsLEzEZFe6QE5KX0Ww9LZWaBQfK9ul9jf3yXYPo+MW9XVj55DVKenqZeLD10HSp6SueJu2zBr2xbEvuHKGVUTuJGzXhxHC24kZbKavCHNp2/8AepdSLvyr2D6Z1RWa+yJBly2HIrt14dCJFdE+JGwzyCfAZHEqnPgSkmpU2/0eEQSssTqtM1Z1M9noxYvsMy/vlr1LB9DUd9G/2NrXE/sgxXd0xZilL1SKoluqaLiVqUd1QIN0a2Yia1afBCp6/gXcJp8ST+KdKgMFMsTeSfUupF34V7DLoROtPMslqTpE5s+n+DE3h5H9lWmzlHqUJ2EPdDrpjoZtaGSp5u45C/D+h+wR/sUT/omp0TVDTAqOjucd/ub56lg8ZSTayNseqJKmSG84Nf8ABlVcdUNbbWyzH1SJx1XoVQilyk4ut2OZlpLyBLkhEhF/Wsgte+4mCoNr3/odVRvA51g8F1Iv8uwyx3dlVloUoR2gXfq/TuQJ0H3snsxTpCYCOGttJeMj60rjYhCEnYWgxadxNC6LpLFVDdURtOsy/wC2eIdFWKqfySKVRmBYPv3zfPYPHdnviTUhVN1E5WE3upqPIkusjr50LFQQpT1L/wCkDVmJaMy2eauhgk1WojEwrINPUNIxxU3hjb4ZfBqUYskm6F0LqRc5dhljLc3QS0c62FN3zpkTS3BBtTeR6pwOqWlaBIVWLtBMZrIQyo3WXYXZu3JXFTTW1iIZmJJP3K7hbXHmTb0J3HNYWD7DPvnzfYPFucadMe4VFzs5Ieoqr6IZtSRGtV6j0u/15CKhe0ZTUcB+lOI1WxJMVF3sIBWvoiKsjd5LkhHoEt2KpxMm8AhdC6ke++wyxRo2akvBF8kdaCE2VJpoxm78y6jKySJlHPIiA07Gug57dIpIUVlpgrdE2eBXGrmRIlDQiXE3GfZK775832Dx822VgQEkjyovBxZRz5EMz1uF9zMkP0zkWTSg1VKpDketmhmhuoLnZxV2RQft/kK2lXg8ROEoruPMSyWM+hX6kXvhXs1dRYDLiaIJes3vYdmbUbWTTlT4MqtCThiYIvIv2ITMAbYAXEvYJFLd5C6TsI/ahXKOLSl6UG1qvZBlGfCrk00lKeOJ9+2b56lg8Z76JtCTQKmb5lsHxkuRV2z1lURlFrikKSMJpso8xWSGTRNUqhM0zUZERr4ZkNhw8dNBU4PnH6ZCc1kyNGfQupF75V7B2xWgcuJbpkLJTV09x4Sq0FWF/scTcF4jCShZiqh2NjzyRp0IIcmatUbDHKarWbrGY6vL27eJqHzsKDVJGK+WPwM8H37ZvqWDsJypEbpkckBWtvwgaHfwPMYSqGdk8di6mDdf2KtXMkSkaecayj6Ts9E28RmElZ7XPbYRe5PzkSjRNymWOSd8iWpSW38iCwFdkj5LXs901RbjcLNUGtpzoNis42f0IzapLLm/gVz8LT0f2GycuUILFajM3SUE6vhsPIS81bw/0XDWVBrd+4vB89CNifUtnf6Cxz79c3z1Lp3HSlaeSzko3Gxwi5bV1k8ib0w9SBmdKdSmgRcxU3JvtCEh6rLgo2bLjJrhBZKUTRlE4OkAlUluaLkWj0nl0rqRd+dezQlEs+3zRTLJZXYubt3sCrSdTlS4HNrdtXIthl4BUSbiyISFVZzkJCR4RuATuguwauu/b2GKs2hO4pZdKeff7m7F4ItEWP3DyuGV41Q6qln6Bqw8S0bkw5qb96DiVb6ul/V+xFmz+hX5+qbMo5fMdPkK9N6YSqNZakkZJM4VU7MRVX93r0Zdgj5W/YvGu0HDE1yUG6EPZI1E7oJVZ7+I3zY4yRtNGelhWEUTSymgxT0x6joDatpaynORW3eTeZYKqRo9mLatPAbU6hpr2tnfJ3dawfRXvykBN470CmpsxpaCMklnG6FmIpepAoiP9girHkKRGcJepRi1+C6me1jRaISSSSJFEl2iKm+dexfRac9oDhanTkyLLkM2qONkErIpdw7MSsthvXzkZEzY+WKKGqkmpWQKS38WTJGk6WZnpFEu0RZ3yd3WsX0QQ5Gq4Hu7RZ6qmoLkktWRtSqK9aeA1m3oWYlXVUL9xVJDu0vdi8/MSe8/Vll2qL/zr1rF9EAqZZHDElOSsENzhlmnkWNoyEpScCyQWnQR9EFEVlqoPVOs7ZCyu+Tu7BYvGSRFxzCMvOB9QobyajvEsyNrUKEhWgu3R8/fsFi8ZEesGjKwN7y+J8bPXo6s4hLRfgW98n2hHTI3VEk4Uxjs0fL37SI6JJJqST0x2iU75PsRdEdMqjPqjtEW/hXtY6c+qO1t75PsiSeiGRLA05RIlghdtkfE3fZLphEEMhyQyGQyF2yLe+T7Sn8jJnzN+0T6s/w7P+AEkkolElCmE9tky1z7n20klMKT+HZ/wSz/AAsmfI3/AAs/+Cn/AAkyfB6h+/brHPp4EovXtbO+Tu/Cz/CuFvl+/wCFn2anPsLf+CDP8LJ8DSr1b9/ws/w7e+V/s4r+Sd3B6x+/4Wf4dnfK5+BKKE27fhZPg917/hZ/8FEYJLM4hIHtM4V4n2uHOv0Ix1scb1pUqWSebwlJJ5aG4J0M4FdCuhXQroV0J2K6HgyuhL0K6FdCdmTsxvymMgSluThNw3CQ3DcRuI3UQUBG0hkMqVK6FdCs2K/8EIUsz7eWSThP4NDth+YP8GSSSfwGW98Wn+FWRGn/ABVUhfwrHYd/4Wwrd7okXMVVT/BMsNfzUSnPsXYfvdQi54ZGr+TOE9dnYvP51wv73UR0GluWu2n8R5doc/luzL13uojoqFb+CbHp6z/Drl3upaH/AIZ/XH/Csi5d7shb/Dp3/hXYvXe65Gf+Gcs/4V2Ll/zsU7F673WOP4d6v+HvXe70H8P9X/DOxeu93oDP/De49jPCE81hCiLdmo+LBvze4VRLclDAjbxYiM2BppsBqrEpUqNwaL8hveki1aQ5HFMGbAtbwHYtd7rHH8O9U/bG3xHGrPEQrJXIW+/JBC5bLf0RUqiRKpEPMoRWkjhkSLe2RRV/OSKtehCt5sueZVV5DShkL4HgRTJmJOaQ3oUhpZ0/wQ/SRDUoxtwKr1ZkRH+DWl8xK3A7Fj/iqeoftjG1bc2Q445KEb/WfssexvHhmn5Ylv8AUUP1jv1WNHyjwPKCX16E/doKPyKH1pWv60Yo9d3gvG6L0I/wEJneAmWU+BNpygWdKIpKlFp8yJVbv0F/uUq/QVVFZMvUiVaon+hajrNaEwqxXQaUPmg7FjK1B2LXe70X8O977dKSXa+WPhjQpojmCFoiNLBPqz68+pPpT6ElvhsnhUtBi9d7rfHQghkMhkMhkEM5p1+R5HkU1RyROpE6sCfZn2WCfdH359+ffn259qK6HGPrn7GfQprp/A5FvvdbxTpaUVRd903cX+0Uv3+4/wDSI4zr1P0VTT2TKb3yNcqhlDI1WfQiWZpI0Xd0pU2DWXlqZPmShnZqTc+ZVq+1Sdat22S1CvXe5KOpszQ4JXqJPV11JetjNzZcuV8RTmdVQqs7Ev0KprmNQ7sktBp4/O2/hnYtd7rOKAkp2MnqrE0ipJsm/dRGpyB3h0qNDJystJb4pUbsvGSPyzBRlS3yhFqq6Nbf1uJdSDVI8Vz8yKhAhv07k90ukUe5lJikTJmpnNMhkm2lQn5mVkihCkhV2ziNOSMlU4/0lK7gnLJSqFvEYy+fHjkPrkabIRKv+RPVHBSOnFvy5rRw/n2e4x+VsZ/wrsWu91jFKjoNVfzyFntdmjw8iuouGTUy1FEVDeYvef0K5hrYSInE5XCJe0P2CVc4T1H/AFhttA0u1FSG718RPKqayVJ9Eai17j30Ius5Mqa/GUbSpPGgluT8jdZmpW6Vv2O9QiSHTFOaM+SyM6pMhlqqnA1Oh2ghNUVdoQtlGoN5lYWcHq3j8rYz6K+H8C7FrvdY6EK8XVh01q/Apr+IEc+Eqf2LOrVy/wBnjROkVb+UM27z2FPJrFnsiH68NDUGotWINxW9xN5ahpxg09/lijLh/PQrOL5yyjjk5f0Jq6OoY8uvUfE6ilvIlJckhdwq/IUOzf8AsVsjQ5NStBbF5iVpVeojXLt2Wr2NpXN3YYHxo02LIQtGUTee5RBrUeFp3nyM+xrn/wALb1izoVHnJTXcoLOnyIKChZjVvWzTkV9gk6uii1+fhEFlub2x/hn2JktZ1Cx5SUwIWioEhvg4I9clwK6lSpdAjDV6lp4Feu8YVZXFqrNCLdewqxmCooNb667ke0ZozLHXEQQt5THiMJKtbC5Qmy3PHvkCExOwlZU0J+JivqmfTXL/AIeX8MVvWxktb0j6IhQ52EiJMfIKEweMiEZXrNSPZJlz+yPcMqJ5EgJJu/6Ilr1FWbbfNC0M6biq221/sY5S1FkhfTAhpoSpUlqKfYSc+x0Km+KIbQta0lTZkJYXiGcj3/XJC3YmhFZNSluK0CUISKClb5oeB498HDJlf6IVT0bH3Rn1z/w19Bio6xBs5E31J6fInhflQ2xl7I+FF+VrsKhpNgTyP0BkppsXzeQd2N8UbsA/sCjAb2BN47jZu4wtwLSVJysfdmf/ABQ9B/DvdGf8K+956TrV6BxOJxJEOzgWrVj+y9ocCjuJfso1Kcp1Twn0Ljl4DJCZqR9ELlitLdcanMiWpj7vrrNCMCBAjHy8/wAix30To6mTNvYd16au8T7UffMOffn2Z98MpXjshlwdl/ZQTVU6rsZg2yUlT+g9MimSSIS0olY63ClfZP2x5IbnKVkehjkKJVBsqwcUSKNHQ/Zs2N9iTcIRLHZaSrj74ffD7ofbD7o+7C/cH9iy12m3kmzuWfRQFvQI3+gcqOWrJbiwh+gWI0vzCFEjsbhoNK3KFeKEj08LMSXUEprgmxPhpRWdTZ73em6jNEW3wXYPcJb047ETcmHS2lMN8lcRypNsIVHA+a0Ebj1fseiHw9mZrTH523UxJ569lnoYWvoiAsKEtO5jvDMeqlZDYQw5SmuSySzcbHLUTcn5ONNL0DtR3WToJzqlaIDeUJvqIahYbEadU6vkoNLzdNnvd6bqPaeVMSLpknBm24Rb2KrVmU/omUXzbIfaL6yJlr1xthoc3J8VoR9YCa+yqNFGxnakbHk84/G26oOeiSSeicGxic8xov6Ndwy1E3VQ6KDagnr9L2RN94G1kvJ3IGtCX6E1tGUWXq+QnUzVjmCOwdJrxEIOdAVHMN302e93puo5H9MEYSWTFiIECBAWmH6BkoCouxgSmXTLTBdJDZOJq2KojwEW0wwclltwuVps30fE26ruTVB2a2yENUR1I6kdSJHUiIENnH6MtJFmOXNyxU5hCr/hklAx5S6ibLJ2DI0RGhEy3IPcngnW6i7GX4CIqtugFy11MI7WD2HWq12F1tOlZ73em6yUHYdRCASv7iqEJoiO1kJoXSKUy0bCdn5CxcDOK9XyOOqhZQ+hR9KfSo+tR9Wj69EdvIFaII7ecK99D03Wlkkkkkkk9r4IK/slOa2V5XYr+qYfIq4L0Z6DL+g3nyreHU2fVJPRJJP/AAcsflETLQ/sIdduv72SV0Es+CasLTV+QzEbzp+yS4uvRDKHPcIRknQQ0qhRmLXOvUXR8bb/AIq2ukoiTiTwzu5xHg9R5M8mrNic85mDlngN8sZiY1z5154V3Z6CGQ+lE4rFTwkX/ocnfDkQMlVNrsOfYW4v6DUAElrsW01i0S2WMuNNeh+6/wAU1vvdcugqrdhsqFI5IOyCahNslirRZjcV8oQfdFVV0eP94nETDkxWT4W9yxFDdfofZxCgkZOs08Jnv5TUDUOS4cPMYvAA3ykGZPLnmlNS6iCrBVlzxJ1oKenATgKpJWMX4peLSNFp/wAYRvXUvSiJJb3GpeIZq1CfsRqaGTt+z3fuZNIFvSwjSnzbCNdUGaFWP+ZsZlYB1Y2Gypp5CrRDWuIce3TjUux5bCJm26MmkdRZ5+Yp2idH55iwVd2vwdhIi5I0PYcTeVeDF16uGmMT4LsrWrX2ZJ++j3Jn/DWe+YJtBHsN00RVjPTYPDKlR+g0ipVH+n6MYh+YoQ/Adx7ZKtbB3F2v9BqDbNNGWO7/AEISJLULssodU7ovyInhtdO3gNIlpeTuJQoShaFSa2ogoTQk1Blv3klCSk5JbastEL156Pd+38PZ75xE9UvLCL7zNRB6Fnr4kWZXyxH89EzMY1G2ItRc+cEt1mroyntaQddftWIVZaaeVhxW6u6VE3+g4iibV/Rfzda28hUUKiVun3ft+LUMz9BmY22Fckk3BDBcEtQ11lRjA1IoP0aKfEffthtKNpN2Q3crkfYish8YQJ4slg2kSSm0jG1UE3eDaKWSasTRKE1RrNldknTLxgmxO7PXrR7v8VuHbMyGYIuNqwrSquhjTSJ8ko82FgDv37YvtnuVgTleeohtbUdpQlUtyGg2ChHmQ9mEFVOc6+g2WeYP6LAFMJTtKkOQoIjJHwmkLWZK5InHci9So7gn9ZdOdXYWTbhJXbE3KbTZCTVXYPu/xUlWqgfLi50EXtrg39eKPa41UWUULMu/fcvCxl4q98Es5dLi+PCS3rCfiX/Yqj4SIMkBPJbBBI5Gh+p/vWyCFLkGs/QRZOangnm0FRjS6UBqGCeDTYPRs++R9CNXyX9n3KPns8Can0szRDlL1GYLS4sDTVUM3umy3IWC3vNkPFfkco71dNA03TxLYqA3CJxnSVgzUzU9p6XyJd9y/oEmESaFd0CrVpZCVhJcDzbvPqkVRsz8RXpXQVBa2K3/AGEVcKmvQpSE3qrRkJsWB+DuZG2v8uB3kQRFOMryJqbeOML8r0KMHY8xtP4m/HcDcyueCtwWcU9HSo069xuNAnURTpKWIZQSl5d/I+PH4234uqoik0dtGUmOsbvYWdJIjJNyg0sDKMYGTjcxG9unsJJblHHY2e91yFipxxcxPSSkhZz2w0SVdFDeZPb9yN02h6I53E5FCh7ky16LzHZys5E4m6FSgzTUvk8z+0yDbFVHEnUsQpj0mz0I/mHItgsOyasq5XuT22lmVxPXCV3m+RC0uB0/G2/GgFLauJiND/YzunnMegXoPfmQWtui1DkJ+Ookb7i78Ny6DaYyEq2yNzQQ7AZwXoMpyH6QuL4iyFhtEvEII3QqmQKpciOcGRDkbhNE/D7SNTYSoTdmLrBzmqYnKe0TazTZTOnV8bb8dXBS3EEEucpTVYoRKRKHfhuXQiuw/IFR6jc6lBbQiW0Ka1K9FTTGC72jbEST9ahpWRNBHNVrMcGUVJlF2fw3kIlFSGuN1bvkUO3VtNSWoihoES7zcvINZ6NcYjkMe2WV4xltZMKHmpVwgq8pzfkagooca2KXLm4ooJ1K3rij43H481NyzQoWCN6fqPFueuSHKyq/KkhZtyv32bl0KtsJVjvQ2CWG2qInBXkHL0PSno5BIWfnlUNskPJgl065ajA2ae4r/hG0imZyZByHSa2YJLdAhTZEuikLKvI2h5ceCcaGF4ESjobTIfsziRbXqMsigUjxPy04MBBU6vc5HixMTQyVkr0yjxO/SFIUzaGnYnKbKh+I1dVUvGKWidt+GEPL9pOhqnBrbM6pG1SpwhfoTh2kb2iOm2wtOpRtoT5oYu8/rYdkUdWlPPomi9BGlrG+FjCvFdcU9KT4Gk7E+cIStbo+Zx+O6FXhQjpGIoFEnBzLFCYlVETQ4M+KiCFSWi79It8PMmdOWliVQpCGyNqSmCUdFjYVBmqIJMOoFWE1AlrtankKUxmMsUr7vNiRXkcN5V81wVuG75FybqBhLBNkJC6Q9U/Xa++/X5Dum0/MmX9CWy7taF+PAYLLCz327kLFgalcbPMdZ8DG6EJ+blZrk0aZaipyc3NcrtrZK48ySqI7i7YWWJi4To12oeodoj0z/X5OoK1Dv0OxsyEqudVx32MnQdr16IvOBiuJ6xkrtg4KFShrIUvUoQkuZUFHpFNNSYWtBPA+0Vcgk+b+sYeMPCHhXH5HH4suTKyLCuLorAqig+ooUGbc5WmChNCNwpwrJLDQuSjziFbIXfbyCxbSl+MlJkhP7ODabR4qJZjxJ/oFPMJDx5WVDxdopJ26aSaS9r1ZtoLiJsUI7DKpPQJxE2X+xOMsjaOZyKus+CQnP2cwQzzJMVYHo3xRp11GPoP0/FRRoBGVNYKmUWOAplkXSwZGwqWxm07JtJuZjDap4kolColl33bRY1PkGx8zaQ+VlQ6rg0p0GV1E5Dpom0jzaE+W5nopsVWUBuUJib4Nqx9nFAM76/bzwfRrBEXQo8BTOUfWCp88uVubW5NWvQ0l2GjKS60ODa0JMEZN4I9MM/xIRxSlWZFtijLVWI2rYZLhYTVitRtMAlyMgSaeZYK1Xu78NKXQvtLPRi/gHZjDzJ6MkrtMyRWUtEJmTZSRYG1UF7r8EthsjbJZimNgpauVm7SOsXYfGMLhE6tXSRWUskIZNCbXTsJdgyn7LEHtEIVEkrKg7ac1wxR6P9PxWzLjVpSQwks4EcKTfojYJxVYTusPvw0pC/hvVv1/xUtRd/Deqfr/AIqW41ENF2aUvgj/AJkv8cYmf+Inqn4oQAAAAV74nODYwNgjARtg/U/ompJvI3TcN7GCBAgQIECBAgRIkSOhHQjoR0I6EdCOhDQjpgKTdmxiECNBDz74C2MiW6zbGrvvYilRJcFeh+gxKjW802fYH2J90fdH259+fbn2x98fdH3R9kfdH2R9ufbn3x9+ffn2ZU/YIutenU8IKfNEdFK49kK2QjQiFoiFoiNCIg6KxDR0d+zMoqqL7zZG0NthNubA2BtjbGwwxcrabdgvd74lyciLOl+u9hZjNiGhHQRiR0NojoR0IkSJHQiRIkSJAhoQIECdUyiWpZ7FsJMcJN0Kwul+u9jzt0fj0eBHTH448OvxY7AX977/ADhZ0+uexVL3fY0FX99qAHEvVMyYFm8F0v1HsPzD7D7Ltv8A8kcL6rO+K5hZ0+s+wloWwhJDF2kRIQPMQIYIYIHAaESJEjI1deUZ0ePoJ64Lp9ExVvl9EgQ3ODIHBniOBxOBwxpaHDBLA+BBwsVumzDP3vvYWdPrHsLQ9SLGeNs8LdNQoMiIJWY1BmMZY4fXkH+XY04WCt0+iYvuXIj+yII0GrEXKTgyLYZCIXGGwa1zI2IqQhDJ5yKyJ6LO+K5hZ0+uFmhLimEmXJLgk9hM1JJzRJOeR7EwZEkk+uE0eDeY6s8K/mG8hYK3T6Jn7k0EU3RuTnjQkkkk5JxyfoSyWVJ08T34rLpdu+as6fUxwtsZwdqeJOCe+EvUVXVpE7ldScaksb8A2xvOdhW8v0Mral5YK3S/QGvOpkKhLkkncnokmpJroicJJxG9xNt0PGW/YVl0vvmlbpr549BMnCSSmEopoSTocCSSSeCUSU0JJ/09e67BZP4QPMVqHkMVul+gzNyxN5E6skknCScJJxT5EqRsnCSSXXTM9xHkKy78JW6fUBqCeE0xknCSUSSThJJJOEkj+Y7AfM6IXYEYK3S/QZm5YsJ7DkqL2OCSaYyhlJPUP2FZ34S6fX/YemEk9NcKdE9h4AfW9Yep/oaKvOEMXTm4YrvkZnPTTGadNRlc+iTWZv2LHfgLp+G0Le0z6qdnj1R6z+jOWwxdL9Biz5eE9hTLooul4+s/QrO+25gun47T8KzwePon1+uLeb9GXlDF0v1nsZvHsn0U6Xj6p+wrOu3virp+e0KBDQhoQ0IaHA4ENDgcCBDBAhggQIECBDsMlrkrS/Fj3kO4un1L2IFCUSiVGBwHER2OI3ugCJAgQ6Tl5v0Ky67e+KumpCu3SXgN1rgumUKEIoQihCIRCIRCIRCIRuEIhEIhEEIyOrrs8l382F6g7i6fWvYXO9iu+CGSJEYEmbfQoECEQiBHQFBZi1kVnXb3x11T5E3pjXont/S/frs8npQvWWC6deBvOe5LJZJJJJJJJJJJJJPYUVlwu/DrpoZ5JSy5mCW4s5YTfm/8zeG8wjfFaw2hsPAcvQJt4c5zj1mU7sp09UiwKwk6OR3F0tpJt2SbY2zGMbywBasBcZEtsbfEveG98jeG7gnPgNhlKw00zYHyZtkhWXW8d9v657ClZCr4Ekkkkkkkkkkkkkkkkkkknveu1zgZesMXT8FoKCSiBJJJJJJJJJJJJJJJOCSSSrmFbrtd9v1IqK5k3uIthJJJJJJJJJJJJJJJJJI3mP267WAydPI3XqfEaClDJJdEHajJJJJJJJJJJJJJJwkkkk9yKy67e+OumpWzFfkyTJE4SSSThJOEkkk4SSSSN5r9uxxpo4D6UjxCEIPGSSSeiSTKaUJwkkkkkkk90LpXfi9eB+u9xom1eFYJk6ImSN4mT1NzCl4EhusyWpLCb64etfsSSSSSK49Is4iaeUSJkkkkjfMyGpJKqai0ewHQtzohkT1JkyeBIPTsVl0rvwaH877lSLVkqEvDAjQhVVzw/QssRzqN/A+osjoi89RaQ3N5aTXIoPMf0SSSSSJjkf0iaOUSJkk4SN5genB64mRjB6SLyEn+EZOIlegkiiIf4RM70I+ZvEYMSJU9AxW79jnBXFor5MY+dCwPYhpGVCLSVeFz2EPFFbnGfoL2KGTT1ETSgSEP82jIdIKQ2Aj9uuB5hFYJ4ZrzwylEalBKlCKPJlJqehwUhlIILaQPCJI5KhRzBOhPfpckjUYGSXvU8VhfJPUzkboKLfDUj0yHD5zE62PkESQVwptI50QV2HOhSyQNNZiZPo9wkXkRuPI5+PTiwZl7xKFmJQUZNM3G6i5JRNSisQUn7GTsLHJxkU3HTcc+JlwNEMTUquwoCEkkmfvnbxbGxg5JPOfIpk1qDl3HNjyjkIpmRdKkdyO5HcjuchCMzcfmR36IOvg/6jaRsEaCMyIEaERoI0G2bJVNojSRoOBA0CG3IbLqmbz41HVm4zcZzZzZHUX3HMQ1ZDUXXEmZwCzFpmhGVoQ7k1sJiM/fO2PBjY9p3GovnWhOGmM+WHOGfRxhXozwuPD4jPHOuE454/oy7DU5xpje3Y5YVqeBbyXqItffGuYmPB7La7FhFcGj9Ca0kMroQUFSuhuIZXyK5CTjXbBFLFdCHoPYKdBzNiBXQhkQjxJEaMCuhXQroyNDK1oXyZ4EZk0RBUjzzOWTmQSdxvErhEsh7EciNDJaV0I0MhkOCumFdCNDK6MtqRJWFMGqG8cnjW976nE8OcdEZ2hmOcXiGwrBwhFD2J2OMERW4h0WNBuuNYtXMzJxkknCSpkNiUjEVgrJLJKaIoT0SVJ1JJJJE1gUZEiytiZMs5p+wrV6JJa5Iozr3wLGUIZNvgZRqgyBqWiGv0t6RZcolNFQoc+B4HuVjbDzwqOXXHl2N8dT3K484+hIsia4JUZkJwc47Y5lOmD0wnHMU6E6k0Y7nuivRYTKtgVu99fweFdWV1YzZzYcHJS7PbQjgtx3OShc4ueopSimpLwrh64RqWPkGUYXa9SxTfoqMRQagzJfRng+MOML54VyxU4KZws8c8FmO/ULB6WnfAd/Bj6JeMi54EKRX5LkcVRxIoL7YK+QyMbYRFcK8GdSHh4dGWNK4oePoKDdHpOFzwqRrhbovMCVSSypqWpmUN5rh4CWKSZFPoYysGD8kop73q9gx41PyQ8aiUUIQ7illhne4kNaEEYa4WyNXgsM/Yo8HBHlhtjxXHgjU4wWFSmMUw4OSKmQogVOMNEDULD5Y1x4mZTCHmX8C2FweE9zx4PYXthG4vOhDQrFne6/g+izIVITGyROtStpZw9hSSUIPJGGRGtytipU5KLQ2KVUCKDTKFC1zTCniZlmObeZao8alR74W/sbwdxlWVNdxE1qeMnyBWwl4qC6KznCkScnxFourNisLO917Bj6F4eHqUKZCecUBsncnQeRQve2FH+imFMJZOZYWNDMRTG+HiX5w8TPHgkkphOoyklIFsUIK4rB4Jwrgr1kKjZZ43D1QrFve6/g+j2A6WMdASSshp5MMkkSwzJakyZ6ieCWuD4RWSwSwX4GxrG+CWGRLDPDHrcQvw88LEujywywMSyK64KyRtEjY2msEVi3vdfwY8fY+wySSRszwzgknCSSSeiSWSSSTgkkknBJJJJJJI2SSyWThJLJZJJJwFtiUMkkkknCSXI7IQxLEaT9oKxb3uv9Sej2CNyO1r2uQqPUr+Vlg+lDxBWHjvcvdkkP+ai7qWT1BYWd7rnUnmIf89kPoWCiC8qPMXe9c6vZ9RdmlJBBBGEEEfjQR2ywfVUqcqi737H1eiQ+ldksKKS0uJFm4f8Ap8ywa0BtjdRpQN1eQ20iZshNPwE4TZTCmCSbFkbTyNxeRX/obiNt5G4vI2DxfAXFBogdG+wRkPqe8F3vu3UtL1XrMum3Q8KxY5/YrZKVZooZafgevCt2PqB3fY5FnTfgy73mO/TE7FwOTh0ehBBBAhl132wVxPPEEEEEEEEC+SLnZUjfLrhLCCCCCCCBCO/Yqxb0RhdfNvArC0735Y56dTNT7A2vMbvzHpniQ5XC7X8BrYfYK5NyOxAoBrKKn/ASTW7S7IBK1Bv7dihWKv44Wf0X1DZNJsrT3zF0JtCcJ6pYnzwNKsiWjJaMloyWjJaMluQ9GQ9xrRnAQEfQR9BC+pD6nP5Hzgjz1qNO6ycGx5D6A2vIbHkJaMloyQQ9GRsyHoz6A+gPpD6w+gITN5CT6kDAvQrkjRI0LFXfeooZL1wDYZGh+RD0ZBGKQyLoT1MoVlZdKGCErd8r+08imiKaIpoimiKaIpoimiKaIpoimiOCKaI8EeCPBdU4eCNAimxTRFNBTRHgjy6PBHkU0RTQR/gI/wABH+AhaIpohRB4HgjwROyJWiKaIpoiP8h9EaXl9auW987vws/wrnbV6HYVsI6ExPsl305fws/wvQGS/BdhW65E+xXfTcvws/wxl+BIxOhJToaxT7Bf8DzcCck2PLTzLRzkNoaQhRb3HlgdZfjh0UuiLYn7R+p0mRarE9BKjHMclYhCTVCaxawQutf8B0iLeY9SDJXjJKJUyEVybbEOlov9Ep7ci7W921H+DUbbL+GRFArVGlYJwhsIYKcybM/QITi8nwJ4vButd+8+ljpoLR+ItBDw1GmExU6yNdCbIs4MSSSuaF8SJn9M+ldd4y7TU1r+2LW25bBRsdGcAG0Oz4Y7n5l/6FdirNFRECzb2DYPFdS7999DIKZlicxNhkFRSuhoDcpChkUpqJB0QoMnTuxK0O4Kpq+OGotrOq7O8Zdm2mN2RJrFpCGjjQKeCpBklF2klLHDVj+w8nhQhV97hylVIpNxzTulIXkrKFg+wLv/AB72Lx3uFwWwZcZl07iXJok68ywlWEimRKpYsZZmcpbCnAhyXEEn/T7O91rB45uFWQdXkanZ5ETxt7iVLrUuJS0RDIJhRYk0Ir6mSRLsN4cnWVl3Rf2QjN3+m8ahrJgUUslMQySoRI1V4Fa0ohvOw4JeBXs3k8hpKJtk5jSLkMurIftIuhdV4y6lg8csskK7i1DdlihISLOuYz5zJUu41asoeZJuKos3Uh4inZmR1cI46Cdnrg8ELpRm7+7I3kpmMhvEZYcTkY0i9GMKRS7M1NkoWYildDwmaSdCeNQ4Q8gG7sX9c5dK6rxl2DvjChOpfzWwmqqshlmGtRNMOTTzE1rlmiJY3IJuznyQFxBaYT502HXclDjS4FYeCF0otffkfQySmqQxZLD+YvpHOg3IYrq+QpIljKyiuzdEjrcZO7tMdCXZLhl2DFhTyDRZjlR4aStLsxjgq04lFSVUh1aJibqpAaMq2iETtTdAvliWSiZFQjRF6CsPBC6V3+LNYIoLi3q8hZYh0oK4QaGNRqCSd7MSZxbyG2G2J5npcjKuBU0qLRkYrIaB1vkXQuq4ZLsHcWEdaJqP+5GzR2RR7ZWWbvmUi6fIkFmSFWVGIJp0E2YGJ3mFUZ79g4WjIC6U2ErJZYPBC6UW9/lkUHkMZvkZiElY11DOarRWLBqopt6INtiUCGbmTRwKVbgImnM6DlPUBLoXVdMl2ciUbUZBAujdV9v9wpRwiXEIKtZjQ1LRkkzQhomCvVLt5eJz5Bdg8ELpX/ALkrq/A5TT4sKLJC2ISqrqxNItAQbQP7f9CpPmsmQvKtnphDdiWeZV+j4uldVwy7JDSYnZjC3gOqJ1JKUI4ENL1Fj05v8ASgK+opSoleRoQyIOh3Cd39LxHDKZJBdbIsl3ciYPBC6V38Lt0MrLvtsSssIgqKqjQ9BLihsFJKp6f2Q5VPJ6lJXKkf8AtGLpXVf8DLsHfo2V+QZuZDr+1bIKWk8mrCF7h9yjo86CV9kiXQoLvkxkD/wKiSeYLXXv7LRCWLwQulf8BLSaipD+awj4jjYPW+KQlL0SXVBI7VhckaOJUfTYRZm7lxLozwXVcMuwd+mtWMxxCcPImZ8jZpYxpcsr55CywvAuBDDxvJcEVEsXgri6V/wO3BV1Qh7LHoi+5E2XzGrkhTp2rJ2EqUp2C6rhkuwd+icGkQk8kithqtDGrMQGpLNcimeSFnEaCiEIR0u2CF0r/g1ydk8F1XPAy6lg79pHUx0aYIXSv+Id4Lqu+ArdSwd/wmPBC6V/xDPBdV0Vuwd/w3ghdK/4hnfsF0Vl1K2Dv2WXYu2CF0r/AINs+0XVfFbqWDv2S7F2wQulf8GOfaLqvit1LB37JW7FnHWXfQ6ZRXCpXQlk4ScHix1NxG0Ptj7Y+2Joiz6JjNobQ2ZtzZmxE9CCdAhqjwYJJwNDboKhRgkknAtZswu6dQIyrJ9nONLQl6Ml6M4M4M4s5iNYgG4HrDcC0zZI0ECGQ9GeO4kd9ELRG2jYwNhG2jbRtI2kbaHpoemG7IWZDoojMA1uzG82J6HAQgjYioyR8C9SXubjKtw2WYUuF2kCCs0R0UXJ9vi/IBPUHPMV7QNwbkmdGww8KwzLChto2EbCIFChQoRwR1QiNBC0IRQhaL/gMEYQjNIN+QcdoG83fQ3PQ3l5Ye4bmFDUhqTjeN/CRVwtc3h65vfI3fkfSiVmhClXSFqERBadEGQp/wCDJ//EAC0QAQACAgEDAgYCAwEBAQEAAAEAESExQRBRYSBxMGCBkaGx0fBAwfHhUHCw/9oACAEBAAE/EP8A+C1n/wDM6pboWgpbouRRKaiWBvULQCr+KtCzHgwTtTU5bV1xLS3U7J5+vCeuk23Qooy5YUZhrVV8VQK6JcWLPIy5p2tXL1Ly8v2l5eXl4N/Om78C6TQy3WCedCuF9FV+i0t0FpaW6ChO5UwbSryIruTivgbPabnwVlmd9CucoMl5YgpaWlpapaWlpaLMCyoDaDzF5VICupt+e4EQ9Vy5cuXLly5cuX0uWSyCVj14+E6nYUmGMvrfos+Lfxn855V4Jj0tRB0VlZT1jMZPQdX1X2BKMpvpiVKlSuh7XMglWyY646Yg6dKZWVlZWA9Ar06nQr6r3SLgu4ImJUqVKlTUIfnJT6n0+dJbjo9V9L6W3M9L63LlzMfR6gpeWlujNmXexfn0/foelzn4Gx6rZctlxY6KYWC6zzSkJvZFn5xYc55ety5cOmhH0Pp5+C9DAuWS5cuXFkn9b39GZmHR0/C0Tj4baD6RG/ON1OXu+o6aHw+Pht/VvM/P+31Gzpw/CdnwWMeh6t/zi6nL3fUdOMFsOK0/BqP+Cbz+z7+ohHXwnT4TOJz6zn7fOLqaPu/AcZj4PPwWMx7K2s29W8/su/qIR18Lh8Nx0PTzCfON1NH3ejqF1n0j8LmefW6maDq29WxLWPP7vUdNPg5lsdKfguOh6eZs+cXTNX3fUeg+gF1mNV4B+6GoAhJos/NJS2TEvKHbAYzKPYPszHZir/gzFGxGKvYmTRg+ml9NvVv0+fSdNPVU7EcFz9txmoc3AxgtvAQhn2bmkh00OnOMBu1t96WGt/WKMnt3l+px6+WC/nG6Zq+76SHTh6VOYaEEN6m8Nf3GYRUOSrfqszZjxbXvcrtb239i2IiKCmry1qANVWIY8hXNSwKjI7scCE2xb7cSqO/kKLv5Ibcb4Xh7QfQ9NvVtN7v6kdLV6Q24ALTgDuw0KnkA1IbRbnuvaYWA0coah8BWbTbfkVC0Ht2gcXgMlzXMXY8hfXhYBfabPdcGK+zldmD6XHr5Zv8AnF0zl7vpIdNCPULfYv2buU57I4773MpOTirqnjxCmjW+nanzFytx/m8GA2WOVWrvKwpt1K1fFvtC19HPcgwgSg37do6dpK7TKywORmhm9L5hA2G8+8D1NaOHtA46sr19/XwdGvtx6AVojo1vgWlV0QobuVMriDnbgVwW7l3NyNFw3qoYmkexyRgsIDttiVyGJd973jnC6+OH7EIFwpZ3YaZSnAy/I8Dnkgr9Djoa9JtN/wA5Bn3PwHD0Uzsxb/nigNaHqzFy1MBa+ThCBajC6oyJ4j0xffRyxm8ntFDM0fRAjRGzHWL5qNa/IMQEDjdFswaySpfNQcvBe1DFWrG/E5YbzRKXeSaauw09zvCcxlzb1bwUPqh0Q+j0IpdKrS5EoVss88vf4ZYwDGhfqMUeX9hLZlVwkl5IguGbqFgGg0Ix7oCPpqEwy17H+gQgTZW5TbgwoL2EMz40csREEt3aRBys2PccjDPRnHrNs2fnoNDoRWoOT2C5haL8Ht9JoUVjgfeEFXVjUpsaNaqGajWsOJsbeVyoIrWvDVRrBaLqVqLU/wBopM8B2lhZd60EvBrbZ7CLNvlj0eNSVvzZIa+MfzjA+k26Oz0bvtCl2/8Ab6jo9QhegU8EayJvmQUk5D+Of9Aivx1q72+7JD6WLgD3jRBiYcqBem5oTSRI73uGzoBdeREy2LndHjtNy/VVH3ZqztfLz3hzX5sY/TrU/AXEA5VtgcWscZp8A2zZ+cv2PUdOHVkGwPtFdS77mBeGKqXihIRdeUOYEomrbD5GonymuDH9o9PCGKtm64SAQtMH1KNIcbtXEIfv8UdMKFoC7p2jSc7RVQFWBk/yt9nQgm0t98isvc5j029W0/ue/qOj1U01+XxEK3y5CnYi1h30yvd1DmLOFu8gm5a7h+5CKitBbaliFW4jdYL1dpVZ7PEpdb3uj2IAQ94ppg2fBMxl1GECzGEvoW2iQtXp8yKqvCfFsxUjqafANps/OR+X0kITh04lJd3TCgrhcJ3EUAFFWNniuJdllXAgJUc4A+DCY2xhrVu5pERXCd3SzFahaa9yCOt5dwJf1VDV6/gWsdpxViuz37kuWsGKLumXY0ZufBplWHS7XLKPy7X3Jt0d9NvX3f3z6jowdL1tsQAeuMWx9SHPY1gNYy8S+wkrotysrfKsvTq8pS7Zi2habJ2zE5EHjn28VKv3b7lFfzJd5hqYAKcBwPlLO5W2Mecat/rmUCd4Q/SzH/am2o2TA66PwLeLFM2fnL9/pIdNDoaioIdBTQF6+1Q0t8Nnyl/RWMA7Ew5sVfKfYuKomKF6UqAS7jjjuY7w9b1AZ1mMJdq95frQHtMaQJ3LnLHd2VAL2XkEupzjNTseKguGeuHtL5VRrpOfR+Ac/aO/B+x6jo66cS8moNCWFptiCUF2i7/fK/u25pz6SWibyl4cZlyW2RX2bIJ0UFgF8kWmglw8VvRTmATr+x+2URnVer74EsVbALZ7UklKtAgL2YsKFwCFtF4zFoaL2UWOz00+AczZ+cv3PSTTppCEKjSSRYC6+6Xwyw9NgeZc3t+OTT3iq2tkZBaz4uIUQJSTO0Ls7xnM7ER0wXbBfhAvI3iKFX0Ve6mROttZ+HTBdZq7fIpZT4j7fcvc+XmK26AOTwt6Hpv6jmf3nd6j0HEvr2A3AME2w3b7BlmySu/+9Kei8/It1WH6iQNekCsohIoCXXmPltX2vMqYFv2IIrKNPeV1sfb0w1r/AN5wPaHnhMlnbsYVxCgnuZqEf+AF192AcaqngXNtNRmnwDbFV/OX7/SdW17TsS+gOY+kiyF2QB3SpKYZGZdBROPcQ9NSZqObTmLXNC9Sn2Skp1aCfWq6mL6e98taozLk5b2XIXtBT2ItysGLi1GDAVBFTYmhZhK9xzDxZCuAgjaq3W7ZlBNunkvLEz5QpW6XdPbr56EPTtP7nu9R0THt0ICpar3hkg/LqKCuN1jUu2rreP4ZXf3dBtzSNv1ghsiFs8UeVjnO15FSXdBvtsJXs0BU4JUlTQ22VQxm0vwguCk77pzO5DQ5+XF8kYWaB+oD7hiDHAc77/tBkcUt0t0MFysvqp1HMqCHpNvvOfzl+915gyjqqxGBRUIYQbMkBIyFL4595VoN1/NDUoyi0WuV0MWxpjxWsLsqS8r3Hycq1ELwLrjYjzWPrGLmkrXJCKeV3L38PsxzCpHFHskZUwJbFVREtt0Xdx1d/SWrEPvUDjoBnzM+tvGrPP7PqOtbhFSMrpi9sdcDUNqLeFMs84RpoExLtx2rsfcYjCvGvlT5lEMvcebcIGtAD8LiZBm+VEdq0qtxiyG5ilL/ANwH3RyPZgqssPG5bboeB8GVZZq5Sd3Ax6A9Rz7xVb85P5fRjodCDPTSpScBfa4QEmlLp+yRIE1Vz2lNe9x1RaHdTD6CHuzL2QiTVvyGQ/TPaHHltvwhmnABGs7O/tZJVXYG38hzCcOWFyKsbq59b3XpMXBcMSIwOx7kY0Q/RoRA5YxgBToV6q5mz+ufqvqKffoVFCC+7LJ9HTBxiVvc5rs9yGwrivOxYx3hZUu//IjNsUodDnsoIJN6DuWyDaEebsaJjUXs77cGFurk1SizK8IJwbla51DH9a5vDvByRi79G11TtCq9fEhzb6D1nM2fOX5fquLoVCtnS6hDV6DV/ZGN+V07vdQdfhyt9uIoTXob0uoKnlryU4EgcOeOe8Pq3pXSo08MZ1bM17Rqaov8GUihaZp2omQjJ9HJIVB4YDg6PR+Bzj/rt/WPQX1JWB8MP5RhXTBgWrV5HDDbo1o4Jat3nbb8bslfAuhw1sYyssGELV4lvT6DP2tgPJqQIoCw6AStIyl9A8zvxeeU1QAANAcHXfSn4B185Pz/AFqMJg+Ogy41SM2293H/ACHA9kE0JZSh4VhqWS2uJ75IhKELAt9TzLL0Yi/rmoMgRlb8wwmvdd92BBBtmn+8XRQFKCgdgMEeoVOZj18/afcfu+tdRTM34gy52tF4fuOY+qffxOuDr5ydXBjEfWQPAZwBsqqbl6VoFgPsRIEOAWHu6MdHivi/XGOvBo4rsEvrWPg/7Txgb+cvz/XcUqYqmBHoMKQitv7Ey2V7zchvM5q7l9VhwyjYbVqh8c5qWRq+oSvg8/aUtTf8n1kXSjmBHx1ISOJaZraa/dIzazukl1CztJbp+J539uF0UOQFH2IpL6hm4yvgEVfOX874Awb6IJmNZXUWWlNktuCl94xRKIesa9HP2Yat3/Z+AYg303uK9nW2Wl5anUZuVKh1a+ASyzo385fnetrooZ6r4meSpcuXGhbAvrfQFgDq/B5ezGP9HPrUqVK6XBqFJDo31GzZ6P8AWV1WAsKdXo+s+c7874RAK6oO48joWmHVGnEAIKUdWL8I29mVpXVr9apgnXe4yv0sR9HQHVi+iiUSj0aQ/ORfUfhjCBOlHVynV6Y5ihFv4RP0MFB7/t+r336yx9PD0VKiy/g4lEPnNfzeg6vopvpbBw6gpcuLhSMKvWy6+AdD7g/pgATdvSx6KGYmPSKQrKS4sl0SyWRSLL+KQX7PnJ/J8W2W+g/T1MJRd8/C/Q/pmxi7/b/hOstlst63mviE1fHzlh/hQ2itH+E/XtP7Hv8Aj2vPV19LZDbLPxCbPnSnwE+Ab/4VsfAsCC8ftf5vB3fA1/OgP8Dj/gkc8eURsBwT3H+Fx/wia/n0oytvk9fD2+Lmx4r0/kp/c93+G4/wjj8+/n0YnllwLVgvf+E/nfqfn/s+C7/zOn5yJE4XFRvoTvcsMjcB19UQvv2A/mKv6h/MHmvuSn/Ske6/aeV+38x4m7a/mLLIOLS/3Ht/vP6E/mcmv3IOK4QyYjiidr6qVMDdoBiLc1w5vtQe5Le1LPKX35cLhaLlbC+5PJl9yX3pbmHhBjBIvGC+rDlSTx54s8aeL6O4fPHig5j6OjTxK7ZXbHzTHnC+8owyuRKezKe0plPaUymUynpTKezKZTKezKezM9NHzioFsC98viXLly5fW5cuXLlsF6FpaW9Fy5fS5iYjK6YmOpUwRPa3KM0V+wtyyXL9OZcuXLly5cvot1L+PesRUfnH6b0XLly/g3Ll+k9eetdNRhJ6SmOAGAAD/LfVXXiPAfOG2TEqVKleuiUSpRKJUqVKJRKJRKlEqUSpUqVKJUqVKmFR170Itfg1KlSpUCBKlSpUqVKlSulSoU6S+0qVKlSpUolRdo7D83YMjtOl4iAHPwa9N/4nCLPNrl+pTXqvpfpuXLly/TmVy563Lly+u+Uufm7EI8nRyg5JcBwUly5cuXLly5cuXLly5cuXLly5cuXLZaXLS+ly5cuLD3jxS6rBly5cuW+ouIXWel+i5cvpcuXLly5cuX1vpcTB4/NxaO+4ty4LL52qS5cuXLly5cuXLly+i5cuXLly5ctlstly5cuXLly4tPM/d6bly5cuXLly+i+ly5cuXLly5cuXLly5cuXLly5cuYlzKST5usxJzly4QoUWv1ZcuW/4lstlvW5cuXLlyiveVg/qR3mSXLly5cuXLly5cuXLly2XLly5cuXLly5bLly+ly5cuLhjkaPm4cDBly+p/l30uXHNe8A/u10bZcuXLly5cuXLly5cuXLly5cuXLly5cGXLly5cuXLlxYZ9Qho+bQXL+AP8q5cuZm9yMV3/wAK5fqvrfS+l9bZcWXtPySGvm7Yg+If4D8HhjhhYuWP/wAVsn5583fgTl/kvxXXuTnpf/w9k/MPm6kXOH+S/E/N/qEqV1z8AK9Nf4bqCvdPm8Nn/wCN+W/UzZG4Qcv/AMLZPyz5upBouIf/ABFIizyOpd4UAd5SXcwa6x7hpHBNb6mK8cb7rK5ltc8xQQtCzFMQ5d1M9TdGaFVsW3FXEUWy1qRHQZyxrwNldV+8OVN6xKNX7wpgFzNVT7TurFxnBC/D/ETLL8VTKS38GDA/q/xKNwFrpq4F7SCFIp2S/wAFuN/zhb1lf/Ge56Vy60QM4GqOPp2rnvKtgDVq8+52e0dqWlBw+b7zgRWgDF+D37s2tDtgoo5rg8cxarvQHQPKfqUKxpdrNeycvDANhTefOr+nMLaWtY/Z4gKNmg51jPftHwHC7vvfeO6K69+b9jvK2p92Pr3g2UVsO/8AtZVWlGw8ch2vlgLEUNO3/kyGe3FfikXqDuunzvcB7BL7B4mQJZKt7EylmBhqiuEIh7BsQNP/ALGhgzaOP9rdy1LOdRl8tkSlF3SquACNPrf7xyIXbb1AGAHNgoDNDC+6GwjntEqIXyYIAgMgoA6zy1dQODY5uz9AigIEauqhA6MAOlT5ubZNV/8AHYWcxCLjjoXqKwBarZbI4K+hqWIXnC8YoXuwIjSaus9lfeYRWLuql7ONTOWBpVeuzjjiYpYryweMbYB2HF/w1dSvxcSwAZ7TPYTmlf6haWFLyAva6mEICZWYsW3FgtqEsByLW+NRDItaV1f0ILZBsf8AhAWsKC1DylSwEliqntWIG76um30NcTnDW23deEIHeZq00aDUBhFLWys4rXHeYos00JS+CG2QMuGcgikO+t/pNDzRXvVlH8y1kO4TKTdCgTYFdvevELdlHCtWSwoaNC7r38zFLiMv0PHeKraRbTXu1DXtqLvHvKCtu2q194bw1sOlX5uftP8A46V92XPQa1uWyw5ttZixos0y57a7S2c2Y7S2XLxw1L8S/BPKE1qg7T6eUx2J7hLOyWdiX4O8fAlfoYlDovpP+PP9TggD/oIrv7CLVeLWEVbVTlMtM9vTX2n/AD3GoqtDtxFrWxbiYLsRun3fzc7Hsic4QFlp4J4GeDqFuglC0BOB2OklSpXfEqrtAOeJXZGUd/uhS7H1Jjv9xLtWX3Iv/riGz92UbKt5J/1iYr2aj/koK/X2TAO3op/usIlv7SI7+0gsC1O9ln4GQXTXZCWXXPUpL79T/Jd5+bXzd+FOfQcWXBTmZMguqtrvuYVLGMLjmJFFpqrfV9iUjJfArP8A1xBLXfMvs+Y3ixkBYJjLG85PzF0F3W+zt7xpVhuraOPeaawPAO/tHASwFvt95UN3IP7bqyKCU2opdsjWRR/JxHRid/sPdigtbfTcD45lorScW+8TATwTcWwCW0F9pYxQGzUKxQxnuj28zJUYFvsPrLOq21239uO8bVta2XvvUwWA5ZO+DHfntF3tLouPHtElKeA4pMZ7RcClFoNtePMRcrVNF47e3mEOaS6y0eL7Bx3gNCxG3m7u/fxMgkWe+fr9+0RIuRjvp9mwN9anMbnl3LlQoK/zMJ/Pv5uz9p6SeAbzBbrQd1/7KAG7Dt539IkNhK+UthqLmxH7+0tlyrsCQ1V0V0Ta+35mNAI2bIUUzVOT3+k7paMYGJIBttc0czmrUr+Bzf4litiEwcswIdRpvtAE6KTkvk+8KKiOUwFsYFcZZICjeZYdFqlcd895mNuqhrFY3gYFrhLU08l8RZ1KEvPKcRWrKispDvEQW12XaIFGV2+ffMEgtivg6PwAIceRl/vvT6JZKDswmIU0hJdHCkMIah8V2I28UcRirhwfwvb7p2vCKcVXHY8RW+n5P6IdBXSuiXKlq41/m7Pm/AKPaawi7m1fqxBBMBZx7/7QIGrPJPBGjzFEFvRcZoWl++4NK70DwuYlISnKaibCY0racDzOfHGu/vg7xO+cXBjYWrE8Xi3l4gvICzl7DzKNgDt+MCJ1eRuaWlfh7+YBoYKvlrgIxOrC5UVCk97hC7VKjbiI8KoorfFjgGWTpWqcdn6/qAA6YO457sLyXqL3MS9fql14MV73FhoIFvyFJXlnwTGNVpqIxEB9xySgePwPm+3mWrY+AKDRlou1LW3+tHiYIiVpcVvPjt3ivCcj9I76fYsCGHRvprl09pnn0t1joi1XEP8AG2TD5vRr01Csvcw7FglXzlvZHlkVUajN4AgNkA8ExdNizZrQ0VxCI2cJ9JRhRa1Q6wzUDBFy8dsaL26yiMQ2lHjwX+e0Xtq/qYJhbARQy1YXEG7qIAAVXZ3Tc2KNGrTedXnENBaJe2xQM5U7jjard90MYQHG98eDiW9Ixhsl3qtxWwNBBYLIw7BcUroV0r3tXcdVgHJO4u0qCxiCG72+xBmURXWF3ecdiEnqCB2QsUJ4DkhUSsqx+JHaPUuq8ad4W1fDgQF0TD2KM70eOYJSYB3GcaNnjiXHYzATbpYGt/T9Q3w9EihxcP4D/MdTX9fm5qvceklH2QlWVoBD34pi0rJUV+8S4BITq4omdUnByXF0HdcC7tysP5SVT8hhrS1on7SOla51A1HXtKt39veLQtSrz2sEtbWkIUXIVHzCVoJiKbBAP/TftGp1W+wXnvLucfRUVVaIsHX2+nMXejartx/Il4AN6S8jZW+CoHIA8jsX7kTY1Y8CPQokn2tYwKJrGrXPsh5LKtLR1S4q0Ep9+l5qqGM2tSvczWEh7D/32QQeqhGl3Bw5/llXPe5Hb0s9z9PUXClrHHSiX2/zHU0/X5uIEcRq9NEsQo4l6yg5N+LbmoBLTWeLW+XtBaHSm2+1pTm7GtwpZZvjv3agBagABLse7f2memk2zmowrtge2/tGvvwvt5PEoZyGWb/PLzL1CtJSq+/YRfWO9jTGj34lGxzTtaLqjujRoIsuRUbT5obW1XDcEAwNjk0BMPntCcuLkVyFdvzKxANvM8t9jtCAbCxbHZ73+JWuZWofFO67wqJYYZ+ajKtajwLzXv2cQXCW8djgviu8r6dVT9ArdSwwuqUW/Z3C2bxjl7jy971A+DAJZ94bcYi85Z8GYG9yiiDSEuXeAjuaxx/yXGvOb/2O4E/J/Q9TM53HwYDz/navb5vTl0Qg0GUCMImzEPssYa8kXOKnYIMCrU3VRLQp2R+i1xF6sY1ZHZRe9ZgHHZWoA2D3i4sP6XAW4qGp5s9mA0/UqFQUAViBAi/QhKrBVoj3a3QTKUfDRHEvPYhVxsC2rxAGDOSZlXHi5lamDyFVVwPYqoHiBcF7zNeWGDMCsu7vMymHvmL+qTcu/aE/s+D1inpXw7+CfBdTX7PzenKH/wAQ5n97xD1D0B/lhUmr5u40cveHoWpfCexZfYzLiVKu9F5olGxgkw6+EzbHTjO/bGmK2Skyu40CkNWGCQQqWkgL/tle+e3jx3TUYUAYZ7ACPytzQUndrUU9jJi3tTEUrh6E/q+Cc+m6ajqFw7JK5hO3Hulz2WV2yu2VNCCPrp6HxeGfrfN2r29SiAcD9FF9+u/7oW7PeRCP+kjxfUcd7Z75Xr72ZGxrJ+4WxCsBPbCUgYhyd55NfATpDW9i46xUuoblYU1BgAoDsVK3mfnPD3GUa32XB2mB7qqWmjiJfG1wyO01cRHYHvFKoNKT++agCg2ydzGd8fdFU9Cfj/oQ9DL4DN3qLAsrceVnlP79+qB2ayzvD/uYsU/ZP0zMATu2Kt6o5rvACxdD3INlnPW0Qm+RfEfBtiQ27TAfRi4raKYp3lU0BxzoGDPxH14MBuI4iNGLwTmu0NZhNWEI8t/nGI9I2KIDS1dZohFWjuA4Uilm8TpfS6+dLDmDA419zlnqMY5ESIkpLd8djxv4CicT8S6rdUu6N9FAUgFp4O88gGd/foXzynvRM/6WE4wVv1pM37FORtqTsB0Sf1vCG/Su9FPtC4OMQfSxY5EgDOssbQ+51vJ+YHPw20YGZW7tvmyiMVVhxpsOONxzJwtl9Klqg3HaUtEeAFLUNJ7Ay6zD70ArjDdTEBwsWr6QDTuQZg1uj4rvcVNxvyvctSg0NVjWGa9D86GQM1Rsu5VdCgy5cuMMXKtTeDNvl+ANIw489UxTuQDUL3lESUUeg3VtuJdxqdp1fQd0IeBRbDVTf8SIRsKfJmA1U0dWRKLMuV2JMfZAO1LehP7fhOepDcfNVbwwhIJcuKVGFgV+oOclu9syupq1dFF8SsIlyZ/eoKVIUVNXVfsS3NIXlWGx7hVlLhFsdsFajmZt24QIYEDyQX3oyTgQu3USaZQ7LTdXqoN+7DUNHer9D85iXEGw7m5SIWvl2TcFw/yQe8D3PufzA955o94j3ontliCxS0Lha0AH35WCg+Ck8EFCqQlg7quvKnqbwy6ukKygj4JkROIKqNrSDZdtOnuS+hzPxP0Q36CPsGZ5HhI1SGByvtA9/cIdlPGj208pGJTTD6yFOseDDIoIIQTy9S7JVfysMcn4a/ZgoRaFWpX3qKEjn3ojpHBrNUcS5NqWwO0ECQtoSX20zW2gyBc1cGXYFqYPW52ocsaWcDWZYr1T273ojYA+Rd7Cy3d7yPOqhcxWHB59DNj5zENNwp1KB7kRvumPYTwY9nPAjC2IXxFSuwBAjfxKZtUNstr6RFAW1RX4b1cVOY8lP5my6B0npIPoH6xz6QbaF93MKpU/rX+p2PtP46Xf17/UobLe/wD5S9/pfaCbG+yF0flUPTzd36PbHfqwamJaq46CNTN36dPt86A9ulbsS/YnsJ7CewngBFMv4meh97PuqomRHfiZpqFYXUqmD9oG9pxDdAMTZumDd/suKBErUXp3dpcpg6lyzzaIjSV1J+L+p61ui5cue2e3ov8AyNPt83MfGVOX+Thc2m6GrV4ICGGzN81sTiDHIcA7sWoGxQq9qSou1JVZohdxXB9xZSeXRz+xuYd5sEs70w+FguIocAbd8XUn4n6pz/8AG1e3zlAK0biAghHk4JVtRwyVf6kNI0PLQRI1odnYi/ypaSm6svvxH/OANEKpgDINFi0wJzMys3Zoq47r7SmU8XPB0Ke5Ps9TXcl7PybCbBVGA7DQSmTWZxs9jUrx6pvvmGzfeVc5do1in8Kug1LBRZhAWgCpg0B7QwwtoC+VaL8MdiaFPZz0J+B+hOf8Z+I385A16O6w6Xgh3lSe7EUUpTBycsbBh1ontm5HS2ako7UHSQblt7c4VBFFw21dS4QZwKhBAAMHvvuNDboMvFXDyI2ZYc8Od0s20RZlPZFynewTDKmmybDbVnQw95VwfZth/DDB95WwYZzNFvZGHDxvmNRCYy30dhptinptX4gv8tGq6115IewxKOwDoT8H9Cc//GrT5up9P0RpmXQoUvg5i+rD5rtiImgD9rLtMCPZIFaxjCt14R9MJWgErl3vEUA2q+aS5EFxuK9ezfBYyqneILziaWYrGvYwE7Ct7B7WSyCltxyRpDax0qZKPzYeZYqi0NQeg7FO05bP7oylWxh3zkEvfg4DT2HchVJCLx4oBUK4IhyLbm6aajppXegptFYuZS06gm8NdbqBzGraIFVapwQPkObRyvQl8Hv+x/8AiqV+hOXoYHQr84wG0o8mYuzg0RX8qPEYTUS+YB/DBVU57R5YtG7JR5kO1KTq1nEOyB95R+qQdMYl4l25hbtkJNAB4Cpzct6W+rCgMJI/Va3sHNkBCHGz8qC9hYIwSDADFdqmCSLYAsZWhubBR7XCl2z3XdaIhRxjsN+dDSo98rv1Ewhc/wCLjhHd066VR0yyn56nA7ekApzi/ZdQW7MM7iOOvqja7t957qNTJddzCWuMMPqo3okt5eSVE5lpk8Gza9y8vTNgsfS2GviCjYxNdNmU/RtFy4uwqezKKDeXd+gqWKlntQl82wuh9KEq1owKvtQAnoA9BG4iRv8AxDSbtprzaIrdDbNEOKRvotbrpgBQOLhNffZxhnKCHuQaVPzQQaPnep9D0FhYZHLDrEurdTt/bS4avd7lYVaDKxlv8lvT3E4qDhqmD6s0UEeERHImoiCNqB+Z5Tq2fiaEgyJPDBlD7HLH9uVXntemVTSU8/Btjhct9J0Cn7/6k5/xGG0O/ZhB9GTaZ/3C+mHUq5r4jxRFlYYCtgIG/GZW3wOZ+j5uoU9n0C0HVh4kexm5UqaasGY02GFHe4rXOyI1hoTdQXdwCVZXf1jzCik0E9vMNKGLav8AVlqYcgrkmaN+QZ8due7UzLR90CM11xwc8QCgp4BbBoqQHHehLpa1/gNIhrmIvSlDBVKFA0fb1k/M/X/FTE21HyRMF2jqDoJt53Uo9+w1BMVmrqGBhKA4ycP3WfRLzc/A5+b3jdZuaDkn2gIhxKBRs5NbqCrI4S52JnvlURyOBKpQqCVstzDbuLbdu7XvMgtqWzHrbSIYB99dBGZMlBBb5l1eL8oHe3hxKVdRruwoqDQyA5IeYRa9wk89E67OA/ZZTv8AveZ/UP8AcQ0PeD+hfphlATavPvB5d9jiC/dNrL92C0lmOykanY6CxoQR0kGxc0haKmHifQ0e7+hOfiHwgNLO1ORqarcmFkAaErttYt6WxGY6Lh3GcnjHAYxSBYbevgONfN6Aomz1TlAfa4Ndsg9pQlpuOY1RQVcEmKsuFYKYAFewwRRzVbkqbSQnzdylcxRrUB+xP3cX0B4IK9ugVTKTUIGGahgbFT20uyOxUCbhg9VwkPYhCEs7Nw/MJDukvvaWmolcbhYmPkDz0z3/AHk4KvPdiMThcp7XFWVb0D3/AD4QRbtcLVZUs6AHos1ncPMW2HwkIdNYDXZPdL14AXnoT82HP+JShLVXVw2F7FFINlqoYoawjjtO9ZYoCrDVwgFBSvv5YuwwWuyFlzUIdoBlaQ3yuy+Bz83ghT6LGjWVGbum0slY1iXUIaAUJn9joQv2R3vXTFIfcltX0jMWmv8AYS+8z8hYoP3CVBDY6Sjt/wAOGWMW2ZQZVPC5WMAOiiTdntWCGLWa9XFiUJNqkX6+R8o1EB2Z+wq5i0F3UOX4TznEGlsyhm+04YLxsGU7wgjSOfcPQT7R/wAYpJs4AfNRGaYzfwtmIZ3DjK/l9kCvIeoCrWQuEO0GzPhuwuzs/C0fNxCn0Bgk4CorY4nF+yw1AWCJTrI8LE5tgY3a1MSJBCFnO4KirgNW1tRIwBXwRy43267kLuflMBuGMYAyov2LlzLgO69owaFTbICtEOIH4fyYlNelKeuO5e656Gb8ZWIoc2CLFGwO70xwidzqT+x4f45GtAYa4EGr5qKNlehZk6On3wnD7ysWBBqVEpr4H6Pm4hTNodGxqtEDSfylirEYvylJHLrIKWal9I/nBlfAFyzvBKnTgSYjHZU5El94WFfVB7ptiIJWmtiyceHY3D2Yi1qWreyob2giycJr6ko95Y96mybTo6ohttru1XooHT6pgm3fDu6R+9nXHW2dwxKGxx5LwNPYplhun3ht2WXGDk1RGmalavfqJj7n6Rz/AIwKYqtxA4VsV3MTMVfmCn6H26DTN6Vj/wDYeqsurbQtLGD9d/OyIUzbqcvSA81csz5ZpVQ7kCC7uWw0qK8FmNZA/YsMyL+8kef3ftCCAIQ5ttl1wIRU37Um5o64j3hrVTvC0mTywl5VGzAavYsm/N0u+h5il7xzQS36FeixdzTiu/3LT9GCmEbskROYx3mGpaLbmprYsMO153XBl2aLvkrPdJUqpbJ9V6kN+H/QnP8AjNrQJh3ZS1QytRlSinuRqbdAtlxxNBFKrMX3phpN57PWYfm+INJs9U/VVHk4tjQeeHyYqU7mvsKa4sH9iqgGyfK+BMuePI0S6l0z2FVmCi6KjKiwVOgptir85B+0BeXgCig6mPJYnld0kDob76d0eQnGAM74cJbTD0MgI3zBIIKwZPv6HuVwW7hpbTcAhweMdFWw4HLpwjSOx1O0lkjBg3dd3DEErjSOoAoANBrqTP2f0E5/xqq2GY0XjjssfvJz99dogtBSoisK2gU9yByvQUfO0QQTZ6+HpGxNMDD6VMHeoswQ8Tb9YFSMJ2/QFqPAPcOyZyDAXUzFgq4glY9g4+sOD+pcrdSrQQ1nKPkg9Ya8jZ7w4u0r5SxA0FsY1uVyVkyryL2ictd1G0u8O/R9+4av/ofEGadVPxpc/wCNRyCdmHHyhrD2Y639XsdvRY5rkLYmRUU5U6xYT4Bs+3zcAp6ToHlL1I+rcQV+SmEm5/ntKPlanVO5FNK9AynsR9BnLVICv8fa+7H6C8GgyrUIyJCjYnxcvk38ZZc/4+XEuwtX7qZs9Bt2UPcwFMAI9rfA0e3zcAa+hatWGtsV2GAZJ3ZWOCtOxUPSBrkZfUUwDeOdYBddvVxqzpUVtGG2t10VlrFrshfxMHNEdx0yea6sV011pLRhbqeCUuhZXY9CfiQN/wCIe+uUwlsRfPBGkU2mdshrT3Qm0nXp+bkJPiUupQ+0aHJEqWjSFlG9n52ABSb9Xu9LRssEVNXt98paA/rmY6Q0rmaOUxp2RzOJ0Xhi+UJTqVjsGAMN7Ep+F9LeCHQ44uxbEuoqxFaobtQ7EQKDYAvvWLlK31utDACtxzkUK4ItKYD7wG2e9eUaj+tPaig00E3SRHlVA2F2l1LHamNjlI/W+61pHLcJ/Udo5/xH5E9ONbTUGsRVw/jRKU944aJwB10B6wuD3e7zRc5B7EGeAzdZYATNI6+CB+bpABN3qT7ROtGOIhQE7+F+1gR7xKteLcdSnsj2fiBAoRooozLvNDUAolp4tguXS5X3doJn+wQ+G5y/vxLyiob0xibTldXKr2DTLajOJoUm5bz4DH215G2CPBdm7GoGrMuFXEVrzaIL8/KRj36L/wBfR/iCNzx5HV1Mhyqi2CirFYV0Sv8ADh1ZsHxccIFygKpYQ837BxK1grHs/B5+b8gibdRZvKO9AkdCd+6Oy2Yae2nuDOhP1hcTspncGIkR8AgxV9HYyyRtK+zgTlcKAmOAs/8AHEd0ChYfhmJumFHdW2+hyOkw4TzHy+s4/YNQXmUSg4vy+Y4MNGK9xwwOGDlsTscUd1KgxgGgqAvQNLmTp3LF7yRtbd89NulnP+IwWdtfUpcHLWyAj3ELIYFmwIl96et1DQKw3hNMtUbz5mN1mHl+Dz83hBHSf/EJl44rt+K//g6K96bPW9H/ABrly+tkEdcT+l7wb+K/5Oz5uphY5d5c3NLne5d+muPAvsv4g2vuL/Uva+tTP+JEy2n3P6JbLV027/Cf4B4OX3OiFB3PIng6DxSziNd0xVwojD+rmK4uGB7kR2E8PpfDnhR4wxi16hDxTxzxzxzxTxzwzwzx9F5E8yedPMnmTzOiZjsRBC9AQU0nhJ4CeMniRBxrpu+bq6l5VHQUsJ0ptvl/wQjDewl8JbLZbEn9LEu7VQAbjfTf7ZSW/az/AJ6f8/P+Fn/Lz/j5/wAvP+O6W/4LoQ6Wt2Zf+Fj/AOTmb/VnZ+xj/wCJjh5/bMtnq1x30t6ENlfaP5GmUrhUL1an8QnuXtqVLY50QEreXM/5U/40/wCPP+HHFHS48S8iqRGP+zO596J7heeq7mFGV/zWP/kM/wCczxfswLX2Wf8AOZZr7bH/AMNn/DZ/z2PG30ZW15p6jZ0VI9vm50wIgC/yJpNfpuIFoteyYZirVfWeJCAOxO6Fzwo9hPCnhTwTwE8JPAj2ieIj2CeAj2Ji0R7aeAh2SB25LllMplPTaAQY3ZVWuDdQxaGKlEFUmp6KZ/Y90VZL5fqz2E8glOxK9kr2JXgJXsTsHSV4JXtKxXtPbPBKnErKdo+Er2ge0xvG7j6eEdzd83jH5Qmj0ukOP3pmY3+6GN1ULTN1KVrM9kp2mPE01ArOCHwvieyeZKz2T2R8J7IrtGHxnslk4k7l+jaYQ/sY4LzO01Iy5ZLIz+7tL09/7sOVSzxL9uk8ZbtL9uhfkl5ftL9pXtF1qe2Lnsi4rtHw6RWw49Ojocvzea92dpolyyWRZ/W90ygx/u2BtFdo5AYnYC+ZTFAs3pPqRLVL8zGqGSiZHFagjWC8XE3ilLNgHeZcFsRupZwQ4hUxWfWHmZQvXFR5ClmINXMGiXOPnpZLJcdzSCJsW+6ExyQucE1PSq/rYZa9dz7sLFgVA157QPP0hzrmJd3aU8hMF032JVLhV49kxC1L97jDPLKUvXG5drBmUusRJyKi6uHDR7xqsCXumiLuHR2ho9aqV84/XL9H933RKeFhq9s3KH5MQyLt32lFjdUx7agNgAPMrAmrqboZBqeM1HgN3UcHvuUCI3FTVVKtwATSrioOiuHdzA5OsnEqVhXJGqlXWpYLAw5uIvJRuF7ZLmXLl9Hc0mp+1/sqDhd0/BHRNEv0f2XZi0oF3/cBx/JECmrwkUyw5KY0ERmAouw5iLFlWJHiS41q6pt8wZtwpcooTPeOLu7lHLPechNZi1LdCUVRRm18TA2uBwTh2ZQaBjcoK7zxMgpfaCmjvUYL2EX2DouXLi6cbfm+p0NEv0Ol7frjHN5MAGD3IOebjZu2KbY8pYC0CXaM57699RWjezFimCqnuUdzkvvNac3smQiqYL3BzdXBkzV98wS3KwtCmLmrYPKXXtsgeQi5LzZHku+t9Sx0OBcbF/wR0exH6Fz++7MLaijYfAtYmyi3i4tPjJLFL9SN1s03fLMHYEohTVLbtZYDRzuNtGN/WIHK33gjJfsy150zStcgdoPOksuVYtMt+kvNlTP6ykcNpHDZlNxzOe8W1TuCOjCq/wBJ+Afr1zq/m8ZdNHS5cuOv6OJiZigXV+8s5xO29y+0VZPMNu4d5be78xqQBL7SzPCVM2DbqKcluGexLXl1LXIkFbLCWZgFT2inZ4QeqvmM+WLv0+ZrG86y/aEP8AqR0da+ufvP0y9PJj92Cm2O0drJYjdizPaauc3qW5jA8rLBzFq8+0EruzsfpFYHbMoO/Fy1KLDX9Mue6cQr3iuW+0ELkj+HnmYIvm5os5C+6fhHp16ULfm/Z7dNXpNLv+mIalW/uBmHjLuXLpBmJ55llyVdyx2aj3SquWng8RHYO9S16eWHcMTMubaPpKIUYjlSB5rVT2KGAKDnNRRsDHiEaXXKw7+kx36vyGVs0LyQUaTjxSaHsdK+ly4/6XERf92WchvU32HLKU014galJY8sfo8kPJ+sVc/QYTe1IOJYEvFWxDksE9pUG7ZlqmL9exEY4DKxtzzeZUC22RFQ8X+Sz8Y9LroqF+b9nTV1vpVN1n+zEv7v7nYly0D7RR3GLUzQVrll7gGbhsXlg6zXSNF8wjslSHZiLMVi9cO+hqt9bZb0de7MvMH3izTa4/Qj/ET6WX9rDFkGMT92JHD4JZi+Jl79oON5l1iLuclNd5dXm4LRmXRmWkX3RVcDeVZ2jtEU3LOZZx95Zq/MR5l0WtO6ivYnN7p+Kel10wF+b9nt019P9D3dCLeIUIWG7s4ikcjX0jZMpiDtX0jiri8IVBwag7XNaJlcsrN+OgxfEtt5OIr48xfeLKu1Wcstlstly8zGLP8At4nNlCN80BLDUWJZ0zLY/wBTtFf9wtg4H3Zi9oqONS8+WLRmCOI/doghRvZLa8x5My++Zd9ObK9poRNrq8RUVTwy6ljmLhv6QRnfntLcx/2J+F6XoqPm/d7dNZnpmZmd39FFXfBp3jk6X3m5kuorjMvNELis2XNLmagW9y5cvE8n2l+UXEtjdxfVi79JvpeY9/1QAiLr86OjT0/13ZjFdN/7mFc3ZESxzLixqCRa1MpjfEaVw5vvB95txiOWuNWS27rphdeTbG3BgJfeK3EGos5irvrv7p+J6LY9CUvb5v8AxumvS+v9l3Tkgta3DR0rpmFjKaibpa4vryxjrpTiu8bwlxdMsv7c3fpN9Ho3cSn0Y79Fy+v9r3RULu/swYM9obqY46faB3zzLHWPEQ1Lfp0vMukb453O9cTMeh6f33dPxOmZn0bPm/f01ly5fR1/ayhlauBQXHVJWK9MrFY8XQp0PBKdvQA2Ro1MGrg3pcvpHp48oyBMWgIoeJcx1/se6YLvSsHnV7nJ0KbXbKTZPNHkitKYbtw9t0val3ae30HwdJMYV2iuCZj3/tPwul+gm35v39Hj0lHX3UKiJ5Sm1tYEVOWBNMr0ajpzLHvo4Gx7dfe50ETzQVM3n0nQ37IfqMvMOlr1vpw94/umy05X9Uvm0hlhY8FhPJKOZf36HriAoED3gL3K95m3PJGXbj/J0EhwidFzG0v9gn4Hq5m35xNPTxZxCE7B9sthdwYFlst7MtLZctlsWW1LYrLYsWXLZcoq8APa45646G4jN21LPhm4C5ixL6Y6OvBfqKvW5mVQZG+0vLy8HL+8t7Rw0+8B5lvOIPDWsy3Rg2b4l/yy2K9or2mYLBdnD/if3nY9RP3/ADiaS+lnRC217AXKooXhViU8t8Nyqqb3bndD6xUxAU5+/MJx92NuaPDPvneLJfEFTFTDJRT3uZclI8M+G0e5DXhtMW2Ou58xO84ax1L+zA45VHuNy25fo2n4iYHif2udBFTHWyfgeAC46QMzul5gttdbtmhKWLCXtQlNMa8pzJiOSmTbn7SFpa5vEdK6diWbi28esTLWLvPKpRdj8ERrCxxGx+mxxi7mNhTPMe+iUD7hmP7R6SG57hfziHpys1/vQ3AsLFTYchh07dPulpbvLd+v7vWe9Y9HNSc9M+hfYzRm/tZgzWWQZfR1bAbaqrvioJij3lbfwdOL0/8AM119Z59N79WldLDDDGE7JmiWS+lkIfOE0e0YHpzDv+lg2rwj8wwPr1Iz3WOR/mX6A0aipbop6wWbR6b4ef2JfS5fS8ntHXso7s4j9rzMis63LIq8S/mwtenZyRygtsKlKw8hx8QAFOpcYYoREz9yKfQPSfOPo9o+oEJpan6RUV6L8stTFrynRc93Q4bz0CA3fiZSkvopKdCh0PQpP7Zzly5cuXLyRfaRWGAP6G48xS5cvoZux+iWi5CWQrL2m3oF3LlvULtqwq89F16Qegxn7ManseoQbfN+j26HW5c2DyPxKBdj/KUOyHGSS05o2xuF5ZpLWW8C2rMlK3N+XOuhNq+0r3GO9OCp5/eV7XuYm7ZySo67ERaVneU7QF2KOWIDVxGP+jmz6BaK/olHso9Ez+m5jlEoqC6KdBFupqm8QvEW5BCUgvPDBSwGY7omWsQbRcfD5jXdkN8N2xnlgnJMO53qRSspHhVncuLxuBjEJdpr7EHpfUTX83/o9Fy5cWX2ZX/Vylu3g/eGQAAqAF/cXv2gFNXY5e8Lml3LAdxcXKLWJyw4zFzEPdiXHkVCBkRSx7l7CoC2cixembMdom6uqZuUdrrLHN9Vks4m1rCvzBmkJGeJ9Tf7wmr6BgvoixHZIZ39rjnMftDpWdBnZ/0yn2YQBfmkbHJD33aApoxzE4R8Ic+vLNAMaOSwICUOUl1zk5PaBYMO8QqDNL/DKG9fdMb2HcLLVVIxTyJ4aiDGWLqCi6IM7VxAZwmpS+1z7CbsS4S5fQTT83mq+Oty+hY7J3jdk/cgk4kgOMIgCmYhng3VMQ3yshQpY5uaKFvaxMrTBSmpd1SGjcGQrI/jxAnLujvNYu713+sc7TPaBAbW+GI7wQwyqxla05902DkIMaNYV+xHYYbEuIU59pc+Gow/ZQwbh3ysrKw0q64guaFfhLLKeD+4Bg94GV7z39GAvc39ImUL5gr3AuAPLsEAQedJAa8jplAyq+P4hQule3iWp7mu5ANjSfeNgey5VOwXTFAGiLg5YZjY2RFsLxE/dLigvB4GUEoKNEatd9iNmkswSo5AA3NgIQ/eB09iEDLYMe4TX83tb+OjLixhE+7TCrj90XJHKoSy21KItIDw/wAJy20HT2iOCw4IDSrDUpDOU7VSHECwcOlgCltNrfklgQ0yiCqz3NysDy3cC+jidlo7xAvjWmYrQA8S6ayacXMD8u7lQWy7SNbLNEAzi1jBhIdyYquW8T3QfeWtko/cohnfEo0uVrtFU+xlboYMYKe5iO5npmfLWgJQfrnnn2lJGQQ87sQpiKwLYXYaL0xx2laQjYueTMQeT9aiAWN6RWmMBhf0Eb4wcd5ig7LpOINvZ3maAifdHlWWIbJVHUFABpqIgEbHG2CVirLIgS26BL90L8QKQISQRmQTA/N+jqYvUMGVcjdiNo8IB8IHvNoCeGTA3xABl5zmXHLvluVRVvqwZRobbzLrRB2uY9+eYbyz7wN7u1sqDVvvF6W+buUaV7WhXTm+WZQsR2ivi5gttrO4bA9ssLaq5gKFxZuVF8OLgucuCUtbCZMA9idwJixtO9tCkAzJDxodhZuZs0lfCVeqRu1xZMXI0fzANY6alOqjcLtJ4sRFwTFqYcWdm5V/6YnVX3lWVfvMd6NZlmh+saKyd7m9PjLlTu+Fgu/BlgXKr3gLDV5ii7/eC3bJ3YwXcTABT7kDKEvsnctHlUyQO+RQFRRKXhFj83r7deiWKYlWgLWIUa8vf0ggoXBgNa7RoBDMpwGlyy6vhCC3Ye7LXimNkNYe0qhb8y7wGqhjLvie+oF2VuGrWt3LX+YP2S+0svERusLshbfH1gufeWi2gPzANFrG67SlQPOf+4WYf3GpWc+01rNYmxA/foHa4Ny2veLjyR23xH3+sFcVm32maI3vMPDw/eU6lta1UsqoIFEZp79pbwCiApfZKpIuc1K2GcYvurFKzvhjX+yN0ZaOSYsBmbaZVV50w1TQXAu9qQrF7qW2XkllRzeWMLBy5IqH2+DHPyoTX84M6ukRcd5lzX3IQKpue9mcseDRE3Ay1XkjEAlxj3mBwniUKDbFS1pTKBA8D4qBsjYVAbhSk3FhmqhmbBStSpbhl9Zl3SkIUQRkrmtv2R23Te4LmXt/WC1WgzZEKa5gclLBaYUAcwjYh3KjVijKNF3uU0LHdnZaByRlW4VaylNgs7SlM0byTBfYKNkF3BEOhp1BVRRpbcCuI3MVA8zSZymVRBYlBphb94AD7rGrFImXiDcNMti7oa0bJW4Iah7kCnZFQMLC3lxLX8zKvTDLbod4Lba8ag2m8UkPbE+p8ym7qXeUZCYYbnwwN+6vTT83kg2cDCaQRhrxMy7AwcQoTvsyh3dxWndy+RyAVE8QMS1bsWJBvCWRW3UvfNcsPLQlBRtqoN3lUpuC3IsRWozvh7wGDF3cP00EscQsYaZdQAuoJeQlqoAO7mTrZfZUHT7S2vMunIxRKqChcbhV4qW1LjqWmBs4gCGqlxvgsm2C8TO77MUBXcug2y4b9ppSHiPd5pY0V0ZrFS2W30PYy/JlnvTHZls1TL1Ad5SuIpaA4VzGTsLY2ucDUQORZPqlWi8TY8VMmjZhei7pBqBo8rlKfNyr2uiW7PFbTGCOU5T2JYDvDsRB/wBs2asNMEvi+JdhnG5vbJk9rJZiVwEqttlNhDvcHNoXc4Cy+zMa2btNDfIVM3mxqfrjvMU3MGyNUS1crgllAYe7NGWspTTYLMRrFG4Xed3hg9wbvywVKcqJx+veLqxqGN7LK5gq3btUxXh+9yy/EFox5e0tVJ9YhbZjanBdREXSpK2vhjbZ0amZfPH8xVbO4HtcbxbBLPC4cw8MvkcS7ap4vU9+dRLLJeMV57wy9gliio4w4OglZ/0zKh4nvfaUYxC8CIXQgqMCaRmxI6hmftlACm8tdDDHENW7zOGUnTOX5u/B6NdxKbMRkG5BCLipmA13mUe/eImxbLTNE4JSFM0lQmBiWZtgiClvZiO8rblZBS7F1Mo2y7AwCWxC+RzNAVu25Ysx2+sxcmeFlaFCuSPjbEdgULMk2gdl5sgKMWuIqVZdTQdGVNsXS4qVlm2yUl3zmb+kLE5vEsWOSUptg1AwapjU+8VL1uNKGuZX18Ru1lMpNLZnPLLJWBe4UCthczm28fSFdsGPrMB2rD7y/opsg4WB0ysuT3i39OYtirju/u+egK2PiHB9mD207h76zUG6D7zt3lDJrE3VMw73MXWqwzinPaVR0GbH7AE+oSlPm8/Bh6A3HUMjYD9PHiJin0WOeypZSWvalwckzyxXAvtO5YmvaKCrpDG9uq1EizZwRPam+JZcme0cG/FSrs5rUbo4bxEqjvKjb2ImN1AoA07vMbLUuypkefJNtgeP4YXzSWlnMBz7xZVclqbLoHmoOPPEEZWzzsrSSyne8xN237RWtuuIoveqCWeYU2iKWex25gUqOeGVi7tBv/cbBymorQvYmm1upbTrskE4VcpvybjarVdghd2hXdlIye7L8LAiQLKy+URRSrZ8kw0QqqhWzmpW+eYiGaN4ncosl2NbHDLe+ZWnKbc72+jL3fMuYMzd9oCq1LBNGTxVXBR3d/N6PtegZzKm2t0P7YVtAW2WbGrmFYmTBUIPIoObgSdAM7LnMBraI03vTBKoveUyZogMY9maaY3a7VUaqmCITJdRoEwcEwZzXfoQ94W+Ty7Q+pqyW3YtMwP0xBL25M4L2uPaMPFV7St8XKo2hXtABsHO2VdUBNR7F3uVx7maD7ZltBnTKozEGazmyH3diVE0fVjRF5O8Afd1HJ3agFW7SeCruJgLBZYveKi1vi4CmazBqVNYXzLIMuxGGKRAozX0mClSciFd24XF8bmsVOXLt4jdAwbMWidzDL4NVV9EtNpvHIhaotrL7wM2qD73Fa9oBvecJKKC+8dohKeG8M1/N7+L1MSVkgTeLmSFHaAl1REord0XL6cN5joQZzUahhvEtb5mFWqWZDeHaVjQoy1ao5iActbKjYvPlZeEUW1r3hsuG8TIaXA5BshvfES3vhjgEXWgghjbUHNArvAwBe7gprNcRVS29g1LBVJtPreYcgbd9vpO6FgbtlRCwIxqrPzA0eRcRbInBUvyvLMulmYMnBWiv9kWzK8QBeZkWqZ4B7xU5htgHxeQnA3e4yNBWFiilwXk55qZUXriNFFUN1Ch27y20X3RVSrLCVa0Yj2VbbG6qyoAezic2GWICZluNl7ncW4aVM4Z17pDalVkvmUlVQwkUKAB3Nw2rdO0Lc2hmMJilc1OxV8/N7+Gwiz1VmOu/ZDfavE0Z+iQqrWxkZSW1e1SrjboKgtXTAWxC5VC8JbSqKstXcE42TFLFJdliGdQ8HhGjWFmMOfZlbdu0tGxiHJXeU0M8vEx2ZyrMNNjm5hrd3lnfNwalspfNiKtuZFmw1LsC8kM9hIl6wYzLaZdOIR0VZS+Ic17KzVBF91tZlVuqnNksxkXEP0NxtrvdwbGbhujncDqPdlcQ/khbygDyGJyW3cKZVqUsVnmJnOpjg3slDdbqWhrF3OwUQptX6cy3GIU2mGrg2xmYPzK5WjN7XBSBq+e0LwtDiNZxcuzH2iaBw679N1/WUW9vm78Fh0PSrYX64/EtunzKmqSIV3lZUSHCYRptFTjZLphhqIY3C/csC3a8ME5qJYV7QJu5m3BApjgyxtYPvKSLX394C/b6ZfR3odQDxD9pgatuWu1IvJcauUqj6ywJhNscwbiWzEveZZL3l9oFyw7iw5x2ccwdbqoEcwxx3xG+33mOmU4jQxUzzdRbuyVi3c+kEOhzO9SBeMkOSZOUxxK94exnmF4J7TdsUbV8EuxbriBtLcrRSqRCyyBSVlfWKaNcQJVfW5Y7BlYrVlzH6Sa5v8AHzd+Cw6B0DMue5+gjoDfN9GLjmLi3FuFljRxBUkx2+0Wsso/MR9YWazMmFJbLQz9JmC5j3MTc8Szlm0vxBS/XGcy3vCTz6aErXTny1dVOFxLsb6j3pbvLe8Fyzz4nnl7t6XtlLjRDhhIMeJW2nHEt0Wl4QKZlrgdj6xeTFyi1EJg3Apc9rbMYXcJi4PQbn5u/BYRjGE+8fpHdzmMbiMpuBmZdDNMtTiUlStTNzeZmBWY2gcEbm9+pXQ9IUxidL0oiBUw4mzUtjblywmd8z3z1qyVMymUymAxtlNVqIymVKlPQ6EWxRoqETPeV9OgbsK6jmSvm78OYjKj0N+6fqJEiQHMpcAgJkl9wmT69MzOz6+qvQDV8SuvMSUeqpUrpUrpUqV0qV6KlSnrUCVKldKh71B1wy1EjLvoHYbq4lOIbhTt83+XsRLWPSicwv6moYnRlEAlYiRLlSiOeD0V0qVKldaOgV1qVKlSvXXpqB6a6UdK610JUCFdQlEw1B3JZGJ++BNIhG+Pm78BnLHpRKIat02/EyY+lWI68yutdKLnMqIqPYlrrk3FQXaWlPZ6BVzLWTErpjonoq/TXWpUplMt2lu0p7QJUqVKPgtnojDoMbAvxyTMZhfzd+F0ZRKIGYU8qkvU9+ivXxGPoNyszEUHllVXYHt7VGbecuTf3RTQPYTNv7UfxBlP1Amaz2qJTlXvidt8KJ9LijjBr7pPYXX2tjOD1c+sgHBfzURQi9pV1P8AnIGUq96TtNdqQ/3tEu/iQFu/3Eq2v0/9i3c8f+o4yLWd8Q0HYo+jPQ6gxXnpOhM1CS6ntDWcvm7f7eipUp8SSxcfQOh9DSC7wN+Zc4308VJDAZD9tyhbCiV0zKlRJUvT/wB/ggw4FQr2u/8AA3HRAYSpUqVKlSpUHt1ZdurfwCVIq3UhO5BbHD/c1lAX5u0Ycvd9LVBvB3hAaG1GFdR4kPR9FKFoODtNTXBKrrF8FgyChSW6M8y/dtW+51fWZV5Yeq/jvcsCBXAw9eziYyXv8AmnohKlQgcpZoIUSV17djDG06+b3t+zER9J0RRwUfxF3P3c/wCvn/RxB90QqkReT74auC7ubdK9DxfGumuXI0wvLy/aXl5ftLS8KtJKCKx7V7V1QlMzz6K9J0T3NEhjqDl5eXl5eWqXiuL5fd6cdPactFHEtc8lHMBNHf8AoILbe4dFIBzP9v4nlwA1FjKBR84CYF94YFwd3LS2WlsuKy5bAGxlgAb8D5IwHjeGXv8ArZWX4Aqf8dn/AB2f8Blmj7Ilez2ltWBsSyLVXta0x2BPFMCMn7Txo8WDtPung/dNFu9lHy/f/E7KpqlpYEJ3b+JhD8z+ImZ++/iWa+8/iJ7+8jTn7bL9efDEd/YZXx+4wX/hP+Qz/uJ/3X8T/tP4n/TfxKzP3H8QsaUzl/E4H12mEsH0gbkJzhIcATnJuPCPf/yXTA0WFBn53LzH2v4SqqoI0brtkn/AZ/w2f9tP+ezW6aMVUp2ZVEC9TJuODUW3vwJgAAFBoJz6MlgFpcAUA+ctPqfSrzFK19h/Ef8AhP4jw/ESv/AfxK/8H/kf+I/iOZ+o/iUt/YP4lcfsH8Sv/CfxP6Q/iDy+2fxPH7J/Ex/4n8TH/ifxMf8Ah/5Pofj+JZ2Pt/5PoS/B+P4l+Cewl+D7f+TH/gfxKYAx2mhRocTLCvuE/qD+JV7/ABn8TH/iTHaPoSztLb0J2Q/iX/w/8mO32yu5+kr/AMx/E/4z+J/zX8T/AJj+J/xz+In/AIf/ACYmD7f+T6PsfxH+lfxMcr9P/IDT9k/iH/in8Q/5T+JXf/Q/iWH+h/ExU/ZSrNj2Sta8BgPYPVsmz3+c8zDXofW+mpujK6PW5fw/wYaPind1pgbQFOjFPpA+Dz9/nRv8ItMXPSpUx67EiPQe/wALGQ/AfBp+Bsmn264iEp6CJYQfgbspn5zFB8FetehS5ZFAeZcuWSuj1Hv6jrT6UNPb4a+mkRTxARKeZfQyiugwUl0PXszBfnPR8Bi30OjcWDktQWx4qE2L1ca+8y2fZqPaN3hHDd2DKctvFLQFunT1d11RL6X6CfdE4PY+AD0fQiwORYa3xqsfcxRxPdbBWsvaA6PZ/wDUcjmFWFd++N39yElfS3Fe8o6cnRVFZD1bPvMF+c9HS/UvQOrt4li5jJhX3S30gXpguUuSalDbm5m4W3ZLBqob/wBqK7Zgm6WdE+HeD0rQwbL1A6OOoTvMyHg7wauuw6RIAt4eNMa0zb+sVM96iUFObzDVAF3FHYrvLXfuy4lS4HOo09RXTgh6qN3Hl+c3j61CZgdFlmCfvAMCHvrxAbH6TJtj6T76xUWWuSF+iNkJRVLgsMMEmETU4S9R7efJEjH4An4p+4aeuq6LfXOGpXYgj11t2woAKI7ByN/viMRxawljdRoWlqu4yBRdEbNJjcZlSbG/d27I9nXp9icLs30F9Bpj9XL3m7856pfqUIdFBxORb7S/dL2AtCq8RHycdnv9oLfYXBxYR3TrMpcMlhGxnhHfuZG2uYLm2X20S8BSzcXCaR+z7IhBVgJ4c9HoNQ9X6v7nD1HRwddQRcK3dlB2IAcyK7naAaae3EUbsfhPcaJ3lNdWE9o6XTjrGMW72wEIBr0+qqULk8HHvLYGBsid1XcBumC9S9iMMdkZvcYvVszd+c3ZfUxnENdFtwAqwTR7/wABogQ89hgrbriKug08WZbR4viAhtEbOg3KoHBgueDmGaTSPJaqiX2k+qJaVQowaPeJSgpd4lARJ93LfRYwcegfV+v+5wQ6c9QVCOqOgx5zGCOiO013srzKUqR5cXjBimAoFb5KYjF7IbfEVClAUEWwWWy7Lj2ULLEAcQtxv9eGLbRKcCSpD0GOizDXp2Y6F85gCHb0sdehcSoO2FIgGw05Fic2blTJSobjcytpRAaLDVRMuGUaLc7VzUQ+ANw7A9l8EVyGD0F83M+mJg6wuPYxdH4D9X9wyPSTTpv0KxCCwAX9iXYO4Y+jsjM2okwvcZsbJfrhQYuEgGKWKGZCXLeo0GoOXxyzO1m4lij9YD+Ykw5lvcScoEf0wr7AScTWXHmaenaEq3zxsV68dDAFQsdwsp3ZHcl2MzIDR3BuVW72MaB0mp+gQlTmFcBNKVm4JGSgy48lQxAAzjMvLvrDIi8vEN9OfXJ+r+4aekhDoG4cTIWLLOxHYWXhctLSRil0jkd4POKdRSUsDXmYyNs7SkprhJggbZ6HZA4jVK6JnpLzmOyjRm6pvyWEcPX2Yi2bb8dDRjNvU2fefmfOev1aelnNQ5JUv6tGaYnZSOE5LEItpGy1cV2bbXhgrgF51KgOEe/YhReXkdT8oPdhKoovDUzASBfsj9s26O/Ux0/Q/cNPSQhN+g2Ro1cOXl0DvKdv7hiDYPfqh28kLEWrQ8xqCaa/hhlUNBQdPX1I6YKZhlblo2XmDhe10yiAROctgU9rflNE0Yzb1Nn3mvzno9Tr0kNpVpMM3JmojKEWgmz6wtilporEu6ArxfEujRBcxaBqblyLIgbZXxZC+yNusvAIUamdj7SzTUpmw5ltLTn78HQx36tA9P0/2Q9MQ103dBxFs1qAxSXk1cxVOM/3MCyMFpZ9tQ3FZNUb0ZHdjy7uNBDpVKql0iJtqvNUe+gWMN+5Lo72fkHJAsUVyYz5hc0B4G1lDgAqGAiaem3qbPvP3/Oen1PQhGC7O+I2CymvaV9vM185MLxya5vAjtJlX7mvzmZzxB3BbOxFRrWld47yyLOcKalrb7GCEFOW4wEd6bgN9nj8TB0XNfA3+zD8XpIaiXkXxFtHoald2ZRfxCDi/CrjiH9amLAKDFzV7sdDBlLh0UR0Ri8blOHU7EqLEo8xNe+0vNvQY9gI5Ks41wxxNHpt6m77xBa/O69GczicdEiIduHePDeF5fEABQNn+yzhBAHFPpIoBqtRqmZ7O8cILaGFA0eIILZMGAUxZBVZYtPEsI2OJTUAYAoAB2Dox36xP1/2Q09vSQ16HM4QVDM0/bKm7CxYfe4quoh2BZVSkmMLUV2mXKgInBV3ijkM7KRyYhohdkNm5I0FGqZX9ckAAXWAcL4j127T6qzVMFu/JlR01em006Z68/f50U+BuYbs9AGxLvdzEN7BqLu4lreYOgoGucbSUtorGSYCOgG2WCUgE7NS7AZadg3Z28xA+diWWg6RlXBVflHssy8c83IsFB0Y76z0/wBLyQ09vSQ1OJwGq6G4ah3UBsvkhhvshhPaYPawaPZQzwGb9VQYFnd2rNexE1WGXZ3c72bV91+SZABuXx4FQSlWl7+U7PKO16v2lEIrb9OFz10emxNPTu+/zyWPRr0MVAJsl6/M2e0Ld1yOYEjdvZqcirgZCxRGy/4xAKOwYF9opc/SMLMIT6FhdcgbZWbqvLbKDqx6pr0/r/shp6SGvSDNzsBYPPvLLTsbRxJnTYzYDwT7HZCdZV90s+zBst2plZxlIThMneu7rEINiyvsQWijrqw1NE0PTs+81fnkenENenThanHXsGWec4ifkrVMo0Ve85we/RR5oPLkPaUUADQQK9DHfwP6/wC4fg9JDXqBS7lRRdmkenwHE3iPMXtLq0rOx/iIRqywljc4Rid5wJtZbmBXoZbpsTQ64hNn3mr88r1NepqMzGgHbdSmVAPUzb4H879oaekmnTZ6RlkuZ4jebgYlf+Eb+IHpQEu4h1DU29Cum77zV+c8/Wroa+ChY/BZtOPX/N/aaPSTTps6PS5foXENEz6wJmawm/qbvvNX57Xq+t2R+Azb4H9X9zT6Qhrps6PoOrDXwdem/qbMxH5+XfrcvwX4I/V/fwEX1HXpuXFxDT4DHBN5p1uZ46c/nherrpf+CYub6Oj1fo/uafSelX63UVnUz6WboTeaQ9Gz86L3vrcejLjCMvpcvpcuKxcsly5cuXLjHctixBlyyXLj/DHjLly4MIutfSyX1Oi4Zoly5ZLly+lzWIpSqGsWsGDLly4xuoCrfnMJK+8QPiKy76YvengYrsy3sxpwxUFnDPPEr2J34MNOr+2n/FR4vriBJmNrxc899Z2liNX6zdf3/PB8w5voJ/MP/QJTv9xKdz7krUrEH1hDjAYSyEQRlPEvxU+me8nvIY5Fe5O97hP5lJXRlhCeX27h/wChP+5BnDfWaR9kz1DxZYULMK6yT/iv8Qf/ADsr/wADKirpF7ULZpNcD/2QZV4FtTzp42eNmOCq8C6JUYFx86X7g0S8KeInd9BFE8sGEo/1zlw/hKH4iJdMY4/af6hQ9Lyg2izc8lR7yJ4ERoEAFpMtEt4xukTgzyRn0/VmOYfdl4D8iwBtfqyt/wBrAWxp5ZQuzFhSAGi38w/9JP5q4dx+sW7/AKsTv7zElY/dmLSfVFO57Qpx9qAZlxrDiQ3IKIPaGBIFrrYAHBK7CV2ErsJXaSnaKdiUdMTEo7EeyTwJfoTwErsJnv57KlSpUqUdeopsuLMle4Te/SCZui7S7/gnYf2R7f7Jhpkabs+0V49I9+NdsI5cJvEI5TE8spZwlexiLZrLXA7ZCMOaSvf2MOZmHdQm1PkIfJ9p/EQ2l96/iVr8IogHH2SANAf/AMGT/8QAJREAAQAIBgMAAAAAAAAAAAAAAQARICEwMUBgAhBRcJCggJHA/9oACAECAQk/AOiHhQKR9tT2sKo4DEk92Y+KVI9iXwDutva9RUCvHgmNqBbpDABoibJNCeCQ5GIcih4W/wD/xAArEQACAgEDAgUDBQEAAAAAAAAAARFRMAIQUEBgIDFBUpEhcKBhcYCBwbD/2gAIAQMBCT8A/BDf27ey7LWdjfhcDnsp5VLIX/BbcDGPoWMf2nQvwxpJJJJJJJySSSSSSSST2DZXR1jrn7Kx1grHXP2VjrBWOufsrHWCsdc/f+lY6wVjrsCt0LwpbVgrwIQhC3rsCujrHXP3/pWOujrsCsddHXYFYl2ooUDGMYxjGMZqYxmo1GpjGahzI2NjGMYxj2Uijnfq/NI+i2XXKH6avWT5/TnK6+t/NOP65uuArf0fN+3wV1/lHN+3g/bzdcH7ebrg65usSEIWVYa5vyPr29raX7mvV8mtscP1Q0NDQ0NDQ0NbNfJqRqRqRqQ0akakNPdoaGkNfI0NDPP1ZrZr1DersCSRsnZsnedpJJJJ2nZsbJJJJGxv+Xif4gH/2Q==;clipPath=inset(7% 28% 6.33% 30.67%);" vertex="1" parent="1">
          <mxGeometry x="810" y="2460" width="166.93" height="350" as="geometry" />
        </mxCell>
        <mxCell id="FOVqOBKGCX3OGBPa5XmN-22" value="" style="shape=image;verticalLabelPosition=bottom;labelBackgroundColor=default;verticalAlign=top;aspect=fixed;imageAspect=0;image=data:image/jpeg,/9j/4AAQSkZJRgABAQAAAQABAAD/2wCEAAkJCggKCAsLCQsKCwsLDhAMCgsNExcVEBQPFhISDhYSDxQPDxQSFBgTFhQZIBoeGRgrIRwkExwdMiIzKjclIjABBgsKCw0OCwwMDg4MDRAOHRQNDCIUFRcOHggXDBAWEBEXCxATFAsRGREeCRkMCCIYHRQPHRANDA8WEAsUFSMWGP/CABEIBdwF3AMBIgACEQEDEQH/xAA1AAEAAgMBAQEAAAAAAAAAAAAAAQIDBAUGBwgBAQEBAQEBAQEAAAAAAAAAAAABAgMEBQYH/9oADAMBAAIQAxAAAAD7iAAAAAAAAAAAAAAAAAAAAAAAAAAAAAAAAAAAAAAAAAAAAAAAAAAAAAAAAAAAAAAAAAAAAAAAAAAAAAAAAAAAAAAAAAAAAAAAAAAAAAAAAAAAAAAAAAAAAAAAAAAAAAAAAAAAAAAAAAAAAAAAAAAAAAAAAAAAAAAAAAAAAAAAAAAAAAAAAAAAAAAAAAAAAAAAAAAAAAAAAAAAAAAAAAAAAAAAAAAAAAAAAAAAAAAAAAAAAAAAAAAAAAAAAAAAAAAAAAAAAAAAAAAAAAAAAAAAAAAAAAAAAAAAAAAAAAAAAAAAAAAAAAAAAAAAAAAAAAAAAAAAAAAAAAAAAAAAAAAAAAAAAAAAAAAAAAAAAAAAAAAAAAAAAAAAAAAAAAAAAAAAAAAAAAAAAAAAAAAAAAAAAAAAAAAAAAAAAAAAAAAAAAAAAAAAAAAAAAAAAAAAAAAAAAAAAAAAAAAAAAAAAAAAAAAAAAAAAAAAAAAAAAAAAAAAAAAAAAAAAAAAAAAAAAAAAAAAAAAAAAAAAAAAAAAAAAAAAAAAAAAAAAAAAAAAAAAAAAAAAAAAAAAAAAAAAAAAAAAAAAAAAAAAAAAAAABE4UTjSXnGMjGMrFBdpyu9k0NkzMKszCMzFJkYhlYoM0YoLRzWXRyc/bsvFRM1EoJNGDbbVjLIoi7HK3UC+lVelbQ2KzsMmVikyMYyKC7GMjFUzOPU7UcjoxlYSZmEZmGTLbBlq4aAAAAAAAAAAAAAAAAAAAAAAAAAAAAAAAAAAAAAAAAAAAAAAAAAAAAAAAAa0RJZBJIJRWLsQysUGaMYyMasjHJdjkvOMt1JSyotONGRgg2FbVCRCRGrs6kbqJogShEsdTMpBkY4rKxFysYyMcGWKDLGMZGMXUlLqRGRrZ6sABkx1NtW10AAAAAAAAAAAAAAAAAAAAAAAAAAAAAAAAAAAAAAAAAAAAAAAAAAAAAAAIObOBJnYJjNOBGxSAragIACBKJImLAglAlCJhBSlqG1k1spmnBGmdgRsc7c5p1GEZmEZpwXLArAIAQSiRW1S8AAAIJrNCmXFMbd9adNidaDarrjo59Pc1QAAAAAAAAAAAAAAAAAAAAAAAAAAAAAAAAAAAAAAAAAAAAAAAAAAAAAABBxbRMgZJC9omIpahJABCYEwIvWQCQImBW0GOswTmxZQAC/O6PNN8AC0SXBQEAARMCtq1cAAAFa3oVEXtE0BCRt7unuboAAAAAAAAAAAAAAAAAAAAAAAAAAAAAAAAAAAAAAAAAAAAAAAAAAAAAACJg40xOYmETMDJatopFqCJEAAIQmskoEomgFZgpjuJy4soABk5nT5hvpEAWrYumCkAAIAFZguqLK2ApEwKXpEAyItUJgA3NzT3N0AAAAAAAAAAAAAAAAAAAAAAAAAAAAAAAAAAAAAAAAAAAAAAAAAAAAAABEwcW9L5gQJL2raK1tUgESDneY8xvHrNPhei741Wr5nU+gem+P94+mz80+h+Xtsq2zVbQYk1LZceQAAy8zpcw30iEiLRJcGMABPjbPV+b8P3/Tz1se3td+fL6Hz6NPtvR8hzfF1+hW09nj0vAKXoVBlFAAbu3q7W6AAAAAAAAAAAAAAAAAAAAAAAAAAAAAAAAAAAAAAAAAAAAAAAAAAAAAAAiRxLxOYEJgZJi0VpepCRPz3p+K64r2vKZe/PteK9n4v28Ol3fH+rue553v6HLXnPTaXO4dvsu386+heTvlgxcYJyY8gJISL83pc43okQmBatjJS9SiREuOeY+ffVPF+7jfo+V9f15cKdbW9Pz7enxeg8/u5/gNzU3e99T+Vbnl6/U7Ysvi7qXoVSi8p0ARI3drV2t0AAAAAAAAAAAAAAAAAAAAAAAAAAAAAAAAAAAAAAAAAAAAAAAAAAAAAAADjTEyBkBkmLRWl6g4NnhvTeNw+nj6zkX7+8eQ4XufDd+frfJ+r0vT5+bzPR6ud4MPK6XLvx/tnzH03n7fS5pfw9qVmInLjyUmJAL87oaMbgogTNbl4mCgJ+MfVPkfp55PoXzX0Xo4d/y/oPNax6bUyS5cfJk1Nxved6Tp0MXlcnk9f1rr/NfpHm65aWrlAjJJoABu7WrtboAAAAAAAAAAAAAAAAAAAAAAAAAAAAAAAAAAAAAAAAAAAAAAAAAAAAAACJHHROYEJiS9qzEVtUnxntPB2ec5M5vXynp5/F9+O6xfRPX5vI4d/wA9HodXPz+e+X2/Q8bn15Hf4fR49vr2THk8HelbUi+TFlqQAW0N/mx0BRAmYmMkTBSYueM8z7TzXs4dDj8/Z78Of6PifR+vHy/O7fnjp7WHzMYNutNuTtYcvH1bH2T4d9z8He1b057gRkmJ0ARI3tnBn3QAAAAAAAAAAAAAAAAAAAAAAAAAAAAAAAAAAAAAAAAAAAAAAAAAAAAAAAONMTmBCYGS0TEUviMnjvY6dnxfY4XV93HUdLN6OXk+j0utvl47d9T46z1ej5/p3PpN3zUefv2Gh67j19XkifD6MQi2SmQAAvy+py66IgBatiy0VjvSx5T5h9u+P+jjo9HPj9fDFe2brmuxz8GuPbv5TsY32fP7fpOXf531OhS6fWfnX0fwd7UvTnqJIyDQADoZ8GfdAAAAAAAAAAAAAAAAAAAAAAAAAAAAAAAAAAAAAAAAAAAAAAAAAAAAAAAA44zAgIyXx5SMOfGRkxXPlPmfuHxD1cejlz8vrjZ9T5j1DPH8f2d7V8Xu9Tq+rhTS3uf5PTi+web9l5O0xavHVUzU2iYAAvyurya6YgBaJMhNYbTUy/Nvo+lvPybmes0vfw3tHo+Qk9P5XtV68eV1Y6yeSyYp109Vq7ez4e/repLy9orMCVolE1AoDoZ9fY3QAAAAAAAAAAAAAAAAAAAAAAAAAAAAAAAAAAAAAAAAAAAAAAAAAAAAAAAORFq5hKITEWy4cheLDBNqGXjdXJXyB9Z8H1xylcHXnwuhn3NXm4N3Wzcnd6XueOsU2ry2pdFZWoTEAAvx+xxzqyAAGS2PLUY8tCuTDaOX4/6Rqds/JuZ7jznp8/P2NnR6Ne6ku5Ol9D47819UtXz9KjGqzIiZACAmCuhnx5N0AAAAAAAAAAAAAAAAAAAAAAAAAAAAAAAAAAAAAAAAAAAAAAAAAAAAAAADk1tXMkZAJgZrYc1TgzjXm1YvfErJyOpNnndf082cXuQliss2qZKzeCsSIlEAAX4/Y4x1wAAMuK1ZZiaxRmxRF6DNii1nC5nsI1PHdzrltSGbWJRW02KxaCoAISAOjlpfpQAAAAAAAAAAAAAAAAAAAAAAAAAAAAAAAAAAAAAAAAAAAAAAAAAAAAAAAOTW1cyRkTAAyY5M99fNVsWUazYpGJcYLzJVaxjZbFEqrVEBCJETEgFuP2eIdgEokElZgXy4ZrLatqpi2JNVnpGOuWKquKTa0Y73ioiaCIRCRCRAArqWrbdAAAAAAAAAAAAAAAAAAAAAAAAAAAAAAAAAAAAAAAAAAAAAAAAAAAAAAAA5CWZCWUSsVWggQmIM99ea2GK9WQJmsiJqIrjL0hkBEgAAJLcTt8Y6yQABCRKBOTENlr3rKragqxBEKxNYpFqkQAKAARaDoZa26UAAAAAAAAAAAAAAAAAAAAAAAAAAAAAAAAAAAAAAAAAAAAAAAAAAAAAAADj2hiSIACAALVmStkEoETWwAASIAABKBKJJ43Z4x10ohKoSIWiISISIlFSiSazBZAlAmIqXAAFAAAdK1bdKAAAAAAAAAAAAAAAAAAAAAAAAAAAAAAAAAAAAAAAAAAAAAAAAAAAAAAAByUxiLVtkAABEWEJEJESFLxYgAAAAAQFomKcvr8s6YQAAAIJVEgAraKkAAEJgTAiQAhIiSt/Liy9KAAAAAAAAAAAAAAAAAAAAAAAAAAAAAAAAAAAAAAAAAAAAAAAAAAAAAAABy6zGZMmAkiQAUvBMSIAmskWxZQAABEiCSEogUmJlcrq8w6YQAAASABAUrapYUBAAAESITAAJro2OlAAAAAAAAAAAAAAAAAAAAAAAAAAAAAAAAAAAAAAAAAAAAAAAAAAAAAAAA4NOleZ48dpHD2emjTbg0Y3xzdLvjgV9CPNvSDzWP1I831t4aV9oaraRqtouq2YNeNka7ONdsDXbMmtx+vo5dGc8aYWeDCzDAzjXbEGKcgxskmKudGCuyrEyjFGWTCzQYmUYmWDGyDGyDEyjFOWlb81tugAAAAAAAAAAAAAAAAAAAAAAAAAAAAAAAAAAAAAAAAAAAAAAAAAAAAAAMEUSqyZqsISISIiwqsKrSUXgqsKrFqsiEiIsISISKLii4rF6lLQzZWVCREhEhVIhIhIhaaouKLkpNhVYVWLWLwVXJRcUXFJsMubU29aAAAAAAAAAAAAAAAAAAAAAAAAAAAAAAAAAAAAAAAAAAAAAAAAAAAAAAVtqpqbWptRKMKZwAAiYEoLKJUgkoEoLKBKCSiCygupJZUWiBNZpFGOc3aQoBak0QJViLxUWVkuqLKzUqksgShUoLNLCUCUJJRBZW1Rkw1XoC0AAAAAAAAAAAAAAAAAAAAAAAAAAAAAAAAAAAAAAAAAAAAAAAAAAAABp7mkmpsaexGXBapnYhlYxkYyZGMZGMuRjGRRF1CXUF1C3VJZVVoiq3UiMjGjIxi8VgxseSNliVlYhlYhljGMjGMjGMrEMrEMrGMjGMjGMjGrIxjIxjIxjJONGRjGRjF6xFdOTVAAAAAAAAAAAAAAAAAAAAAAAAAAAAAAAAAAAAAAAAAAAAAAAAAAAAAaG/oJzs+rsRdUXVtlaaTVkSJhZM1lJgllCWUCUCUCUElBSApMBWC6gvFYNfPz96MqirqC6gvOMXUF1JLsYyKC84xkYxkYxkY5LqQZGOS6guoLqDIxi7HauyidUAAAAAAAAAAAAAAAAAAAAAAAAAAAAAAAAAAAAAAAAAAAAAAAAAAAABzeloJyc+LLF5rYlFoTCJms1KJsmaksqLCAgALZhFSqghKhAiYIiREhyOnzOjLlVWWVkkAAUBCURIAAAABUoVMAABIIyUudgWgAAAAAAAAAAAAAAAAAAAAAAAAAAAAAAAAAAAAAAAAAAAAAAAAAAAAOf0OenLzYc0WmJFqyTNZJQJmCSgkglAlAlAlAlAELMGahAIBAByd/S3JcyFkzWwAAAASISISABBKJACYoKCAgBkx5dOuLQAAAAAAAAAAAAAAAAAAAAAAAAAAAAAAAAAAAAAAAAAAAAAAAAAAAAHP6HOTmZsOeJmBIJRKSgkoEzCJQJQqUCUSCCUCUFELMGSAgEEHN3uf0Ivpbvm9MTwrd948HY93HhZPb38LQ968FB9AfPx9Bj57Y9/Pz8fQnz+x9AeCofQ3z0fQr/ADwfRZ+c2j6PPzSx9JzfLh9Pt8wqfUdr5J6xPaZsWWOuLQAAAAAAAAAAAAAAAAAAAAAAAAAAAAAAAAAAAAAAAAAAAAAAAAAAAAHM6fOTm58OaAASUSAShJKCygShZM1klAlAlBZgUQgSoAAhHJ6PP6MW4fcnT5LP1qtfK4+sK+UPq4+TvrEnyS31kfJsf10fIZ+uD5HP1sfJ6/Wx8kt9ZHyd9Yg+U4vrcL8op9aivlNfqw+Vz9RqnzGn1Gi/L/Weg2UzZ9fNl1xaAAAAAAAAAAAAAAAAAAAAAAAAAAAAAAAAAAAAAAAAAAAAAAAAAAAAA53R5iaGbDmibeM86fVHy2h9Vn5djX6rHyuD6tHyqD6rPymp9YfKJT6s+Uwv1d8pqfWI+T4q+vR8ik+tx8lR9ZfJB9cj5JB9bfI7H1mPlEJ9Yt8l7a/QhJy9/Q38rikWBAkUAmJgKACAABJCVBQAkhIhIrmxZTrC0AAAAAAAAAAAAAAAAAAAAAAAAAAAAAAAAAAAAAAAAAAAAAAAAAAAABy+py00c2HPHi/Oei87qvc+H+lGho+P9Qec6+75c99bwvvI4/ld/WrL6vNuJ849j5CV9pg5485GWKr2+V9FjU85hxGn7jwW+es8L7fyB2uz8+2z6H5X03zdJ6vH6y/Rkxicze0d/NtMTYIJAJoKCBESAABIBQmoBKJAACJIzYc51BaAAAAAAAAAAAAAAAAAAAAAAAAAAAAAAAAAAAAAAAAAAAAAAAAAAAAA5nT5aaObDmjxfnPRed1X0r5r9RPl/ZeiMPjux0E6XC7/AJReZ6LQ2zP6HldtPmkbudfV/OvZeUMnp/Kb4+g/M/dp5f0nA7y/P9q3rFnzXpvPs8339dc8Ph9LoLyOnzehX0uJc5xerob+VxSYBW5CVRISiQACEoCgBNAAAAAARnwbB0xaAAAAAAAAAAAAAAAAAAAAAAAAAAAAAAAAAAAAAAAAAAAAAAAAAAAAA53R56c3Phzx4nznveZp5T0O3Bq6PYR5PudKK1rZho8L1Q8v2OlB5be7UnE1fS3PKR64ePy+rHJ4/sJPF7/qJPMcr3ljyc+siXy+H102eD3vX5pezEszmbulvZWSqEiItWom4iQAACggKCJFACSEiEiEiEwRnwbB0xaAAAAAAAAAAAAAAAAAAAAAAAAAAAAAAAAAAAAAAAAAAAAAAAAAAAAA5/Q56c7NhzQSiAJpEZGIZWIZWEZWPJQUEABSY5B2I8Jsnsi0RHlfUVacXjY9vHmPUVExaOXu6W/m2GoJIi1SyAmILKiytDKKEkJEJRElAASgSiQACufDnOmLQAAAAAAAAAAAAAAAAAAAAAAAAAAAAAAAAAAAAAAAAAAAAAAAAAAAAHN6XPTnZ8OWJRJHP6PyJjW5Whknyd2dWzhsVwwme2pR09v9E+A/S30vfKXvrhMAAD519A8ce35PVHL1u3c+W/SPM+lOLu87tHm/VcPonTtExy9/n9DNsNSSDW+S+h+avH0J0cjwbsahz241KNb3qfDVej9BbfhvZvqZkrcPC9F4gnveG9nW3j1eAd/vfLvpp55isdfrYtCM2Dye+eyVsARnwbB0haAAAAAAAAAAAAAAAAAAAAAAAAAAAAAAAAAAAAAAAAAAAAAAAAAAAAA0N/QTnZsOaIJJ+JfbvJOfxzLqJ8noTp2ebajWg2ceDG67PvPCfb77+tkiXvAEkJgnwHvqnL4nQz1rekRHl+62DS5PpuCcr13G74mJjk9DQ6GbZKxEq+WeB+9fC3jx5OfkeHfaRz3MetRvZjW7L0e995p9G/RyBp4f2HlDh+w4uzW5y/QaBy/Z8DqHmbdTejHHc8seY9D1OIet2NXaAiNjX2K6QtAAAAAAAAAAAAAAAAAAAAAAAAAAAAAAAAAAAAAAAAAAAAAAAAAAAAAaG/oJzs2HNAE5MQ1uL6Vc+aj0xPMPTjys+pRo7N4bAAAAEhyfOp63maXQtx9LV5x6iPE9mO6kJiY5XQ0d7NuLEwLYsk1zXTrc82OorkOwjkb2zWXHeYWRQEwCYEgEEoCYkAAjY19g6QtAAAAAAAAAAAAAAAAAAAAAAAAAAAAAAAAAAAAAAAAAAAAAAAAAAAAAaG/z05+bFlgSQ4/ZKvL9s3WnxT0y3kz1bS1TrS4p2UiFhVYVSI5nT8eT6rP88rY3+j446W3qdZdvV9Ek876Lx3siJiY5m9o7+bYWBQAUAJiJAKAAAAkAEAlEggkEbOtsp0RdAAAAAAAAAAAAAAAAAAAAAAAAAAAAAAAAAAAAAAAAAAAAAAAAAAAAANDf0U5ubDmhx+xJ4L2XB6pycHX5tYd7B2TBpYuqcbLbeO34/pWjpcHv+fJd7h1WOxpluxyevDzvofNnpvD+r51bnK4MVu+28Bgl+jtDdk8r67xnsiL0vHK39DfzbjUCgAAEgAAAAAmJAITABKBIAGxr7J0BaAAAAAAAAAAAAAAAAAAAAAAAAAAAAAAAAAAAAAAAAAAAAAAAAAAAAA0t3RTnZcOaEwPM96u0ed0+rvVxo7/ENzR9Jw45/qdXcPm30jX2BMCUAABMDxnS9Fya6d/F1PY5PC2PQeZ7PpTBnIm1LxzN3S3M3IRqSKAAAATAlEgA5h03mPUkR5/0BM83zJ7Zi5J21qkgAAbOtsnQFoAAAAAAAAAAAAAAAAAAAAAAAAAAAAAAAAAAAAAAAAAAAAAAAAAAAADR3tFOblw5oms+RPWY/PaB7PJw+Oetz+F9QdCfBdw71/DdE9M8fB7LD5rSPc8/W8+e5aG+AAATNfMHqY8/3wASLVtHN3NTbzbwnUCgAAABIAArapwPR87onnPQ+d9EYvLdziHouV2+IeiregmBIAGxr7B0RaAAAAAAAAAAAAAAAAAAAAAAAAAAAAAAAAAAAAAAAAAAAAAAAAAAAAA0d7STmZcWaHk/W+VMnK7Hdrmcn13mj0mhtcGPPetroVlpmwGDQ6licHa82drxvovRF9jhd6MePl6x3HDudfnYt0896ncg4vX8zirrYfDddfodfJetkWraOdt6u3mzMTuAAAAJgSAAAYjNwsWc8n9E4Peq0uBHX8T7bz5udzkdYlEgBAbOtsnRFoAAAAAAAAAAAAAAAAAAAAAAAAAAAAAAAAAAAAAAAAAAAAAAAAAAAADS3dJOZmwZ4cPuQcbzXq9muNfo7B4n23NucPt7+c8xtbsnP1PUcyJ4npqGTx/ueMdTLMABKIFEwamTPBgw70iAXpeOZvaW5m3G4AAAASCASAAOZxPXcU2tLq7ByadmTxvo+j5Y9PFoiEqhIhIbOtsp0BdAAAAAAAAAAAAAAAAAAAAAAAAAAAAAAAAAAAAAAAAAAAAAAAAAAAAANLd0k5ebFmh5j0/nTRy7/NrD2/IexXTz7G3J4j0mO5pX2tKr6GPnr67B2/Nyep8r6zzh19ylwiTQ5nH41fU5I896Dg9881j28BqdHS2jY7PK60Reto5u7p7kthqBQAAAAEoEwADBn1Tg8nuaC+0rMJPm/ScM527ap6BEgADZ1tk6AtAAAAAAAAAAAAAAAAAAAAAAAAAAAAAAAAAAAAAAAAAAAAAAAAAAAAAaW7pJzM2HNDz3odUw+Wx+mqlOH62MOXNBy772U4m7p2rSx+l4hsYuhiOh5XucU9bOLLAg4/G9Dyq9MIi0CcWQRIRaETalo0NvT3JbDUAACgAAgKATEkcHvDzHosfnV9YEt8+9/Q53R8l6syzEgADZ1ts3haAAAAAAAAAAAAAAAAAAAAAAAAAAAAAAAAAAAAAAAAAAAAAAAAAAAAA09zTTlZ8OaFbeXOnvefpXW2PO5Y61uOOvtcHOdHd8v6cAATAlAA53L6vJr00kIvQksVLFUiLVtHP29TbzbjQEACiBIAgAKGmbjTG55emyejicBmTxjc1eF7IsSAANzT2jfFoAAAAAAAAAAAAAAAAAAAAAAAAAAAAAAAAAAAAAAAAAAAAAAAAAAAADT3NROVmw5oeK9r5U4/dmmmS2G8TfBYtq5qGt7PxPsS4gAAAD5/xfovm9Pd83ocLLR629xTPz9jtnBc3o1Ozq7p2r1nLnbmlvZtkxqBQAETCJAFRMCUCeN2vFLffDu5RK/OPZeWPonjPU8M9GBMCQANzT3DdFoAAAAAAAAAAAAAAAAAAAAAAAAAAAAAAAAAAAAAAAAAAAAAAAAAAAADT3NNOXnwZonU2x5Xu7g4O90IONn6ReVl3xiZSAoAAAE4cqSUK4XbtI4XdFLyMGdELVmOdu6W7LkROoAiRAITCgABQE62wNXPcSgThyktgzBMSJICgG7pbqbgugAAAAAAAAAAAAAAAAAAAAAAAAAAAAAAAAAAAAAAAAAAAAAAAAAAAAGnuaicrPhnLK1IzdtqtXaazLYjVXWy1pNhrjYa42GuNidYmy1lbLWRstYbLVG01SbbX2bIWWVWRS0I529obeLnnHFZZ1xsRgg2IwVt2GrFu21YXbjVG01RtNUbU6g22oNtpDdaQ3WkN6dKU3Zm1xRcUWpTe0d42xaAAAAAAAAAAAAAAAAAAAAAAAAAAAAAAAAAAAAAAAAAAAAAAAAAAAAAraDyOa+bDezYsuoIkmEL88y/F9bz/a+5V+IWnb7c+JTL9tfEZt+2x8TH2yPig+1vihPtj4lFn26PiMM/bnxCjP3DB8Vm8/vPufg33rr86BvgEU1dvTy5uhyPX8t06WLa6y0zO81i9Yr4D6D+Vufr+zviLn9D7ZPxOWvtb4oX7XHxWV+0x8XJ9lj43B9lj42PsUfHoPsUfHq3P2GPj0MfX+j8Q9Vvj+iZR0+ZKBOLJStff0dw2xaAAAAAAAAAAAAAAAAAAAAAAAAAAAAAAAAAAAAAAAAAAAAAAAAAAAAABwK5KSb2bBnBBOO+A/OVutveD93563omfR56fRmvOPRTL5u3pIrzb0hPNx6Wp5yPRjzdfTVTzWP09Lz8vT1OPXHZ+2/JvrPq/K2Vnp88Ipqbenm/OPffNvovLW/s62z1xeYbShEfmf9LfAuH2eNPft5/0/At6C0352fQSvnXo4l869BY8+9BJ56PRRp52PRk83X0lGfN09Jj1x876PH1enzvtytvV+UAY8lDX3dLfrYCgAAAAAAAAAAAAAAAAAAAAAAAAAAAAAAAAAAAAAAAAAAAAAAAAAAAAAcXDsa0m9lw5CyBODNgl+Nb3P3fD+7zsczva1JWygyVrBkUJkihLqKuxykxEJOO2K8ez9L+ZfTPT+WTV1+daaIaW3pYvyz6N8z+kcd9fY18/fF5rO5KIh8X+y/G+H3M+xiv5/0iZhqxVSCyqS0QJmtVtNIMkVhitZxXnOfXz9PD9htjn1fkLqKvWIMW9o71bAUAAAAAAAAAAAAAAAAAAAAAAAAAAAAAAAAAAAAAAAAAAAAAAAAAAAAADkam3qSbuTFcsgTr58E18V3OdsfO/oW5bVvO+acMVlYqzWe2vBnYRnnWvZla9pM7BFmeMNbnNTDi1x7/1T5R9W9P5Ah1+ZKA0d7Q56+RfR/nP0Xhvu7Gvn9XPIqstEIfFftPw/h97pW0svn/VbM6xdhr1lzsCXOwVNmMA2Iw1NiNcueddc58WLHeWfJo5ung+3TS3s/E2QqazUpvaHQrOFAAAAAAAAAAAAAAAAAAAAAAAAAAAAAAAAAAAAAAAAAAAAAAAAAAAAAA5Gnuacm7fFkJQJxZMK/Cs2tf5n9K2smC09OaMQyRjGRjGaMUmRiGS2EZIoMkYoYmtaXz+h+t/JPrPt/F2VdPlWVVbn7/O56+TfQ/nn0HzdfQ5sOX18bzEallQ+F/dPhXm/Q5suvk8v67PGKrpmrjLknHUzMUJlYpXJWKmRjM2YZZvStNcWzobnTwfc7Ut7fwtkLJrNSvQ5/QszhoAAAAAAAAAAAAAAAAAAAAAAAAAAAAAAAAAAAAAAAAAAAAAAAAAAAAADkae5pJt3xXiyothyYl+D5tfN8r+l5ppbPqlBqYRVkKmaEtMQllYSyspNYrcxjtjvD0P174/9f9v4qUOnypRBk5vQ5uL8o9/4D33l6+ky4b+zllQ1JQJ+DfdvhHl/Q574r+b9heKmrVRNTNSXtimpRBaEJagIVGO+JxpvaO71+d9ytS3u/B3UWWVDq8nrFhaAAAAAAAAAAAAAAAAAAAAAAAAAAAAAAAAAAAAAAAAAAAAAAAAAAAAAByNLd0U2rY74soE4cuFfz7l06+D970Z0LZ9O61E1ttQ1ttQbbUG21Fm21JTaaUJu1063G7GlF4ev+x/E/tXr/KWQ6fMlAtzejzM7+V++8D7rx9fTZcGX28cyi5sqI+E/c/zr5/0Pdnhz5v1Pbnhpvt045exHKsnQc0nQc8b0aRN2upFzuV1K3ns014vLN0OT0t+P79alvb+MmazcygT1uV1iRaAAAAAAAAAAAAAAAAAAAAAAAAAAAAAAAAAAAAAAAAAAAAAAAAAAAAABydHe0UzXx2zbIEwpHxPzfsud4v2/n7+ic/o+en0FmvOvRxL52fQE889Cs889DROBHoB5+O+ufP179bz8/Pbrrj2vsHyf6v6vytlW/nWVLfm9DmZ18u9x4r2Pj6+py6+X28c7HNl4iC355/QfwTj9rnzv38/6XnupM6cqepeb5LrWOPXtTHEduxwXfiuBHfSedr6Sus+bj0Vby4HocfT34/sl8d/X+MsgkzWbLdjj9Wri0AAAAAAAAAAAAAAAAAAAAAAAAAAAAAAAAAAAAAAAAAAAAAAAAAAAAADlaG/opkms5tohLOK9F+E5tTY+f/RMt9djvsRghvYa8mZrDZaw2WsNhrwmzGvFmxGvDGauBrh3/r/xj7J6/wApkUnr8m00F+X0uTz3829d431Xl6+ztgze3jlVWXQTH8T+z/B/N+j6dtaPL+p2rahraaqXajWGw1ibMa01sNcmxGuTPGCrOauKm+OTd5nR34vuN8V/b+HsqS8471k6fM69kigAAAAAAAAAAAAAAAAAAAAAAAAAAAAAAAAAAAAAAAAAAAAAAAAAAAAAOVpbuklkMalBpWS/nu+K3h/cbLPfPq1a7Vq1I3YXSbtTVjcJpxuwabZk1Y3KM6tdqjOvGxp3j2vtPxH7R6fzuecLp83MwFz8bqcXD556fyPpPL293l1Mns5bbCszMMyYPhX3D4Xw+5uzr5/P+jialssKMiqRlkxWvKYI2Fa7YhNeu1RjWrsVvLB1uT09+P7lfDl9f5O8VlicmPImXrcnrbxIUAAAAAAAAAAAAAAAAAAAAAAAAAAAAAAAAAAAAAAAAAAAAAAAAAAAAADlaW/oIQxuYirVmI1+eLYdzx/rfbR0ME9+Bntc4I2ITBObIacbSzWjcxms2qxrU3qmlG/jrheb9j5DF2/tfwn7V6PzW7Oi3595ojpcLd4mceG9D5jveXr77Lyc3q59SdC+m7GnEtfhv2T4lj6O/wBHz/peH2+7O+ddOdydY077N6052xrMuRnVbhNKm2m9LD0Ky6VduLnymfZxOH2vJq5PX+Sz2w2Yy5cGZjP1uT1unKQoAAAAAAAAAAAAAAAAAAAAAAAAAAAAAAAAAAAAAAAAAAAAAAAAAAAAAHL0tzTSkTiz0UrinS8a9J0+C9vner8v6fuY6uX1rFK2aYoYzTrlzzghMtteTMwSZoxLMrFEup5X20zp85+l1dfl5VIyyMMzW5oZJ1y8T2e8wpi2G9UsLa2GJcXyf67j0+U+t9TOPXa1YdrzSDNSkJnxqJNqjLbWsualJSKZojGum+Xy/UVPXbHmtvv+b9Bk5uz2+TubfO3t+fb63J62+MgAAAAAAAAAAAAAAAAAAAAAAAAAAAAAAAAAAAAAAAAAAAAAAAAAAAAAA5Opsa6U19jWx0x4cmHPbBxaYPJ+qgc/tVTFxMYs7NLSspaISVRaLVJRescZKS2rMEqXBVJmsKtW4tQl7YxMwIiYK2VarZUvbHeS8Y8lQmhYuY7JKzMESJM1Ra2O9TNBkjFlz0yVSsdPm0vD13S8r6r2/i9vrcnqdvnXCgAAAAAAAAAAAAAAAAAAAAAAAAAAAAAAAAAAAAAAAAAAAAAAAAAAAACDg0yamWbV2cM3r8vseQ5fV0M+tseH9zato1yjldLjlO/5r1GPRjtFenkvfHNlorBkisJnnXtZdilcqkFpxTLmikJkrWGrxQZYokvOO9MlLM0yYsy4EGomsraIiJTWyVqEovFQpjlb2xWLzitZsW18rntYqZU4GbnbfL6nXmt+vzUxOd630P5567t8f0HX4/Y9v42RQAAAAAAAAAAAAAAAAAAAAAAAAAAAAAAAAAAAAAAAAAAAAAAAAAAAAAg87iyYs3Xx5cU618d7LxHm/QRsau75v1VK3prjHE7nDa1/Vec9DjomK9fIXgitxC0JEpSq9Vi0lpaJRW9SItURJVgWhc5YqSmSsLWJmaqsKpkhIreKJa1YJpaqjKYpiyxMkm9bpNscTXAy3py+n3bUdfmZlZl1+3xOs8/se3wu79L8DIsAAAAAAAAAAAAAAAAAAAAAAAAAAAAAAAAAAAAAAAAAAAAAAAAAAAAARI83iy4pcGPLTPbF4n3Pz/z/AKDY3NHa8v6XKxOnC3nPS+Zm49DwfQc/XWbuvhpGWqC9la3gWrZLVtjStplaWmStchMc2m3De8S45yCs2i5VtWWtr0WsrFYvCVXhYtS5RKETjW+xrUs3WnNmzqSzq8wW0VgspkzvjUya3P6XdvTN1+bjyxBGbDo4v1Xs8btfU/nEi5AAAAAAAAAAAAAAAAAAAAAAAAAAAAAAAAAAAAAAAAAAAAAAAAAAAAARI83S9JrBTJTHWnz36J894ffvt6l/L+p2GtO+Oz57rcXOs3d8/t49nUty2uHUyceLnt15JOxHJmzqzyEddy1nRc4103MM9WOXZOnHNV0qc6Zem5tE6zkjquYjoTzbL0HNV0p5w33PR0J5xd9oDenRG7GmNydKDdaML0q6MG9XSS7t+dM3i1trWnp72TC6/LvfHE2182HO/qPZ4/Y+p/NLCwAAAAAAAAAAAAAAAAAAAAAAAAAAAAAAAAAAAAAAAAAAAAAAAAAAAAADzdL1lw0yUx2r8/8AoPgOH3OdRTw/ursUMzr5cdxlyUu2rCWb4xaEFlSlSzegvNYLscJdRLknHFmZiJkjGayMRMs45svWkGWtImslYiWUFtakJlrStZZwlz5tQxt4cMGVQ1ecYzTiszkVsu1jtTXLYx44uNhrznpt7eh19+T6P2OP0/qfzHOLAAAAAAAAAAAAAAAAAAAAAAAAAAAAAAAAAAAAAAAAAAAAAAAAAAAAAETB5ytozcUWjPWvgvf+H5fX4NM+Lxft8cyTEyTrjS8xO1ElqkQFiZkovEtZkEiqVQtEVSKrEhMlUqiLIqtBCSwmSi8FVpWq4qsSq0lF6pC0lJsKrSVusbGPJS8scxNi601m6nM6e/H9F6XO6X0f53sCwAAAAAAAAAAAAAAAAAAAAAAAAAAAAAAAAAAAAAAAAAAAAAAAAAAAAADztMiMUZIzunh/d+H5/V4WDY1vH+zqVibYsm+OWmfBjvWJidAuUSIllWjgYrw9G8pST1zysL6t5Wp6x5TYPRMmKeiYhRBJRIIEwJQJRMqcnlbz9M8tZj1Dytj1Dy0p6l5utz6VwPRTrQTqmFzNqyTelzYxbOtrjhtS5e2O81tdvh+k38/2nS5vS9/4XYFAAAAAAAAAAAAAAAAAAAAAAAAAAAAAAAAAAAAAAAAAAAAAAAAAAAAAAcCMtIpF4za+M9ryce357r7ur4v3mGMsGDIza45MGxr53SCdAAIz4LteKw7uDXmwzllMMZ0uBmVh3tfMz7bVzYM+qEioJQJQJi1QFm1brTxPtvIXhhbEXlgnOMDOTAzKzev8t6jPWImJ1TE2JiSb0uu7rbeHXl0bTd1WWzvP6nzXtu/yO90uZ1vX+NyCgAAAAAAAAAAAAAAAAAAAAAAAAAAAAAAAAAAAAAAAAAAAAAAAAAAAAAMHK7kJwWxqZt1IjX0eqd+U6sTXJ5nqU38x1PfeN836rnxsxy9+szLcLNBivaZfN4PV0x6fLvUQvmXprHl3qB5XP6MzbBmb8+FllNdngwsy3CyjEyzGJmiMVshXlfV0b8zPpmenmXqKp5qvpbL5mvqbWcHtZl5YWVcYmS1ziZFVvGWXa6Wx7P0fB87fvT1+HwL91XP6MdG8MfSlvmAAAAAAAAAAAAAAAAAAAAAAAAAAAAAAAAAAAAAAAAAAAAAAAAAAAAAAABz+X0+ZkiYyBVZRBBKIJisKJIiysV0kJiCoupZbIEoEoEzUWiEY8uK5aIkTAmaqtECyJEhBNlF4KpkLQUtEGW+vMbEVuVrlVFoJKJEwJ6vK6+psjQAAAAAAAAAAAAAAAAAAAAAAAAAAAAAAAAAAAAAAAAAAAAAAAAAAAAAAADmc7pc3KBlBAIUViaILJkiUCIgWx2LRErEXqVi9Cb4pW4ABBIjHkx5BMKkAQmLCZWQQSCUEIgyK2JrMmGufGVza5d1iyJIoCUSk9jjdnTYGgAAAAAAAAAAAAAAAAAAAAAAAAAAAAAAAAAAAAAAAAAAAAAAAAAAAAAAAHO5nT5eQjJAKyWtZrEzFxW2Mth1MPXGbBODty1PPerqec9Nq8jOvd2+a+44dejWZzqkWhbWw5RMAAIx5ceQCpQJQSbrEJoCRGlyOmOhydnT7Yy6e/OnF3NrzeNfRc/wz6Hw37RgzZY8WxhI2tPKu0ibCBIJ7PG7OpsDQAAAAAAAAAAAAAAAAAAAAAAAAAAAAAAAAAAAAAAAAAAAAAAAAAAAAAAADm8zp8vIRkIFZpNQWJlSSulbU9PJhy6Xq8+7y9zwtYdnja/q4fWsuvPm7ZPFet2OXTY6Xyr6j4vTkpaudxaoygACKZMeQCgFq3S0yKQmHK6nk9553V4XS9nHq83LpxvY8nmek7W74/o3PU8l7mvLrpey+T/QPLvv45nGtZNJd3Lq7NBYmJJ7HG7OmyNQAAAAAAAAAAAAAAAAAAAAAAAAAAAAAAAAAAAAAAAAAAAAAAAAAAAAAAADl83pc3KBlBCsd8cs2rcY76Nnz/wBRzafS8XbrwuRc97xnquZ35aWr08vfl6TY43oPB6tvWrr53yOnocrz9/pStvL2oLcqlyUSBFL0uSKAZKZSa2okXpkONp8HB6vL3PM9XyHbPf3edrbxnx7mpeWpvcr0+9dquG3l9Wv571fiJr6zs6W74+2HFn1pcu5ob1lhYmBPY4/Y02hqAAAAAAAAAAAAAAAAAAAAAAAAAAAAAAAAAAAAAAAAAAAAAAAAAAAAAAAAczmdDnZTCM1EwUpkpKyY7kczp+Y3it/n+19b5vZ8lvcftn6Vf5v3szo3cnn09H4zHr+nl7W+7ueH0+celpw692+PJ4vXjIXJfHkAEkUvSxZCpQLZcWZJx5MYyYsyeQ5u9q+7l5/meoxejzeb9RyO+xta21wOWqd3mchv2mTRzc+0+R9Z5DT6V1eV1fB3rrbOtK3tHesuLJRI7HI6+ptjQAAAAAAAAAAAAAAAAAAAAAAAAAAAAAAAAAAAAAAAAAAAAAAAAAAAAAAADj6G/oZImM1EwVx5KSr1sV5PXx2fPOrvx9DyavmPQX3jy+DY4Hq4e68fg3ZcnN+ibnPXjsvpuNz1g7/z/wCh+ft6HJWfF66QhcmTHkEwIsRjvS5IpMC2bDmS2HJiJzYch5Tm+j876+VMG9zemOT6Hz2r28mfQ6WLpMFdP1011tTp4vn+vznC9VzWvpO9q7nn64tba1ZZ3dLdsyCxMCexx+3qbA0AAAAAAAAAAAAAAAAAAAAAAAAAAAAAAAAAAAAAAAAAAAAAAAAAAAAAAAA42jvaOUCWCIjHess2xZCaWHJ43rOB6eGtltT0cfJcT3HkvX59T13A95LqWyY/N2yTi1sa4H0vQ6Pj9V62rjdImplvjygAmMd8eQlE0BbNhypfXz4iuTHJl8X7TR64895H0MezzcXl9vr746OztV5erByuu1Nbo+Y4XCd/3PF9bw9OXIYtNTa1ZZ3tHdsyCxMST1+R19NwagAAAAAAAAAAAAAAAAAAAAAAAAAAAAAAAAAAAAAAAAAAAAAAAAAAAAAAAHF0t7RygjNRMEVtSWZrYArS48/qer0O3Pg03dX0cdfqczKmWuXcxrldvdyefvFjG1bVMQMmXFkJAEY8mO5IoC2bDmS+DPgioW+XBazT8x7evbn4rN2tLrjmbuPJm83Y2s2nlO36LY49KbC3LQGPU2tWW27pbtmRE2JiR1+R19t0WAAAAAAAAAAAAAAAAAAAAAAAAAAAAAAAAAAAAAAAAAAAAAAAAAAAAAAAAcXR3tHJExmwCKXrNRathEwREwICIkmLJFiJBIqAitqmJCMuXFkqQJhFL0uSKAtmwZy+DPgiopNZLWxjIoQSRFpIkJIWYmhhw7GvF9zT3LLixaJHX5HX03RqAAAAAAAAAAAAAAAAAAAAAAAAAAAAAAAAAAAAAAAAAAAAAAAAAAAAAAAAcTS3dLJBmwmCImJqJEVtUhBRABW1LhEgBAVmpiQyzZMeTQBMIpkxZCZhUokbGvnMmDNhKghAmaySBNLkglEgCJgx6uzrRk29TbsvMLLTUW6/I7Gm4NQAAAAAAAAAAAAAAAAAAAAAAAAAAAAAAAAAAAAAAAAAAAAAAAAAAAAAAADh6e3qYQRKRCkJZiBNZqiELMIJQItSSyosqJQFZqYZqjPlw5CyotNJKZMN4yTSasrJfNgyl6WpVYVJQiSCZgLVVeai00ksqLVgYsGfWMu5pbZkms2WVlL9ni9zTZGoAAAAAAAAAAAAAAAAAAAAAAAAAAAAAAAAAAAAAAAAAAAAAAAAAAAAAAABzeP6qMvK19ZU8pHqojyseqS+Vx+uHjq+wxnka+pwr5unW4RsR5rQPU38PEe5eCS+8eFL7h4FJ7188xH0ra+V5q+oW+U2j6pPyui/V4+YTH0q/wAyxH1V8rlPqc/LJPqlvlta+uc/5lmr6C8Aj30+U7tnQy9HvV5O3tJrxVvZ3TxU+1Hi7+wHkHrx5CfXTXj6ezg8lf1Y8q9Ss8w9PJ5b0WaaCgAAAAAAAAAAAAAAAAAAAAAAAAAAAAAAAAAAAAAAAAAAAAAAAAAAAAAAAAAAAESKxcUXFJsKxcc3H1h5nV9gPH19kPF4fdDwke8Hgre7Hgp94PBV9+Pn76APBU+gD59P0AeJ2vWDzux2hp5NgY7WAAAAAAAAAAAAAAAAAAAAAAAAAAAAAAAAAAAAAAAAAAAAAAAAAAAAAAAAAAAAAAAAAAAAAAAAAAAAAAAAAAAAAAAAAAAAAAAAAAAAAAAAAAAAAAAAAAAAAAAAAAAAAAAAAAAAAAAAAAAAAAAAAAAAAAAAAAAAAAAAAAAAAAAAAAAAAAAAAAAAAAAAAAAAAAAAAAAAAAAAAAAAAAAAAAAAAAAAAAAAAAAAAAAAAAAAAAAAAAAAAAAAAAAAAAAAAAAAAAAAAAAAAAAAAAAAAAAAAAAAAAAAAAAAAAAAAAAAAAAAAAAAAAAAAAAAAAAAAAAAAAAAAAAAAAAAAAAAAAAAAAAAAAAAAAAAAAAAAAAAAAAAAAAAAAAAAAAAAAAAAAAAAAAAAAAAAAAAAAAAAAAAAAAAAAAAAAAAAAAAAAAAAAAAAAAAAAAAAAAAAAAAAAAAAAAAAAAAAAAAAAAAAAAAAAAAAAAAAAAAAAAAAAAAAAAAAAAAAAAAAAAAAAAAAAH/xAA3EAABAwIDBwQBAwMFAQEBAQACAAEDERIEITEQExQgMDJgIjNBUEAjNEIkQ1EFUmFwcUSwU3L/2gAIAQEAAQgC/wDxDqqqqqqqqqqqvV6v628W8ZX1VVVV2VfkryVdVVVVVV63iv614reCrxVVVVVVVVVVXz61WqnLVVVVVVVVVV2WKxCNPwrVaqbaqqqqqqqqqqqqp81YrHTA9ei3/TDf9P121VVXZXZVVVei7qvQH561VVVVdtVXoV6Df9I12VVVXYD6/nMqqqqqquxv+kG5w+fpR/6XD5+lH/pePR/pR/6Xj0f6Uf8ApePR/pR/6BOWOPu4r/HESOuJkZcTKhxTfzExJsuvHo/XIhFqk+KD4fFSu+XEYhPi5mQ4z/eEsZ9vXHz/AP5eSci7KoAIzysgh94yjlF7P/A9RspnZrRUeJIe9nEmqPVj0frTYmnpiC+Y6O8EQe6x4ce3ehILiz60TVrlDHuwq7Yl2NCQmNR6o+fzSbx6K5/nDsByWliJpmN4wyrnGe7kZHHaVFANubyvlXZCbw1NxISFiHqR6dXEzV/TBndnyhJhmBYgf6oqpvRILqUaGSw0VPU+IloDszaqEyAshJiGo9QfPsXJbSIXemSpV0DuL1WN92OVPsYipa7vZEt25NV33MWm7xE2ZwlFh/R1Y9OpNKMdGco45BzLDSC/p0IVjPeA07oiqmYSJjRPaNFK9x0ajs6YKd0UrRzZ9QfPf+VGdZTlL9I2zeCP44c9Wdr2tKIbzo+7j0XYVhlJmycnJ8wMQRzES1zfDSbyFn6gadSYyORyUMpA6GQCZqyB/vm/gChALGdYgKNcMEgDWrmJE9f6dmozDJT9N4ZH79zhR1iNjHLpj57iitw5LQApVwUco1zI2HuPtvYH/WZO+aKh5E0MLaygI5j8s6Ybicl+mPdg5aykHUDTpzPSJ1bnnb/gN6zOKB91kUxsZ1ECcAFlc9VuX/gUZ2pkZPuwJNJ/uvWEP9Rx6g+e472xZZOIpxzTRuTp/wBJkclyjjLvdhNRPm9z5llJIDM4oRkN/QcdGa9gBYdhaYXbphp08aVoCgJyTNMpXmErUzPWjDEI5kTUaqYs1Ur2tZ6svl3We5o25NUBlCTNiBp0x89x+gISFmo+8q9o0NmrMVLlDbvxvkb0upDyajZkjygd1FHVC4s1hnE457IvdHqR9vTxBCNrlv3+ClqpKkMRKIrJWdOYu2RtWl1W3juzvYNU7k7qwG9y4W0uzTZphccRGvnph57jW/SYlWJ2ul3/APHD6vV5aUZxW8lfJXF/ILblIP6bqB+5MAP2fqAnjA+2EHaca9OPt6eM9muy0y0BnYCF3E0wOhIhKj2jdVS6ioyYIndMwm2RgQKmdFGzPKh9eMFuoHnso3xEKEBatWsZkLF8N8iLQf8A9N3G1FKAUqL/AKZuzORPrhiYZvVIzM9FcY6bx6LDVepdSPtfpyjfETIXdVemd0lKJqUde2GZ11W9Kid3fWOrwumtqzix/EssBRveEGTOT4JnIzlfpj59i42CW5hJhfJmcu++1qCz1tWjuTt6Qzk/5o6dmZmobtIDSM+bZN/hgGwGbqRdvUlDdzOyf/DZ6K20WufW8h9YTAqVZZKH+TL5dkJmOkJ5+id2b0BFHu4xDqD5l89SSMZQcCcTjktL4qi+EDM8zWkzJyqbuvTLhyZ2jnTBGL1RykVWb/8Azho/5v1IuzqSA0gWpwd60ije/wBROz+tycyJYcqTDU4jGQhZopEDwRM7G/crXqnsiByfBxO77+TqD5l89WaEZmVSieyUg+Ww40qSmf4VCQG4VYSI3omronYBb1wRPJmv/OpD2dWWJz9QX3fpyS1cvV/lXVkZ08kz65vr8JozdkRxxssPhzlJpJ+qPmXz1jAJBtkfCzR+qC9mL9Vwvf0bs00dUVgZkLzy+mGHBsL3TdaHs60kcco0kKKeLT+n/k4wOn3TLeQjo+Kf+LcXiHygwkcWZ9YfMvn8B6Pq8EDp8NCuDhQ4bDitMm68PZ+A4gXc+FwzrgcMuAwyCCCPt/AHzL5f6WH2/pQ8y+X/AAvn8OH2/pR8y+X69FRU2UVFT8CD2/pR8y+X+lg9v6UfMvl/pYPa+lDzL5f6WD2m+lDzL5f8L5/Dg9pvpQ8y/l9I+ih9v6VvMn7n+lh9v6VvMn7vwvn8L4UPtN9KPmT934Xz+HD7bfSjp5kbvf6f1FSVfqr9ZNf85rNVdVdVJVmVZldMrpldKnKVXzIHkrUqus1n1/h1E/6Yqjqjqjqio6o6o6o6zXqWf5Q6eZfNfpD7XULUiGv0jeYv9K+Y/TN5g7/9dk6bX6Z9WXz+Zl0h8uNDtHT6J0/cy+fpX0TeXSIdo6fRv3svn6ZvLpU30z94r5+mby6VN9MXeK+fpm8umTfTH3h9O3l0qb6Y+8Pp28um1ZN9MfeH07eXTapvpj7x+nby6bVk30x94/Tt5dNqyb6Y/cDbIbRjV+JBcUC4oFxQLio1xIrigXEguKBcUC4qNcTGuJjXExrigXExriY1xMa4mJcTGuJiXERLiYlxEK4iJb+Fb+Fb+Fb6Fb2Fb2Kq3kS3sSYhftTa+XTapvpj7w24r2tmXPl0KbaKmz4z20205MJqWwdfLptWTfTH7gbcQzvHlaaoSYSVHoqEqOrSVHVHVrq11RUdUdUdUdUeqzXqVFTZ87MtmSyWXLhP5bG18um1ZN9MXuD+ZkqMqCqCrQVgKyNbuNbqJCIj2/CHy6XVN+NkslkqsqiqiqsqiqiqiqirhVwqrPpsLvD6cdfLpdU2zEuTGNLzVxq6RXGrpFU1cauJVJVJVNVkVxqpqpfFSVSVXWezP5z5M6L/ANTcmH99tpd4/Tjr5dLqm2Yrvba0EdGW5hRYbL0KEQIyY9zCtzCpowAKjqmG4mZSRRNG77BgiIWdcPGjhjEHdfGzVRRbxbuDteaLd5szXOzJooY2zeKKQfQ7WvR4N1bQ/wCmVkaxDCxNRQe8O0vcH6cdfLpdU2zFd7bX9rZhjK618SLVu2NV6M0YNGDu8hub3bIxaMLik9olmyzUAEb1fESVewdlEDWxNTdTl6kckvbI3pJnYjkloKw4lGL3SvdKTr5UYPIVEZDFGndyerqH3m2l7g/Tjr5dLqm2Ynvba/tJlD7rLE9jJlDHa1Xnku9AsoI7nufEOZvaJ+07LTuosoYNgtc9Fw7qQLCX8ariZLlOLHFXYJWFVo5GmqJTBYaZiJ6MzBDGjIpDq+uWyH3R2nXeh9OOvl0ibZifcba7VCiaCWucMbjmU8lx2tAH83m3rtSPcSoo5GarxSsA0fiQRFaNylPeFco/VIKxT5MOxndb6VORSd0JXxLcFdRTPZDRR2bxrpYat+nDE4vc+JJnPKEGEGUsZyOuHNSRFG1XUXujtL3B+nHXy6X4TbMT37eIk0XEyIpZTbYMpA1G4k1xEiKcjC3a85kNqogOx6sZvI9X+dmSpRM7iVQ4mWidyLuQyyhkimlLY0so5Nv5lv5kRmbepR+4O0u8fpx18um1ZNsliveq4Z1wy4ZcMuGXDuuGXDOuGdcM64Z1w7rhiXDOuGXDOuGXDrhlwzLhmXDCuGBcMC4eNcMC4eNcPGuHjXDxrh41w8aaGNnrtLvH6cdfLptWTfTF3j9OOvl0urJufNZrNZrNZrNV6cswR5LiJ37RxJM9Jtk09uUbZtVO7CzkT4iV39EU9z2ybS7x6GazWazWazWf5I6+XS6puWSQYguM8VMem8lV8qvlV8qvlV8qaWZlFi3rSVn6OmahHeyu5KaMZRUIEAWlO0jjQJIniZrg9sVinpEoBthFYwe02B7oxfaXuDzE7CLkUmKlN/TfIr5FfKr5FfKr5VvJm0ixZVpL/wCbSe0XdcQKDE914zAZMzFIwSMJHNGNVHODg19WcatxIrio1HKEj0FRnvKoJGOQhblHXy6XVk3Ljjums6WDOsbi7adAsxdlhe822s7PosZ2ig9sFi/bZRe0CxftMoPZDaXuDzY8/Sw9LCG5Q0duSczaajfGWGzizMv1LJMQ8d9jfpsQqoMLLFEBALNiLH3VPR/GQZn9s2njJBFigb0tWmfIOvl0urJuXFtbiS6WBbudN0ZLoZ72aeF2U04O1g4aOwK7MX2Mo/bBSjdG7LDSC4WviSY6AItQWbaXuDzf6g2Yv0sC36bpuSf3tmG9lTu98QDM360ijFrohcgAmteaKMSjEJoAC20IIgKrFHM5O4y3tJRCOKJqsN1rMXIOvl0urJuXFwb4Ki9wvQqqqqqqqqqoBOQrQjBgBhbouzO1HfDROggjDaYCbUJmozMyPDxE9UEAA9eQvcDmnjaSN2c4zjehVVVVVVVVVUUMkroRYRZmbaV1r2PHiXe57MSohxQZIhLe7wQiOyRzslEQIY2kGKhRRnvHllmFyFqKU8RdZHDC0YvVwmgesQOTizlyDr5dLqybmOOM+/hMMuEwy4TDLhMOuEwy4TDLhcOmAR7eq5xsuIhXEQppI35y90OdxF9dzEtzEtzEtzEtzCtzEtzEqM2n446+XS6sm/KllCJs/wCom0bCj87iFPBC6fCxvpZiYe2KcJMuUvcH6cdfLpdU35M0m7BQwu77yUiYWq5Yp60BsSzRteOJJyap4oW7YJCMXd5oGPMIJHL0HtL3B+nHXy6TVNyb1nn3bI8SAlQYzGQbhkMYxuKPEgRUdHigEqNGYyjcISsUjx7HlpM0bdGT14sR2TuUmIYBtCCNyUUe9epYqmUYxRU9Umyf0TBI20vcH6cdfLpU22Z5KM0cQPHiWYpHoBOsILbtycG3eLIWm9eJjBYkB3VVd/TXLCiO7ueNt3iiFpfRMB7IPXNJIiut9NmKW7xC3My3Brh3UcVj125NiG2O9k41m9t1hcmKNYhmY71qzPtxX8G5C9wfpx18ulTcn/2Kb2SWHyhFF+8FP+9ZS+0SH9moPZFf/Yp2rG6eT+mvWHG2JkTuw1beYlDdb6rsWo97T9UuJq9kbYiv6mzEC+RjGbSBc00V4vQZ5YvTITGwjNHvd+4iQyTYf0lGe8Gqd2ZqvH+tNvOQvcH6cdfLpdWTclP6t3RtcDsopQzYo/1MQ5qX0SsaxEgbugsP9PaoTBhtKL1zua1yWbtuVpl0yjOEr4Y8RGXd6S2WinZn7ilij0bfYh8xEQFhHaXeP046+XS6sm5LRuu2HBEb1cAEGoDixNRxw8QvXYcER5uACA0BWtWvVKGInquHlD2/61f1q3WKPuHDRt3cpd4/iymYN6cJVwJ3UTu88tVKThG7i/FRhvHF7hYlMRDu7eiOvl0urJtuSybW4FVn0TEDvksvlZNqsvnJ9EJCXat7FW38Mu9vxfh1hfafZB7k2x3FqXYgZqO6jdnjF2n7oukOvl0urJtuI96FYz22XCNRQw7p3U98krRAeGsG8IjviuIIyxFTPDueYHZv5zUF0chQlOzyzjGmDh5xtxVxOEbHDuaSRzu+49JYcGw9yidyiF36B4hu2KEZ7r5ecu8fxX0dRjYNNmH/ALuyUL2Zf1Z+lxZhFhafvi6Q6+XS/HJiPeiWM9tk2L+FBLvarD+/K+w8oioBzuDDDBJvBzw391F+7FYl7DAhAylxI72egyAb4iWN47We3hWvcpt1Rwt3Y2qrfNwK+NXxq+JHPECsnnzkAABvTPIUdlCuYXtilYxe6GQ5SJ25C7x/HlGT3I495JUAZqMzbSZ3F2YzkYh3sQy1c5egOvl0vwm24j3Ili/bZUajLJlHlOQontFycDKWAnfDUaLKL9zJSDukZnzxgpmZ8YV2K/tupd09AkliiijdTt/Txsit3LrDewOw4I5CqXCwrhYFw0C4aBBDEGY7MV/bW5xCskMipEMpgzg0WJ5C7x/FKtr2xzVeyWWM5HYUULZFC1aZo5t3JQ3f01BsPdV5omlH0n0B18ul5JQIjB2xAkYei3GqBp2d97NFfQhsxZuzGLMI2s8eIB33MMe7DOSOVpN5DDGQ1KSaMydiijjmI7p5g3g5BFMRs85jeNFucS/oJmYRYW6JCxO1Sa4XZALA1BGMBNyHkLvH8aWIJWzGSSF7Jz3lG3Q8Vc1x7+v6YtKVWnslw71jjkCRqj0R18ulTbdGq4yxE9BMxDvCWM8hImFqu88TPRxmiMqCRCDep8tY5Y5K2HIEfezs7M7b6LeWIyEBuIJBkaorfxNJZ1Mucu8fx8RnA7IOweWCm+mp0R18ulTbcTV7I2lw4CFY5/XHE7yxBFYcc/YzKeOPdmSiijZhJTkRyM6xVd3RiAYjhIbBPFFfF6GmFBAxYdSA57tnBmHEmwvo9NyDYYro3d4gd9spWRE6wp3R0fY/7sdk9xGEQlhxEXeKUt5hBJRG7gQHh/YHkLvH8chuGi4ZSRvG4chQVJ3bhyosK7vFnzjr5dKm2n+6jUs4RlR5yvgEwIpXIN9L3xMp/ZNB2CsR2AsR/bWI/toz3WIqQE5NiCTBI0bTJ6uHpgq0piaxDu9IxZqMzcmLP1CChPdzNtf90z7JPQbSo5ws9BBZhhF5xdqShB7I8hd4/jmbANxcTCiljkIabXxELPR+IhosL7PQHXy6X4TbZnYZIzeQY3FyP/4wWIpw71zuhrN7JqP2xU/aCxHazqX1HCzVA5XjMPUMxMRNwbK5wKIFri8rhzpBbcUp/wDm2UA3ZksKAPG7ly0FtP8A3lfvH8fEtWJDNA+RUD42gcUckm8FsObVFmZtOcdfLpfhNtMWMXEuHm0c46w7sWwpV9Vv6lyJrhdkLWizIxuZk7XC7PFDuyuUsO8erALALC3DjfVSg0g0eKJok0bCxsnwgOha0WFts3smsJ7T9V+8fyCADahRXRS7p9tBUse6ffQi7ELE3OOvl0vI7szVcJojegkQi1SjlCTtMxjG4o5Ql7JJAjapRyBK1QJ7RcnjNpAubpzeyawnsv1X7x/JkzxcbNySUaIq4f2B6Ad3l0qbbiq0AGOBvTucT6iiBSC0UsZhP6p4gchGPEg4yMx4oGejBimtxL0hWH9BnH1JvYNYP2n6r+4P4pmAN6wkjPsMxjG4nxLf2oIiGpyJyEe5b+GtE7niStFmZmo3OOvl0vJi6scdrhJh3CRS54iJYrtBH+6BYjuiX/2OpffhWKdr42cpY3xIOHTxV4mgvchEVKe7jck0WJdrnhNzF75zIWEQ3eJBrmOVywryC0c1FM8l0QC0c7PnsL3B/FeK6a8/Q+KHc4v2kzC1KJ3Zmq8t8lJHWHACeS7ohr5dJyYnI4iWLpu2ZTemWF3xGZxA0vpxMbvL6p4gYssYNT9WLjZjEJcRR54QjjujZ6iz9OYL4nZYQc3PZiWuiQkJCxNDnLMan9JxyJzBguTM/BGhw40F1iWuKJkEDAVW2P7g/izldLu3iLDD6Y8V7bbZgeQLWladhBjC+314f+50g18ukTbTETFxIMPabEcgDINCigaN7nkjGQaFFCMealjGUaPFEMWgAwO7s7XC7Jmo1OozMLUbY+Hhd0zMzUHLR+HhrVOzO1HTiz0rtf3G/FsjfVgjZ6s7M+u12F+5Mwtp0Q18uk+nf3G+nDXy6RN9M/uN9OGvl0mmyrK4VcrlV1V1VXMrmVzK5lcyuZXMrmVzK5lcyuZXMrmVzK5lcyuZXMrmVzK5lVlR1R1R1mqPt/uttqyuZXCrhVwq4Vcrlcrlcrlcrlcrlcrlcrlcrlcrlcr1cr2V7KjqjqjrNZ7Q18uPNk5Z0Fhb5bl+HTSRrexLexLewrewrfQrewrfQrfQrfQrfQLfQLfwLfQLfQLfQrfQrewrewrexLexLexKIxKRmHnfvqr6vRrP9zCKy25LJb6Jb+Bb+Bb/AA63+HW/w63+HXEYdcRh1xGHXEYdcTh1xOGXE4dcThlxOGXFYZcVhlxOHXE4dcTh1xECjkjM2t5X2Br5fpXY3L8OizMnVqtVqtVqtZWq1Wq1Wq1Wq1Wq1Wq1Wq1Wr/Tm/qud9VivdgWTc/w6ds3VFRUVFRUVFaqKioqKiorVRUVFRUVFg/3I8z7B8vfXY3K/aSoqK1UVqtVqtVqtVqtVqtVqtVqtVqtVFRYFv6nnJY33MP0Ph1TN1RUVFRUVqorVRUVFRUVFRUVFRUVFRYT9w3M+wPLy7tjcpdhIWVqtVqtVFRUVqtVqtVqtVqtVqtVqtVqtWFamI5yWP7oeg+jqitVqtVqtVqtVqtVqorVaqK1Wq1Wq1Wq1Ydv125n2B5eXdsblLsJD1X6OH9/nNY/WHoPo6b8DLldRe63M+wPLz7tjcpdhIeevXw/vtzn8L/UP7SbRud9HTfjR+63QDy8+7Y3Kftkm0/Ez2Yb325z+F/qP9pD2Dz/DpttevVV2xv8ArD0A8vPu5y7CTdSvSw3vtzyfC/1H+0m0Hn+HTdWvRi94OgHl593OXYSb8bC/uG55NGX+o6RJshFuf4dN+NF74L45w8vPu5y7CTfjYSm/bnk0Zf6hpEq6c/x+PF7wJtOcPLz7ucuwk342F/cDzy6MsfpEv8c/w/48XvAvjnDy8+7nLsJNp+Nhf3A88ujLHf2l88/w6b8aL3gXxzh5eevOXYSYler1er1er1er1er1er1er1er1er1er1esI9cS3PL2rG/2l8tzv2um5asqsqsqqrKrK5lcyuZXK9Xq9Xq9XK5Qv8ArB0A8vPXnLsJUdsn61G58H+5bnm7VjdI1/Jud+11nsz2UVNlFRUVFRUVNuSyWSyWWyH3gXxzh5eevQxf7o/xsD7z883asZ2xr+TdAu4vxsL+4boBp5eevO+inIJJbmoCpGqAqAqRqkapGqAqRqkatjVsatBWxq2NWgrY1aCtBWgrRWEo03PN2LFaRL+fQcak7tu3W6dbpbpbtbtbtlu2W7FbsVYCsjVkasBWxq0FbGrY1SNUBUBQWtK3QHTy89ed+0vx8P8AuB55uxYrSNfybnLsJZ0Vfwa8kPvB0G08vPXnftdM7qrfP4mH/cBzzdixOka/lsblPsNCZUV9da/iQe+PQHy89ed9HX+fxsP+4Dnn7WWI/tr+WxuWT2TQ6fjYf3x6A6eXnr0Pl9luSsdWOrFYrFYrHVisVjqx1YrFYrFYrXVuyD9wHPP2rEf21888ntGh02MqOqOrXVHVrq0la6tdWurXVjqx1YrVarVarU6w3vt0B08vPXoP3Eh1TtRUVFRUVFRUVFRUVFRWqioqKiPROsO/9QHPP2sp/wC2vnnl9mRNoqodWVFRWqiorVRUVFRWqioyoqKionZGsL+5bmbYOnl569AvcJRN6mRZv+FIjUHvgqqqqqqqqp+1lNrGvlVTOqqqqqqZ/wBCRfGwNW/DNlh/3LczbG08vPXnbVSe6ag1ZPyZ9X4Ro2yUNzTArlcrlcrkJKV8lLqGyquV6vV6uUhfpGs1nVDq3M3VJR5YkUzqvI2xtPLz1521W7kKQ6RxuNNlFRlRtlFRUVFRUZUVrKioytZWsqMrWVoqgqjLJZLJZLJZKjK1lRlQVkslkslRvm0VaKoKoytZUZWsqMqMqMqK1layoqKioqK1Wq1WsrBrVVJkx/5Z/wDGwdjaeXnrzub/AB4BpoJ/DodjaeXn3bH5DKr0bkq3zVuTPbny58me3PbmqLNUfkz5M+XJa6cmazVFnzZ7a80Z19Ljpsby8n9Wx9sj2im15T7lX7TLa6qgf18r5OgeoM+wdPLnWTrTXbiO5kPLJ3bH+4j725SUD/o7B08ufTmm70HKfcm1+5DvblJYftJNoh08ufTml9x0GnKfempVvr6dF6VQ97cpaLD9pJtEOnlz6c0tL3QaclEfeh1b63JZdItU2vK+ihdmPYHlz6c0vuug05T73Qa8+v2Jar55XQZmzL4QeXPpzTe6SHTlPudBr9nXlPVfLcr6KL3Q2B5c+nNN7xJslVVZXK5F3Om2VVVVVVVVVVyuVyuVyuVVcrlcrlVXK5VVyuVyqrlcqqqqqq5VVVVXKqqqqqqqq5XKqqqq5VVyqqqqfZXli90NgeXPpzTe8XO2yv4NeWv4lVVvnqVVVVVTKP3Q2B5c+nNN7xc7ffMovdHYOnlz6c03ul9/8czKL3RTIfLn05pvdLwVkHc2wPLn05pvddP4IyiasmwPLn5p/df8Bs3TzE0j0eY3W9kW8kW9kW8kW9NbyRb2RNKeif8AA/5W+kW8kW9kW8kW9kW8kW9kW+kW9kQyG5tXrsoPc2B5piPcT8rdJtUXeXRje2RnR934D9hdKP3B6b8rLD9z7A80ljvarO3K3TPvLoj3si7vwH7C6UfuD035WUIWs7uh8vIfnmIALu3EK3EK3EK3EKOCmYdIm9ZKioqKioqKiohoxZlr+B8OqKioqKioqKioo/cbphERrhwXDguHjW4jQxgOwWr5i7M6JqdKWO7MXEmVFRUVFRU25KjLJZLLZRUVFRZqjqjqjqjqioqclHVHVHVHVHWaoqLJej49K9Koyoyoyp/ijqjrPniju15hZvM5Px8uqXa/WyWSy6eSoKoPQHzOT6Qu36UPMz+kLtf6UPM5PpC7X+lDzOTX8ByVxIjmpk82KZDiz/mE0R6dYu1/wHkFlvJn0unV2JW/xA6ji4X7mdnardYPM5Nes5f42O+zJOAOigF9GOaF/VGYSNUeo/b1jNhWb66g6bbRlLEztUWeaJ/RBiQlyLlboB5nJr1XdP8A5Zn2SvbE5K8lvCZNSwXZOzO2bscJXRxm0gXN037erNJuxyjdn2DqmyJ22PQRq7G2xwZ1JD/tw0+89Bt1A8zk16hPtLL1DVTGRNRWunZ0OUYqqapKguNEDvh5uo/b1NGRep6pwdnqIlVfDo39TEmzdGbmar/kCzo+idqqYHahjFI0kbE3I3OHmcmvU3/6pJiF9KqtFJUGd2pXYXwr6i1GH5PZiQrHVYU7oem/b1JSZnYXp/hGVSyYzTuzxJrrXqiyUDZ3PsJqi7LClZK4O2x9jc4eZya9M+11uwW6H4O4Bqt8T5L9SlHVFa2iAhjbNnbXZVSGNjssG/6rj037epM9Znqzu3bvRtdVTUtyZnWbsqJ9VHQRVVmqEpfTMJN0w8zk16Z6LJMsT2ihdmJndpoXRELNlRExXNTJPW56RtcD13TLcqONwlF+m/b1CYXd6vGPwYO+jNTWtHVVmzZkVmacWL1MzxfFf8VLZivhB2j0x8zk16eK9pXkmI0ZO7ZsqKLMaPbR1JKTPaF8iZ1C1Itv8m5W5i7eo/c6qrv8WmXcQeu1bt0WQ+rIlRhQFR0zs+mzEvoyDsHph5nJr05huiJkEOXq3YMnEVZ68pAsURCxOnMLUzVdWl8UdnV0i3hrfO2sRtI+XSLt6kjet16WVT+NM3F3uuTSCjJzLN0xO+T0qTMzCLNRExj273/LvvJRbqD5nJr1NH2PnkP/AA0uqZfCiejr/lUCicQdFE/8Seiw4WxZ9Iu3qTD87ZHyt2EomvqiF60VHZ84ma6u042PTCBWQjTdMPM5NepI3ytV/wCKXKtWVFDGzRsSzZaabADez9Qu3qasiZxeiEXLQndydMyepFQQGwUbNeytF1RhNlfR6Pk6lJ3dogjBowYWbph5nJr1Sa19sguUT7HrTKlIg2aaonLsCMGAbW6ZdvVkG5smd2dEzHm7iaAN2NNh6NsdmdSPRkxkz5YeJx9Z9QPM5Ner/wCuDtpXZSqYXqnf/OxriyEAYNOoXb1jjY04uPczu2la7NQ2yVN7I4cOMeZdUfM5NeuQCSeIvi2RetUkTAfzu2+esXb18n1eIfjdkrTQsSsJbuurCI9vWHzOTX8L5/CLt/Mz6I+Znr9IXb9KPmZ6/SF2/Sj5mev5zcxdv0o+Znr9IXb9KHmZ6/SF2/nNzh5nIPRqqqqqrmVwq8VeKvFPILEy3ka3ka3gLeRreRregt4C3oLexq8HWSqqqu2qN2YFVV5KqquFPJGt7Gt7Gt5Gt4C3gK5lVVVduazWazWa9SoSoStJUdUdZrPayHTzWjK1laytZUZUZUZUZUZUZWsrBRQs6LDp4CZbt1arVRU6NXVXVXVSVXVxJyJ9auriVxKpKpL1L1Kjq11YS3ZpoJHQ4QvkcKDatGDKjKjKjLLq5f8ARLiK3YLcAuHBcKK4UVworhBXBiuDFcIy4JcEuDZcEy4JlwTLglwTLgmXBMuCFcEKbBCuDBcIC4aJbiJbqJbsFaP/AODL/8QAKhEAAgIBAwQCAQUAAwAAAAAAAAECERIQITEgMFBgA0FAEyJRcJAyYYD/2gAIAQIBAQgA/wAt7LLLLL7lll6WWWX6DffvSy/6of5dl+hPrUGKCMEP4rVji13km+F8cfvCJ+lEcN3jv6NFH0fGo4kkrQxqySp9xJtkXFbCX7lpOX0RhSTPkiuV6KtPji9xJGxJJOz5Emk12/jS3Y4p7kLsbeRirJuls7Gq8++lckbIwsVLZNXubLck2+Zcdz43Qm7RNval/wBqP2S3VLAn599KEIzQnexLh1b+51T7nxq9hRqjOnQ1fElwjeA5Jol599UZ0ZWITpkpxQ5fxJ9yLFLYim3YnuybdbWq3k1brz760xSLQ2hy7a1TI/IZo/VQ52N+gPsWWX+BZkWX6C/Xn+dfoD9efrz9eaKKKKKKKKKKKKKKKKK0oooooooooooooooor/DZemIooooooooooooooor0+yyyyyyyyyyy+pedrporrf8A4afrz9efbRWlFenv0+yy+zRWr6bLL9UrV+vP1qinq/T6K7z9XooovStGL15er1/WVfgP1ytH/VeWmRZZZZZZZZZZfTZkjJFovosssssssvzldDkZGRkZGRkZmRkWR1Y0LWRZkZGRkZGRkWWL0B8vooorpjxq9FrPTc3Nzc36Y8rzj6Hy+xeseNXwz6QtZ9tcrzj6H1XpelkONXwz6QtfkfbjyvQHz24cay4Z9RFr8nC7a5XnH0P77cONZcM+oi1+XhduPK84+hxMTAwMDAxMDAxMSC21lwz6gLX5FsimYsxZizFmLMTExMRKmvOPom9yyyyyyyyyyyPGsuGfUBazZZZZZZZZZZZF7rzj6Hy+1RDjWXDPqItfk+tKKKKK1ooS3XoD5ZRRRRiYlGJRRHjWXDPqItZ/WlFMplMplFFFC5XnH0SF2b3EWWN7M+oierHt2ovf0CetlstmRbLZb0yZZkZPTIyZkxSJO9LZbLZbLZb0sT3sU0Ji85Kb4XgE2iMrXm5OkxaPgj3K1rqoooroXJRR8b3a838nAih8EfzFzrD/AJIXmvk4Fo+CP41l9P3qnTQvNfJwIsk9hMssyMjIyMjIyMizIyLLLMjIyLLLLLLLL1bFyhea+TjWiuxWu/4e5DlC81Pgrs10V2a6qK0WseV5uXHZoooorspGJiYmI10rWPPm5cMdrV9Nllllj7CZZZZY+tkFb87sUiUWUymUUOLMWYsxZiyiimUynrRTKZTKZUimVpRiRiUikKvNPv3079qy+leafhF5p9cYNmEVzhFj+JfTi13lFsUI7p4RH8cfpxa615p9UI3uIxtpGCWjVjVdxCf0PlFWOFcWiSrqXmn0rlGCpVUvqMWuf5t7c2T7ijsQiSjZRLZI2HTW3SvNPpjyjFkdlQ0K2Y3y6TZJ7dxfQppEmqNxptGKGfz0rzT6UKTNyO6H+1C+Rlo+Su5BJ80hxLithuhyY5PVarzT6oSLIS2Js4GyTvuRe4jJIb+yyaX03qtV5p9cZfzmjJDmhy70Z0ZJlozHLoWq80/ArVeafgVqvNPwi83RRiYmLMWUzFlMplMooqRUipFSKZUipFSKZTMWYGJiYmJiYlFFFf4o/wD/xAAxEQACAgAFAQYFAwUBAAAAAAAAAQIRAxASEyEEFCAwMVBgBSIyM1FAQYAjQmFwkKD/2gAIAQMBAQgA/wCK9lll9yy/Csvv2X/L2xyZqZr5E/HcqNdmtmr2O8pvkTEWLxWyf0sXmJFkH7GY20YjTSE2i2R5RF+JJiZP/CSo1sg9TK9jMbYxHLI0Vz4k42OHDIK7u/xqsgpJ2XJkfYrGymO0K0aV+0U/Em6NUn5rDQ1pbIebKvyoXsVps0JDGrQosSoXiNFFko2iEXZVeyKKyoS8ZoaZTNDFH2VX6Kv/ABgcZ8d/jKiv9N0iiis6KKXe4/mRJ0myWLM3sQ3sQWLMwsRy4fjYk2uE5yNyYsSZDFkhO17FlG0ycGaDQKDMODXj4kWxwZoYoMjBi8l7GpGmJpiaV+hpFIpfxtr27x/yGooo0s0s0s0s0s0s0s0s0spmlld2iiimaWaWaWaWaWaWaWaWaWaWaX65fcjgNpC6VnZWdlZ2RnZGdlZ2WR2aQ+nkPBZiKnXdvPBi5WjYZ2dnZmdmZ2ZnZpHZpHZpHZ2bLJ4bSb9fXmjDS0xFRxnwcHBwNJjSOq+4813ehVymKMSkUiolRKiUikUiUUY0Vol6+vNEE9MRIoplFGkplDQ0dX9x+B0H1YmXOVFFZUUNGKvkn6/HzRhriJRRRpNJRRRpJROr+4813fh6uWIaDSaTSaSjSUOI0Yy+Wfr680YX0xKKK78jrPuvNZPP4d9WIIorKiu40Y30T9fXmjD+mIvAZI637uayefw36sQXcrKs2Yy+Wfr680YeN8sRY5vm+b5vG+b5vjxx41nVu8S81k8/h0lGWI2sWBvRN6JvRN5G+jfRvjxx45i4rcZewOnwntwtYRtG2bZtG2bZtjwh4R1SrEeaH+48+ii3KZtM2jaNo2zbRtI2jaHhGNh/JMfry80Yb+WImajUajUajUWOQ5HWc4ma80fkefw508QUizUajUajUajUORiy+SY/Xl5ow38sTUazWazcRuI1m4h4g5HVczRRpEj8lFFHRecxM1o3EbiNaNaNZrNY5GK/llbTKH67gNtR8KSqDZi8tM0mkrkrzKKKOnehtmFPVdcd282jqY1AaeT9aRQkdLGfDNBoNs2zbNs2zbNtDScdIujidkidkiPo4t2djR2SJ2SJ2SJ2RGFhbdmiJoiaEaEaEbaNs0mgxMPXHSYnR4q5Ti15y9aQjp+jSSnP/A/8cnJycnJyc5clPLnKnnycnJycnJznznTLryxMDDxVUuowXhScZesUI6TD14sU5KuBmH9RiuqLLLLystllssssscjUaiyzUWaiy0cF5LhoklpYiz4lC8OEz8+sIR8N+8Yj+ZjZh/UYv7d6y+7ffvuXnYlZLmDFl1nPTyH5v1hCPhv3WT83lhN6jF80PwLyvKxZPvaWzQJVlQkf2llk4KWFiJvzfrCy+G/eJRbbHCRhwakThZtG0bTNpmyzZkbTNqRss2pG0zakbLNpm0zaZtM2mbTNtm2zbZoZts22aGKDP7aKYkyfGFiofrCy+HP+sIdFotFosstFllostZ2i0cZWi0Wi0cHBSytFosTGxUfKdRJLDxB+b9YWXQusUUuByNQnlZZZZZZZZZZZZbLLLLLLLLLLLNRZKRYpHUO4TH6wsuif9VCfBY2RZZZZqN5G+jeRvI3kWXlZZZZZLEUeHvxN+JvRN9EZ6iy8rJMsR1Taw5j9a6bEUMRScZJpZSIPju7Ztm2bZtiVJeBONs2zbNBoIKr7snyIR1s0oSXrixcSKpb+KR6nGi7On6qE4m7A3IG5E3ICxsI38I38E38EeNhG5A3YG7hm5A3IG5A3IG5AWLhrz3sI3cI3sI3sEeLh3xuQNyJuRNyB1PV6Xph2nHO045KcpO5ewLZbLZbLZfestl9y2Wy2WWWWWzU/9RuVGo1imJ34zZbLL9kSkN/m6RqyTE/EY8nKiM79kavy2v3b4pC58kmLxJSpk58KlN0W2+YeeS9ivyZqQ3lSQmK6I+GzgcL8qZRFpPJexWNZNUxLUzQUyCfiMcqLZplyyKtlCXsaSKJqmQySYl4jRLkUWJUqKI2vZDiUymKIl4ziUUUV7Jr9HRX8ArLLLLLLysvwLLLLLLLLLLLL/wCKn//EAEAQAAIAAwQIBgEBAwwCAwAAAAABAhExECFBURIgMDJAYXCBAyJCUnGRYKFQsdEjM0NicoCCkLDB8PGg4ROSov/aAAgBAQAJPwL/AEeJj/YbGP8AyGc3089z6ee59PM308zfTzN9JnfkiH7skaPwL6HwGb27kQtlxQ0SD6H26H3JVZOGDPF2IjXwKWgPuYXDlo1PND+o5rbZvbXvGIc2R9iFshk7OxvMvhy6HfzUP6uzGh/JqG66pfzZuxXRFHfCYGLKl0GKKPa5va09Tt7WfDLyv+x8Wd10M3o6vkKUKuVjo7iniQ/rZTEvlufB6i5cx6cX6Hlh5/7EU9J7XN7T1H2jz8sRSaqUjgtvuob0RRXF9j8sVV0KwFPSuQkTREmjCnK3/Cy+R9EKcXpG7Kq57TPaUw+Ccjyz3Xh2FPKNVL1ArhXs9NSj/eOROIgI4YTTjZ6bpdCcbrH2HovPA+0O5Gdl5PkdzAVaIvftQtFSu2mez+LVOF1hH5fbjZ3L0yUsiVnwN2YroTmZSHY5qzsfZWy9kMzxVPKHicxNiS+SMvZfqd7KzHAiOZ8dCqkOlEOHw1l6ibWEympWK47k0s0eZe5WZ7TN7NJ5TJL4NIljAzuRw8jC+asxoX8hub9EP8SH/wC159EjPoT6YiO5/wBHDXuQaMOLxJvI72N6lJEfZi7r/dHl/cLnPaZvZ4OyFnKJfIipTK1Tm7zzQ/8A6RTCKyiPT0JxRU+kQyX6HncV1xdyVSd9CkN0cP8AvY+xuxKVjZJlFctpm9tumB/ORV5cj4b524O8egyG5+r098jzQFD+yuhVI/3i0nzoPsXFT0wm94l8S5W71Rf2j4dnfaZvaU8S+Eozt8mF/wAv/wBFfT/Ero6UPzbjY5rJl3vge7LkViojv0Kx/eVhPs7soUrEMXnhvhiQtFczzNX8iSheCs7bXN7S51hfMu8Rb8Jhe2btIF/zMxuM7yGJ3sUucVxHpRf1aKxH/ZV7i6GXRrdi/iKX/MC9HY7lGSvUnMm7HIWj4eeMRctrm9q9HxFR58mfycXrWfwXL0nYUmN5jsXdj0ojdW7D0OWkiLTXsdSGKF5YEadiS5kSnkiA88Xtw2+b2ynzxJeN4eT3hRQHiEbIXF8ihXwaXzgeeP8AToikyBGkOMgn8ly4DN8BCmQS+DSNIgXSjN9PM308zfTzN9POfTzn/wCCHeKxCEIRCyFkLICAgICBkDPCExcM9WRL/SQUxCExMQhMTEJiZMTExMmTJkyZMmTJjGRDIkREREOfRrPh18ErO9nfpDBEJkLIWJkMQmJ/QmJiYmJkLExMTExMmTsmfdtOnSEhISIUQohRCiFCl0JkNDQ0NDQ0NDQ0RIa6ORMiZEyJjZEyJkTGyJkTImRETImNjGMbGO17Pn0YytnY+zKq47W3OdqvVjc8SZO7UoiUzdKkvlnZlYakpzJCUmd9Xn0b9ox/BjWyc3RD+WUW6jAq6/wMrGxuSKKuplbVHZFxSzuz/Cir1efRjK32252bzKLesohPRRlqXzqYkQ5mCKZFVehl8hFMDEw/U7dHsrcrKlEdju7FchMTsuPlmN52MB2VV0RTMxuKElKyiMajkhox6O5WpEhyVimQoSJWpWXvAkpYFC+1yzJfI7HOQ/qxjGOzPo25ERERERERERERERERERERESGRERERETImNkxsnZMmTJk/7t18WRAQynbe1WyiqQXC0W6dH+x5FyPEj+yOP7I4/sjiI4iOMjiL/wCts/l2VwY55E+Y6mRi7zG8qjFW89aiHoQ8iOP7I4/sjj+yOP7I4yOL7PEjL1mU1MMCCIm77hO8o/UPzLAuZQhfcTJ2XNVQt3H86pBsvTsctRzs5mSsyM9TnrY7L03arkpEa+DMhnBE/IyGT9UQpwLeJKHAa3kS3rzR7EWiPzeLkSK4/nONOEoxy5DrWI9VuSK1Rc4R0v7mCt58Bi9WkiJGbMXMwgmUig0mLylYnf8ABO+KTJzPElyItNwY5HiJpl7/ADnehoJp7BfL2d6Jov8AnUorrPK+Re9TnrrvsFKHF6u9gaMyGES0RJuUoUfzniC88MOib5vUhRhEnZD/AIjzRRb7PNB7RSbw/OoUyAhISEhISEUttEiZMiWvz10QohRCiFEKIUQrpFe8i6HBkTeYiEbQ9KE8sWWrz6X7z3Tsi5EJv+0SUOIu5ceWNG/Dqc+jWVbFpSqdzsJwzpZC4pVO6FJqxfL2VF/3Zhd/7L2vVzM5xPPkJJK8lpa/PozWIc3omR6mbsRTEV8ND2l7iqUiUzvZ8FzwPER4p40R4sR4sZHE/m2s3+6yUpybLzehvKpp9jG2upz6Ne23Ix/hqf8ALjAykY3im8jwRSiyIICU+Q4JYDha5W3SqdzelIh0lQny+MmQyizFOHBMUi5FFh+7o98WPRlmUVjm4siuieWWZTCymlUw2dMYTysk7Ej9S95Iug6P1sufK2dlxSz52qkzxLJkd2J5uLh0j3WUVLN7AiXOExvMXf8AntxEh2NPUcrLhzsadkSn+yfc7M7Ow5wVkUke788zMyIc5ncielDeVW8RNL0npoxyhhuHNVgZcsRtwR1PVUbmt49RvynMy2K04iKvp47Oz3WVhvQoUvUzAz/PcyEUpW3XC3al0cO8e4yH5sjyy3YTAiqXLRJ//F7uRuyusaIoSOH7I4fsjhHpPBI8kHtF3PU5FcDyxQ76F/J4avPh3SqZJTelEzC1yeYr/D/Ud8VIPzvMzErOxghfB3KGZgrzBeU3tI9dC+J3I5TKaNsyZpExEN9uZ4p53DVni3YwHianPha4HljHKDE8sUP6lcbIfJhEX5DnG8ch6SW7F+d+krMmUwLo0XLMoXqI3nUfyjeY5RIldRG8qDno2RrQKK7ZYGNl2lVavPhrnhEXw4Rku5oSxFDLmQw6PI83h4o7r88oRXjlMd9jdw7zG5GA6DqXpjv1HwfPiMtXP889bvN6Exd5c0zGJC82YvNI3YIku5jcXemIvUKPTfCfzjelMvS3ykqWLzXuZlqdjeht9tjlpXxfA4lEiraN/wANSf8AHV58PceJERNzepG1M8Rmf51kxMzuJ6Ez3WZHvR7j3G7EjK4ic1hyKtXG9nZvRO/4MNTuY3O322KcrmTicVyRmbyUoua1efD0JmD1HQZn+dfAlSpTSOxkZGR70YMzmJeW9TKO5djG43Wq8zBD3akS0ndCtVKcqin5tZLX58PmQ6PyJctRTnFcKF/nkU4C6RHcUSkjEwMHOyLSeBFosoN6NdEuyZe3Vn9JeyJmGpke79iovTvh1Ei6W+jH86oh3lD6swws7mG1yPd+xsK6uX5362S0oKmNS6/RZSpcovKyiRcvEVDG4/tLaZGe158K5DKELibob8VjlY70LR8NVZRfnVcBznv2e49p7j2mZSc2Ofpe0b0YhtTdlcPk8WUXtwLo4XKI346Hi6UWMJczxyKWlVnizVvPhb4UriX9eR7hJWURuaUvDViT8355RM9TuKUL/NMpQwekz1KR6al6hXmFJpmK2dVejC5WelzHdiUidxSGo1I9TmkRRZmZFFbz4WLRgxZVnu1NGSflkb2Mj3fnlCLSlRWPSiwZ9nmizOzL26tlYqmJhtKWz+BSSwKCfxgUswpqc+FhhZDDMU9ZSn0fy6eZdGUyFkMRCyF8flrsfQ6pfrxIjhI4SOEjhI4SOEjhI4SOEjhI4SOEjhI4SOEjhI4SOEjhI4SOEc9hgi9jFrRojRHCeJCRwkcJHCRwkaI0RojIyMjIyMjIyMjI0Of59kZ8Nk9hRxXktfIz6KZcPk9h79hl0Vy4fLYe7o7lx+fR3Lh8thn0dy4fLYczJdHMuHy2GbMl0cy4fLYZsyXRzLh64bDPY59FMnw+T2GfR3J8f7thl0VyfD5PYe7YZdFci58NlsPdsMui3Lhsth79jnw2T/P6SlYhCEITETJ2TsmTJk9XFa+Z71scXdY0NDQxoiGMYxjJk7J2Tty/PsuP962GT6K5WLjMz3rYe12JdMcz3oz1/a+i2fG5nv2HtfRbPjcz37D29Fs3w2evme7YZcPl+f5vhs9hnsMtotnz/P1iyqHtp6q4JCFtZkydkx2V/uc0/ZjJf3kMH08z/u8Uf+Rpn08z/wA3e9YCSGMY7HZLgpDsdjskSJX8Dl+bZcDnxWXF5fm1VwOexz4HLZZ8Dj+boTJiEy/ls8+Ky4W5ZjY2OIcRf+fVyFsUIQhCEIRCJkxMmTtT1ExMTExMQhCEKxCIRCex3ekMtlISEhLZpCQl/lgQkIl9EP0OT58feKFGiOH6IYYkThY59FkXHmhO64u+LLYXcjyx9E2XmNvc7rid50N7HY1Rvr9eh/eyluVlyzKPE3XXiqlbMbN1bp9na2qxO/z0LoO2mr9H1ZgVhu4rCyqHdrYnq6FouHZfqIepiuIfYui2Ksz6Hu2lsxsfH0KYk2QrUyXQp2YW4WxWeq3PiVMksrHZF2spq5dDO9l6sZiIWphxCmXE3ZdqovX62Z9Dfs+9Sp3QlZfZWK/iq424W1tuKQ3LoZS3HG2rso7d2GvF1swsxsuyPuzeiuMOhlLc7crKY2b0VXkju+JqXFz938RFXWzD/q2qJvJG/F0OplZMY1qU9x3fF3PYKbxZfF0RYiEVl/H3WIVjFL/w+GNDQ0NESIkRIiIhjGMiQ9u0RIiREiJESGtkhCYhC6DoVq27GNjY2MbGxsbGyZMmIQhWro0hbR2seoxj1EIQv9Bl/8QALRAAAgECBQEIAgMBAQAAAAAAAAERITEQQVFhcSAwYIGRobHw8UDBUNHhcLD/2gAIAQEAAT8h/wDENbwS6gOnHq7aBtCVoxpEvAlkslkyWSyXgSJYJEVSCGgk7W2O6V+/oA+walQR1ZDUUWSyWSycSsl0CQ2yGAQ8zPYOwuxaNzJHVijmST2YAM0glgCCOqO/hsmv8I8/wi75zPXOCScECBKIEogQIEolEkolEolEoh3Er7B58XW3BJJJJJOCBAgSiVggSSiUSiUSiUR68++ZO5JJJJJP4zwTwT0BMoGkkkkkntH2TwbEgQORPfu/xHg3Ui38KO/ZPBFOq7vkuwf4jwXUi3+Fl3fJdgzP8N4LqX4Zs/w7u+S6lg/xVMVF1L8Mz7J9jd3yXUsH+I8F1LsbPsn2T7G7vkuwfXnXymObdPTP5FxKWyQ2M+8CbLVmZDeSyjO9aTnqeC6kfBa9g+uBBBWaSWJTJQV8nuQ0VPL/AKPp5xR5mq/W+xv75LsH00SbFUMsKXpH6miHBTabx/ZH3cjUmRlm8hs6a9UNN+QFURR6jGNEytSizszkFlZ9mutdSPitewfT8Zeq+BBVZqMRJw+o83RllAtsLEzEZFe6QE5KX0Ww9LZWaBQfK9ul9jf3yXYPo+MW9XVj55DVKenqZeLD10HSp6SueJu2zBr2xbEvuHKGVUTuJGzXhxHC24kZbKavCHNp2/8AepdSLvyr2D6Z1RWa+yJBly2HIrt14dCJFdE+JGwzyCfAZHEqnPgSkmpU2/0eEQSssTqtM1Z1M9noxYvsMy/vlr1LB9DUd9G/2NrXE/sgxXd0xZilL1SKoluqaLiVqUd1QIN0a2Yia1afBCp6/gXcJp8ST+KdKgMFMsTeSfUupF34V7DLoROtPMslqTpE5s+n+DE3h5H9lWmzlHqUJ2EPdDrpjoZtaGSp5u45C/D+h+wR/sUT/omp0TVDTAqOjucd/ub56lg8ZSTayNseqJKmSG84Nf8ABlVcdUNbbWyzH1SJx1XoVQilyk4ut2OZlpLyBLkhEhF/Wsgte+4mCoNr3/odVRvA51g8F1Iv8uwyx3dlVloUoR2gXfq/TuQJ0H3snsxTpCYCOGttJeMj60rjYhCEnYWgxadxNC6LpLFVDdURtOsy/wC2eIdFWKqfySKVRmBYPv3zfPYPHdnviTUhVN1E5WE3upqPIkusjr50LFQQpT1L/wCkDVmJaMy2eauhgk1WojEwrINPUNIxxU3hjb4ZfBqUYskm6F0LqRc5dhljLc3QS0c62FN3zpkTS3BBtTeR6pwOqWlaBIVWLtBMZrIQyo3WXYXZu3JXFTTW1iIZmJJP3K7hbXHmTb0J3HNYWD7DPvnzfYPFucadMe4VFzs5Ieoqr6IZtSRGtV6j0u/15CKhe0ZTUcB+lOI1WxJMVF3sIBWvoiKsjd5LkhHoEt2KpxMm8AhdC6ke++wyxRo2akvBF8kdaCE2VJpoxm78y6jKySJlHPIiA07Gug57dIpIUVlpgrdE2eBXGrmRIlDQiXE3GfZK775832Dx822VgQEkjyovBxZRz5EMz1uF9zMkP0zkWTSg1VKpDketmhmhuoLnZxV2RQft/kK2lXg8ROEoruPMSyWM+hX6kXvhXs1dRYDLiaIJes3vYdmbUbWTTlT4MqtCThiYIvIv2ITMAbYAXEvYJFLd5C6TsI/ahXKOLSl6UG1qvZBlGfCrk00lKeOJ9+2b56lg8Z76JtCTQKmb5lsHxkuRV2z1lURlFrikKSMJpso8xWSGTRNUqhM0zUZERr4ZkNhw8dNBU4PnH6ZCc1kyNGfQupF75V7B2xWgcuJbpkLJTV09x4Sq0FWF/scTcF4jCShZiqh2NjzyRp0IIcmatUbDHKarWbrGY6vL27eJqHzsKDVJGK+WPwM8H37ZvqWDsJypEbpkckBWtvwgaHfwPMYSqGdk8di6mDdf2KtXMkSkaecayj6Ts9E28RmElZ7XPbYRe5PzkSjRNymWOSd8iWpSW38iCwFdkj5LXs901RbjcLNUGtpzoNis42f0IzapLLm/gVz8LT0f2GycuUILFajM3SUE6vhsPIS81bw/0XDWVBrd+4vB89CNifUtnf6Cxz79c3z1Lp3HSlaeSzko3Gxwi5bV1k8ib0w9SBmdKdSmgRcxU3JvtCEh6rLgo2bLjJrhBZKUTRlE4OkAlUluaLkWj0nl0rqRd+dezQlEs+3zRTLJZXYubt3sCrSdTlS4HNrdtXIthl4BUSbiyISFVZzkJCR4RuATuguwauu/b2GKs2hO4pZdKeff7m7F4ItEWP3DyuGV41Q6qln6Bqw8S0bkw5qb96DiVb6ul/V+xFmz+hX5+qbMo5fMdPkK9N6YSqNZakkZJM4VU7MRVX93r0Zdgj5W/YvGu0HDE1yUG6EPZI1E7oJVZ7+I3zY4yRtNGelhWEUTSymgxT0x6joDatpaynORW3eTeZYKqRo9mLatPAbU6hpr2tnfJ3dawfRXvykBN470CmpsxpaCMklnG6FmIpepAoiP9girHkKRGcJepRi1+C6me1jRaISSSSJFEl2iKm+dexfRac9oDhanTkyLLkM2qONkErIpdw7MSsthvXzkZEzY+WKKGqkmpWQKS38WTJGk6WZnpFEu0RZ3yd3WsX0QQ5Gq4Hu7RZ6qmoLkktWRtSqK9aeA1m3oWYlXVUL9xVJDu0vdi8/MSe8/Vll2qL/zr1rF9EAqZZHDElOSsENzhlmnkWNoyEpScCyQWnQR9EFEVlqoPVOs7ZCyu+Tu7BYvGSRFxzCMvOB9QobyajvEsyNrUKEhWgu3R8/fsFi8ZEesGjKwN7y+J8bPXo6s4hLRfgW98n2hHTI3VEk4Uxjs0fL37SI6JJJqST0x2iU75PsRdEdMqjPqjtEW/hXtY6c+qO1t75PsiSeiGRLA05RIlghdtkfE3fZLphEEMhyQyGQyF2yLe+T7Sn8jJnzN+0T6s/w7P+AEkkolElCmE9tky1z7n20klMKT+HZ/wSz/AAsmfI3/AAs/+Cn/AAkyfB6h+/brHPp4EovXtbO+Tu/Cz/CuFvl+/wCFn2anPsLf+CDP8LJ8DSr1b9/ws/w7e+V/s4r+Sd3B6x+/4Wf4dnfK5+BKKE27fhZPg917/hZ/8FEYJLM4hIHtM4V4n2uHOv0Ix1scb1pUqWSebwlJJ5aG4J0M4FdCuhXQroV0J2K6HgyuhL0K6FdCdmTsxvymMgSluThNw3CQ3DcRuI3UQUBG0hkMqVK6FdCs2K/8EIUsz7eWSThP4NDth+YP8GSSSfwGW98Wn+FWRGn/ABVUhfwrHYd/4Wwrd7okXMVVT/BMsNfzUSnPsXYfvdQi54ZGr+TOE9dnYvP51wv73UR0GluWu2n8R5doc/luzL13uojoqFb+CbHp6z/Drl3upaH/AIZ/XH/Csi5d7shb/Dp3/hXYvXe65Gf+Gcs/4V2Ll/zsU7F673WOP4d6v+HvXe70H8P9X/DOxeu93oDP/De49jPCE81hCiLdmo+LBvze4VRLclDAjbxYiM2BppsBqrEpUqNwaL8hveki1aQ5HFMGbAtbwHYtd7rHH8O9U/bG3xHGrPEQrJXIW+/JBC5bLf0RUqiRKpEPMoRWkjhkSLe2RRV/OSKtehCt5sueZVV5DShkL4HgRTJmJOaQ3oUhpZ0/wQ/SRDUoxtwKr1ZkRH+DWl8xK3A7Fj/iqeoftjG1bc2Q445KEb/WfssexvHhmn5Ylv8AUUP1jv1WNHyjwPKCX16E/doKPyKH1pWv60Yo9d3gvG6L0I/wEJneAmWU+BNpygWdKIpKlFp8yJVbv0F/uUq/QVVFZMvUiVaon+hajrNaEwqxXQaUPmg7FjK1B2LXe70X8O977dKSXa+WPhjQpojmCFoiNLBPqz68+pPpT6ElvhsnhUtBi9d7rfHQghkMhkMhkEM5p1+R5HkU1RyROpE6sCfZn2WCfdH359+ffn259qK6HGPrn7GfQprp/A5FvvdbxTpaUVRd903cX+0Uv3+4/wDSI4zr1P0VTT2TKb3yNcqhlDI1WfQiWZpI0Xd0pU2DWXlqZPmShnZqTc+ZVq+1Sdat22S1CvXe5KOpszQ4JXqJPV11JetjNzZcuV8RTmdVQqs7Ev0KprmNQ7sktBp4/O2/hnYtd7rOKAkp2MnqrE0ipJsm/dRGpyB3h0qNDJystJb4pUbsvGSPyzBRlS3yhFqq6Nbf1uJdSDVI8Vz8yKhAhv07k90ukUe5lJikTJmpnNMhkm2lQn5mVkihCkhV2ziNOSMlU4/0lK7gnLJSqFvEYy+fHjkPrkabIRKv+RPVHBSOnFvy5rRw/n2e4x+VsZ/wrsWu91jFKjoNVfzyFntdmjw8iuouGTUy1FEVDeYvef0K5hrYSInE5XCJe0P2CVc4T1H/AFhttA0u1FSG718RPKqayVJ9Eai17j30Ius5Mqa/GUbSpPGgluT8jdZmpW6Vv2O9QiSHTFOaM+SyM6pMhlqqnA1Oh2ghNUVdoQtlGoN5lYWcHq3j8rYz6K+H8C7FrvdY6EK8XVh01q/Apr+IEc+Eqf2LOrVy/wBnjROkVb+UM27z2FPJrFnsiH68NDUGotWINxW9xN5ahpxg09/lijLh/PQrOL5yyjjk5f0Jq6OoY8uvUfE6ilvIlJckhdwq/IUOzf8AsVsjQ5NStBbF5iVpVeojXLt2Wr2NpXN3YYHxo02LIQtGUTee5RBrUeFp3nyM+xrn/wALb1izoVHnJTXcoLOnyIKChZjVvWzTkV9gk6uii1+fhEFlub2x/hn2JktZ1Cx5SUwIWioEhvg4I9clwK6lSpdAjDV6lp4Feu8YVZXFqrNCLdewqxmCooNb667ke0ZozLHXEQQt5THiMJKtbC5Qmy3PHvkCExOwlZU0J+JivqmfTXL/AIeX8MVvWxktb0j6IhQ52EiJMfIKEweMiEZXrNSPZJlz+yPcMqJ5EgJJu/6Ilr1FWbbfNC0M6biq221/sY5S1FkhfTAhpoSpUlqKfYSc+x0Km+KIbQta0lTZkJYXiGcj3/XJC3YmhFZNSluK0CUISKClb5oeB498HDJlf6IVT0bH3Rn1z/w19Bio6xBs5E31J6fInhflQ2xl7I+FF+VrsKhpNgTyP0BkppsXzeQd2N8UbsA/sCjAb2BN47jZu4wtwLSVJysfdmf/ABQ9B/DvdGf8K+956TrV6BxOJxJEOzgWrVj+y9ocCjuJfso1Kcp1Twn0Ljl4DJCZqR9ELlitLdcanMiWpj7vrrNCMCBAjHy8/wAix30To6mTNvYd16au8T7UffMOffn2Z98MpXjshlwdl/ZQTVU6rsZg2yUlT+g9MimSSIS0olY63ClfZP2x5IbnKVkehjkKJVBsqwcUSKNHQ/Zs2N9iTcIRLHZaSrj74ffD7ofbD7o+7C/cH9iy12m3kmzuWfRQFvQI3+gcqOWrJbiwh+gWI0vzCFEjsbhoNK3KFeKEj08LMSXUEprgmxPhpRWdTZ73em6jNEW3wXYPcJb047ETcmHS2lMN8lcRypNsIVHA+a0Ebj1fseiHw9mZrTH523UxJ569lnoYWvoiAsKEtO5jvDMeqlZDYQw5SmuSySzcbHLUTcn5ONNL0DtR3WToJzqlaIDeUJvqIahYbEadU6vkoNLzdNnvd6bqPaeVMSLpknBm24Rb2KrVmU/omUXzbIfaL6yJlr1xthoc3J8VoR9YCa+yqNFGxnakbHk84/G26oOeiSSeicGxic8xov6Ndwy1E3VQ6KDagnr9L2RN94G1kvJ3IGtCX6E1tGUWXq+QnUzVjmCOwdJrxEIOdAVHMN302e93puo5H9MEYSWTFiIECBAWmH6BkoCouxgSmXTLTBdJDZOJq2KojwEW0wwclltwuVps30fE26ruTVB2a2yENUR1I6kdSJHUiIENnH6MtJFmOXNyxU5hCr/hklAx5S6ibLJ2DI0RGhEy3IPcngnW6i7GX4CIqtugFy11MI7WD2HWq12F1tOlZ73em6yUHYdRCASv7iqEJoiO1kJoXSKUy0bCdn5CxcDOK9XyOOqhZQ+hR9KfSo+tR9Wj69EdvIFaII7ecK99D03Wlkkkkkkk9r4IK/slOa2V5XYr+qYfIq4L0Z6DL+g3nyreHU2fVJPRJJP/AAcsflETLQ/sIdduv72SV0Es+CasLTV+QzEbzp+yS4uvRDKHPcIRknQQ0qhRmLXOvUXR8bb/AIq2ukoiTiTwzu5xHg9R5M8mrNic85mDlngN8sZiY1z5154V3Z6CGQ+lE4rFTwkX/ocnfDkQMlVNrsOfYW4v6DUAElrsW01i0S2WMuNNeh+6/wAU1vvdcugqrdhsqFI5IOyCahNslirRZjcV8oQfdFVV0eP94nETDkxWT4W9yxFDdfofZxCgkZOs08Jnv5TUDUOS4cPMYvAA3ykGZPLnmlNS6iCrBVlzxJ1oKenATgKpJWMX4peLSNFp/wAYRvXUvSiJJb3GpeIZq1CfsRqaGTt+z3fuZNIFvSwjSnzbCNdUGaFWP+ZsZlYB1Y2Gypp5CrRDWuIce3TjUux5bCJm26MmkdRZ5+Yp2idH55iwVd2vwdhIi5I0PYcTeVeDF16uGmMT4LsrWrX2ZJ++j3Jn/DWe+YJtBHsN00RVjPTYPDKlR+g0ipVH+n6MYh+YoQ/Adx7ZKtbB3F2v9BqDbNNGWO7/AEISJLULssodU7ovyInhtdO3gNIlpeTuJQoShaFSa2ogoTQk1Blv3klCSk5JbastEL156Pd+38PZ75xE9UvLCL7zNRB6Fnr4kWZXyxH89EzMY1G2ItRc+cEt1mroyntaQddftWIVZaaeVhxW6u6VE3+g4iibV/Rfzda28hUUKiVun3ft+LUMz9BmY22Fckk3BDBcEtQ11lRjA1IoP0aKfEffthtKNpN2Q3crkfYish8YQJ4slg2kSSm0jG1UE3eDaKWSasTRKE1RrNldknTLxgmxO7PXrR7v8VuHbMyGYIuNqwrSquhjTSJ8ko82FgDv37YvtnuVgTleeohtbUdpQlUtyGg2ChHmQ9mEFVOc6+g2WeYP6LAFMJTtKkOQoIjJHwmkLWZK5InHci9So7gn9ZdOdXYWTbhJXbE3KbTZCTVXYPu/xUlWqgfLi50EXtrg39eKPa41UWUULMu/fcvCxl4q98Es5dLi+PCS3rCfiX/Yqj4SIMkBPJbBBI5Gh+p/vWyCFLkGs/QRZOangnm0FRjS6UBqGCeDTYPRs++R9CNXyX9n3KPns8Can0szRDlL1GYLS4sDTVUM3umy3IWC3vNkPFfkco71dNA03TxLYqA3CJxnSVgzUzU9p6XyJd9y/oEmESaFd0CrVpZCVhJcDzbvPqkVRsz8RXpXQVBa2K3/AGEVcKmvQpSE3qrRkJsWB+DuZG2v8uB3kQRFOMryJqbeOML8r0KMHY8xtP4m/HcDcyueCtwWcU9HSo069xuNAnURTpKWIZQSl5d/I+PH4234uqoik0dtGUmOsbvYWdJIjJNyg0sDKMYGTjcxG9unsJJblHHY2e91yFipxxcxPSSkhZz2w0SVdFDeZPb9yN02h6I53E5FCh7ky16LzHZys5E4m6FSgzTUvk8z+0yDbFVHEnUsQpj0mz0I/mHItgsOyasq5XuT22lmVxPXCV3m+RC0uB0/G2/GgFLauJiND/YzunnMegXoPfmQWtui1DkJ+Ookb7i78Ny6DaYyEq2yNzQQ7AZwXoMpyH6QuL4iyFhtEvEII3QqmQKpciOcGRDkbhNE/D7SNTYSoTdmLrBzmqYnKe0TazTZTOnV8bb8dXBS3EEEucpTVYoRKRKHfhuXQiuw/IFR6jc6lBbQiW0Ka1K9FTTGC72jbEST9ahpWRNBHNVrMcGUVJlF2fw3kIlFSGuN1bvkUO3VtNSWoihoES7zcvINZ6NcYjkMe2WV4xltZMKHmpVwgq8pzfkagooca2KXLm4ooJ1K3rij43H481NyzQoWCN6fqPFueuSHKyq/KkhZtyv32bl0KtsJVjvQ2CWG2qInBXkHL0PSno5BIWfnlUNskPJgl065ajA2ae4r/hG0imZyZByHSa2YJLdAhTZEuikLKvI2h5ceCcaGF4ESjobTIfsziRbXqMsigUjxPy04MBBU6vc5HixMTQyVkr0yjxO/SFIUzaGnYnKbKh+I1dVUvGKWidt+GEPL9pOhqnBrbM6pG1SpwhfoTh2kb2iOm2wtOpRtoT5oYu8/rYdkUdWlPPomi9BGlrG+FjCvFdcU9KT4Gk7E+cIStbo+Zx+O6FXhQjpGIoFEnBzLFCYlVETQ4M+KiCFSWi79It8PMmdOWliVQpCGyNqSmCUdFjYVBmqIJMOoFWE1AlrtankKUxmMsUr7vNiRXkcN5V81wVuG75FybqBhLBNkJC6Q9U/Xa++/X5Dum0/MmX9CWy7taF+PAYLLCz327kLFgalcbPMdZ8DG6EJ+blZrk0aZaipyc3NcrtrZK48ySqI7i7YWWJi4To12oeodoj0z/X5OoK1Dv0OxsyEqudVx32MnQdr16IvOBiuJ6xkrtg4KFShrIUvUoQkuZUFHpFNNSYWtBPA+0Vcgk+b+sYeMPCHhXH5HH4suTKyLCuLorAqig+ooUGbc5WmChNCNwpwrJLDQuSjziFbIXfbyCxbSl+MlJkhP7ODabR4qJZjxJ/oFPMJDx5WVDxdopJ26aSaS9r1ZtoLiJsUI7DKpPQJxE2X+xOMsjaOZyKus+CQnP2cwQzzJMVYHo3xRp11GPoP0/FRRoBGVNYKmUWOAplkXSwZGwqWxm07JtJuZjDap4kolColl33bRY1PkGx8zaQ+VlQ6rg0p0GV1E5Dpom0jzaE+W5nopsVWUBuUJib4Nqx9nFAM76/bzwfRrBEXQo8BTOUfWCp88uVubW5NWvQ0l2GjKS60ODa0JMEZN4I9MM/xIRxSlWZFtijLVWI2rYZLhYTVitRtMAlyMgSaeZYK1Xu78NKXQvtLPRi/gHZjDzJ6MkrtMyRWUtEJmTZSRYG1UF7r8EthsjbJZimNgpauVm7SOsXYfGMLhE6tXSRWUskIZNCbXTsJdgyn7LEHtEIVEkrKg7ac1wxR6P9PxWzLjVpSQwks4EcKTfojYJxVYTusPvw0pC/hvVv1/xUtRd/Deqfr/AIqW41ENF2aUvgj/AJkv8cYmf+Inqn4oQAAAAV74nODYwNgjARtg/U/ompJvI3TcN7GCBAgQIECBAgRIkSOhHQjoR0I6EdCOhDQjpgKTdmxiECNBDz74C2MiW6zbGrvvYilRJcFeh+gxKjW802fYH2J90fdH259+fbn2x98fdH3R9kfdH2R9ufbn3x9+ffn2ZU/YIutenU8IKfNEdFK49kK2QjQiFoiFoiNCIg6KxDR0d+zMoqqL7zZG0NthNubA2BtjbGwwxcrabdgvd74lyciLOl+u9hZjNiGhHQRiR0NojoR0IkSJHQiRIkSJAhoQIECdUyiWpZ7FsJMcJN0Kwul+u9jzt0fj0eBHTH448OvxY7AX977/ADhZ0+uexVL3fY0FX99qAHEvVMyYFm8F0v1HsPzD7D7Ltv8A8kcL6rO+K5hZ0+s+wloWwhJDF2kRIQPMQIYIYIHAaESJEjI1deUZ0ePoJ64Lp9ExVvl9EgQ3ODIHBniOBxOBwxpaHDBLA+BBwsVumzDP3vvYWdPrHsLQ9SLGeNs8LdNQoMiIJWY1BmMZY4fXkH+XY04WCt0+iYvuXIj+yII0GrEXKTgyLYZCIXGGwa1zI2IqQhDJ5yKyJ6LO+K5hZ0+uFmhLimEmXJLgk9hM1JJzRJOeR7EwZEkk+uE0eDeY6s8K/mG8hYK3T6Jn7k0EU3RuTnjQkkkk5JxyfoSyWVJ08T34rLpdu+as6fUxwtsZwdqeJOCe+EvUVXVpE7ldScaksb8A2xvOdhW8v0Mral5YK3S/QGvOpkKhLkkncnokmpJroicJJxG9xNt0PGW/YVl0vvmlbpr549BMnCSSmEopoSTocCSSSeCUSU0JJ/09e67BZP4QPMVqHkMVul+gzNyxN5E6skknCScJJxT5EqRsnCSSXXTM9xHkKy78JW6fUBqCeE0xknCSUSSThJJJOEkj+Y7AfM6IXYEYK3S/QZm5YsJ7DkqL2OCSaYyhlJPUP2FZ34S6fX/YemEk9NcKdE9h4AfW9Yep/oaKvOEMXTm4YrvkZnPTTGadNRlc+iTWZv2LHfgLp+G0Le0z6qdnj1R6z+jOWwxdL9Biz5eE9hTLooul4+s/QrO+25gun47T8KzwePon1+uLeb9GXlDF0v1nsZvHsn0U6Xj6p+wrOu3virp+e0KBDQhoQ0IaHA4ENDgcCBDBAhggQIECBDsMlrkrS/Fj3kO4un1L2IFCUSiVGBwHER2OI3ugCJAgQ6Tl5v0Ky67e+KumpCu3SXgN1rgumUKEIoQihCIRCIRCIRCIRuEIhEIhEEIyOrrs8l382F6g7i6fWvYXO9iu+CGSJEYEmbfQoECEQiBHQFBZi1kVnXb3x11T5E3pjXont/S/frs8npQvWWC6deBvOe5LJZJJJJJJJJJJJJPYUVlwu/DrpoZ5JSy5mCW4s5YTfm/8zeG8wjfFaw2hsPAcvQJt4c5zj1mU7sp09UiwKwk6OR3F0tpJt2SbY2zGMbywBasBcZEtsbfEveG98jeG7gnPgNhlKw00zYHyZtkhWXW8d9v657ClZCr4Ekkkkkkkkkkkkkkkkkkknveu1zgZesMXT8FoKCSiBJJJJJJJJJJJJJJJOCSSSrmFbrtd9v1IqK5k3uIthJJJJJJJJJJJJJJJJJI3mP267WAydPI3XqfEaClDJJdEHajJJJJJJJJJJJJJJwkkkk9yKy67e+OumpWzFfkyTJE4SSSThJOEkkk4SSSSN5r9uxxpo4D6UjxCEIPGSSSeiSTKaUJwkkkkkkk90LpXfi9eB+u9xom1eFYJk6ImSN4mT1NzCl4EhusyWpLCb64etfsSSSSSK49Is4iaeUSJkkkkjfMyGpJKqai0ewHQtzohkT1JkyeBIPTsVl0rvwaH877lSLVkqEvDAjQhVVzw/QssRzqN/A+osjoi89RaQ3N5aTXIoPMf0SSSSSJjkf0iaOUSJkk4SN5genB64mRjB6SLyEn+EZOIlegkiiIf4RM70I+ZvEYMSJU9AxW79jnBXFor5MY+dCwPYhpGVCLSVeFz2EPFFbnGfoL2KGTT1ETSgSEP82jIdIKQ2Aj9uuB5hFYJ4ZrzwylEalBKlCKPJlJqehwUhlIILaQPCJI5KhRzBOhPfpckjUYGSXvU8VhfJPUzkboKLfDUj0yHD5zE62PkESQVwptI50QV2HOhSyQNNZiZPo9wkXkRuPI5+PTiwZl7xKFmJQUZNM3G6i5JRNSisQUn7GTsLHJxkU3HTcc+JlwNEMTUquwoCEkkmfvnbxbGxg5JPOfIpk1qDl3HNjyjkIpmRdKkdyO5HcjuchCMzcfmR36IOvg/6jaRsEaCMyIEaERoI0G2bJVNojSRoOBA0CG3IbLqmbz41HVm4zcZzZzZHUX3HMQ1ZDUXXEmZwCzFpmhGVoQ7k1sJiM/fO2PBjY9p3GovnWhOGmM+WHOGfRxhXozwuPD4jPHOuE454/oy7DU5xpje3Y5YVqeBbyXqItffGuYmPB7La7FhFcGj9Ca0kMroQUFSuhuIZXyK5CTjXbBFLFdCHoPYKdBzNiBXQhkQjxJEaMCuhXQroyNDK1oXyZ4EZk0RBUjzzOWTmQSdxvErhEsh7EciNDJaV0I0MhkOCumFdCNDK6MtqRJWFMGqG8cnjW976nE8OcdEZ2hmOcXiGwrBwhFD2J2OMERW4h0WNBuuNYtXMzJxkknCSpkNiUjEVgrJLJKaIoT0SVJ1JJJJE1gUZEiytiZMs5p+wrV6JJa5Iozr3wLGUIZNvgZRqgyBqWiGv0t6RZcolNFQoc+B4HuVjbDzwqOXXHl2N8dT3K484+hIsia4JUZkJwc47Y5lOmD0wnHMU6E6k0Y7nuivRYTKtgVu99fweFdWV1YzZzYcHJS7PbQjgtx3OShc4ueopSimpLwrh64RqWPkGUYXa9SxTfoqMRQagzJfRng+MOML54VyxU4KZws8c8FmO/ULB6WnfAd/Bj6JeMi54EKRX5LkcVRxIoL7YK+QyMbYRFcK8GdSHh4dGWNK4oePoKDdHpOFzwqRrhbovMCVSSypqWpmUN5rh4CWKSZFPoYysGD8kop73q9gx41PyQ8aiUUIQ7illhne4kNaEEYa4WyNXgsM/Yo8HBHlhtjxXHgjU4wWFSmMUw4OSKmQogVOMNEDULD5Y1x4mZTCHmX8C2FweE9zx4PYXthG4vOhDQrFne6/g+izIVITGyROtStpZw9hSSUIPJGGRGtytipU5KLQ2KVUCKDTKFC1zTCniZlmObeZao8alR74W/sbwdxlWVNdxE1qeMnyBWwl4qC6KznCkScnxFourNisLO917Bj6F4eHqUKZCecUBsncnQeRQve2FH+imFMJZOZYWNDMRTG+HiX5w8TPHgkkphOoyklIFsUIK4rB4Jwrgr1kKjZZ43D1QrFve6/g+j2A6WMdASSshp5MMkkSwzJakyZ6ieCWuD4RWSwSwX4GxrG+CWGRLDPDHrcQvw88LEujywywMSyK64KyRtEjY2msEVi3vdfwY8fY+wySSRszwzgknCSSSeiSWSSSTgkkknBJJJJJJI2SSyWThJLJZJJJwFtiUMkkkknCSXI7IQxLEaT9oKxb3uv9Sej2CNyO1r2uQqPUr+Vlg+lDxBWHjvcvdkkP+ai7qWT1BYWd7rnUnmIf89kPoWCiC8qPMXe9c6vZ9RdmlJBBBGEEEfjQR2ywfVUqcqi737H1eiQ+ldksKKS0uJFm4f8Ap8ywa0BtjdRpQN1eQ20iZshNPwE4TZTCmCSbFkbTyNxeRX/obiNt5G4vI2DxfAXFBogdG+wRkPqe8F3vu3UtL1XrMum3Q8KxY5/YrZKVZooZafgevCt2PqB3fY5FnTfgy73mO/TE7FwOTh0ehBBBAhl132wVxPPEEEEEEEEC+SLnZUjfLrhLCCCCCCCBCO/Yqxb0RhdfNvArC0735Y56dTNT7A2vMbvzHpniQ5XC7X8BrYfYK5NyOxAoBrKKn/ASTW7S7IBK1Bv7dihWKv44Wf0X1DZNJsrT3zF0JtCcJ6pYnzwNKsiWjJaMloyWjJaMluQ9GQ9xrRnAQEfQR9BC+pD6nP5Hzgjz1qNO6ycGx5D6A2vIbHkJaMloyQQ9GRsyHoz6A+gPpD6w+gITN5CT6kDAvQrkjRI0LFXfeooZL1wDYZGh+RD0ZBGKQyLoT1MoVlZdKGCErd8r+08imiKaIpoimiKaIpoimiKaIpoimiOCKaI8EeCPBdU4eCNAimxTRFNBTRHgjy6PBHkU0RTQR/gI/wABH+AhaIpohRB4HgjwROyJWiKaIpoiP8h9EaXl9auW987vws/wrnbV6HYVsI6ExPsl305fws/wvQGS/BdhW65E+xXfTcvws/wxl+BIxOhJToaxT7Bf8DzcCck2PLTzLRzkNoaQhRb3HlgdZfjh0UuiLYn7R+p0mRarE9BKjHMclYhCTVCaxawQutf8B0iLeY9SDJXjJKJUyEVybbEOlov9Ep7ci7W921H+DUbbL+GRFArVGlYJwhsIYKcybM/QITi8nwJ4vButd+8+ljpoLR+ItBDw1GmExU6yNdCbIs4MSSSuaF8SJn9M+ldd4y7TU1r+2LW25bBRsdGcAG0Oz4Y7n5l/6FdirNFRECzb2DYPFdS7999DIKZlicxNhkFRSuhoDcpChkUpqJB0QoMnTuxK0O4Kpq+OGotrOq7O8Zdm2mN2RJrFpCGjjQKeCpBklF2klLHDVj+w8nhQhV97hylVIpNxzTulIXkrKFg+wLv/AB72Lx3uFwWwZcZl07iXJok68ywlWEimRKpYsZZmcpbCnAhyXEEn/T7O91rB45uFWQdXkanZ5ETxt7iVLrUuJS0RDIJhRYk0Ir6mSRLsN4cnWVl3Rf2QjN3+m8ahrJgUUslMQySoRI1V4Fa0ohvOw4JeBXs3k8hpKJtk5jSLkMurIftIuhdV4y6lg8csskK7i1DdlihISLOuYz5zJUu41asoeZJuKos3Uh4inZmR1cI46Cdnrg8ELpRm7+7I3kpmMhvEZYcTkY0i9GMKRS7M1NkoWYildDwmaSdCeNQ4Q8gG7sX9c5dK6rxl2DvjChOpfzWwmqqshlmGtRNMOTTzE1rlmiJY3IJuznyQFxBaYT502HXclDjS4FYeCF0otffkfQySmqQxZLD+YvpHOg3IYrq+QpIljKyiuzdEjrcZO7tMdCXZLhl2DFhTyDRZjlR4aStLsxjgq04lFSVUh1aJibqpAaMq2iETtTdAvliWSiZFQjRF6CsPBC6V3+LNYIoLi3q8hZYh0oK4QaGNRqCSd7MSZxbyG2G2J5npcjKuBU0qLRkYrIaB1vkXQuq4ZLsHcWEdaJqP+5GzR2RR7ZWWbvmUi6fIkFmSFWVGIJp0E2YGJ3mFUZ79g4WjIC6U2ErJZYPBC6UW9/lkUHkMZvkZiElY11DOarRWLBqopt6INtiUCGbmTRwKVbgImnM6DlPUBLoXVdMl2ciUbUZBAujdV9v9wpRwiXEIKtZjQ1LRkkzQhomCvVLt5eJz5Bdg8ELpX/ALkrq/A5TT4sKLJC2ISqrqxNItAQbQP7f9CpPmsmQvKtnphDdiWeZV+j4uldVwy7JDSYnZjC3gOqJ1JKUI4ENL1Fj05v8ASgK+opSoleRoQyIOh3Cd39LxHDKZJBdbIsl3ciYPBC6V38Lt0MrLvtsSssIgqKqjQ9BLihsFJKp6f2Q5VPJ6lJXKkf8AtGLpXVf8DLsHfo2V+QZuZDr+1bIKWk8mrCF7h9yjo86CV9kiXQoLvkxkD/wKiSeYLXXv7LRCWLwQulf8BLSaipD+awj4jjYPW+KQlL0SXVBI7VhckaOJUfTYRZm7lxLozwXVcMuwd+mtWMxxCcPImZ8jZpYxpcsr55CywvAuBDDxvJcEVEsXgri6V/wO3BV1Qh7LHoi+5E2XzGrkhTp2rJ2EqUp2C6rhkuwd+icGkQk8kithqtDGrMQGpLNcimeSFnEaCiEIR0u2CF0r/g1ydk8F1XPAy6lg79pHUx0aYIXSv+Id4Lqu+ArdSwd/wmPBC6V/xDPBdV0Vuwd/w3ghdK/4hnfsF0Vl1K2Dv2WXYu2CF0r/AINs+0XVfFbqWDv2S7F2wQulf8GOfaLqvit1LB37JW7FnHWXfQ6ZRXCpXQlk4ScHix1NxG0Ptj7Y+2Joiz6JjNobQ2ZtzZmxE9CCdAhqjwYJJwNDboKhRgkknAtZswu6dQIyrJ9nONLQl6Ml6M4M4M4s5iNYgG4HrDcC0zZI0ECGQ9GeO4kd9ELRG2jYwNhG2jbRtI2kbaHpoemG7IWZDoojMA1uzG82J6HAQgjYioyR8C9SXubjKtw2WYUuF2kCCs0R0UXJ9vi/IBPUHPMV7QNwbkmdGww8KwzLChto2EbCIFChQoRwR1QiNBC0IRQhaL/gMEYQjNIN+QcdoG83fQ3PQ3l5Ye4bmFDUhqTjeN/CRVwtc3h65vfI3fkfSiVmhClXSFqERBadEGQp/wCDJ//EAC0QAQACAgEDAgYCAwEBAQEAAAEAESExQRBRYSBxMGCBkaGx0fBAwfHhUHCw/9oACAEBAAE/EP8A+C1n/wDM6pboWgpbouRRKaiWBvULQCr+KtCzHgwTtTU5bV1xLS3U7J5+vCeuk23Qooy5YUZhrVV8VQK6JcWLPIy5p2tXL1Ly8v2l5eXl4N/Om78C6TQy3WCedCuF9FV+i0t0FpaW6ChO5UwbSryIruTivgbPabnwVlmd9CucoMl5YgpaWlpapaWlpaLMCyoDaDzF5VICupt+e4EQ9Vy5cuXLly5cuX0uWSyCVj14+E6nYUmGMvrfos+Lfxn855V4Jj0tRB0VlZT1jMZPQdX1X2BKMpvpiVKlSuh7XMglWyY646Yg6dKZWVlZWA9Ar06nQr6r3SLgu4ImJUqVKlTUIfnJT6n0+dJbjo9V9L6W3M9L63LlzMfR6gpeWlujNmXexfn0/foelzn4Gx6rZctlxY6KYWC6zzSkJvZFn5xYc55ety5cOmhH0Pp5+C9DAuWS5cuXFkn9b39GZmHR0/C0Tj4baD6RG/ON1OXu+o6aHw+Pht/VvM/P+31Gzpw/CdnwWMeh6t/zi6nL3fUdOMFsOK0/BqP+Cbz+z7+ohHXwnT4TOJz6zn7fOLqaPu/AcZj4PPwWMx7K2s29W8/su/qIR18Lh8Nx0PTzCfON1NH3ejqF1n0j8LmefW6maDq29WxLWPP7vUdNPg5lsdKfguOh6eZs+cXTNX3fUeg+gF1mNV4B+6GoAhJos/NJS2TEvKHbAYzKPYPszHZir/gzFGxGKvYmTRg+ml9NvVv0+fSdNPVU7EcFz9txmoc3AxgtvAQhn2bmkh00OnOMBu1t96WGt/WKMnt3l+px6+WC/nG6Zq+76SHTh6VOYaEEN6m8Nf3GYRUOSrfqszZjxbXvcrtb239i2IiKCmry1qANVWIY8hXNSwKjI7scCE2xb7cSqO/kKLv5Ibcb4Xh7QfQ9NvVtN7v6kdLV6Q24ALTgDuw0KnkA1IbRbnuvaYWA0coah8BWbTbfkVC0Ht2gcXgMlzXMXY8hfXhYBfabPdcGK+zldmD6XHr5Zv8AnF0zl7vpIdNCPULfYv2buU57I4773MpOTirqnjxCmjW+nanzFytx/m8GA2WOVWrvKwpt1K1fFvtC19HPcgwgSg37do6dpK7TKywORmhm9L5hA2G8+8D1NaOHtA46sr19/XwdGvtx6AVojo1vgWlV0QobuVMriDnbgVwW7l3NyNFw3qoYmkexyRgsIDttiVyGJd973jnC6+OH7EIFwpZ3YaZSnAy/I8Dnkgr9Djoa9JtN/wA5Bn3PwHD0Uzsxb/nigNaHqzFy1MBa+ThCBajC6oyJ4j0xffRyxm8ntFDM0fRAjRGzHWL5qNa/IMQEDjdFswaySpfNQcvBe1DFWrG/E5YbzRKXeSaauw09zvCcxlzb1bwUPqh0Q+j0IpdKrS5EoVss88vf4ZYwDGhfqMUeX9hLZlVwkl5IguGbqFgGg0Ix7oCPpqEwy17H+gQgTZW5TbgwoL2EMz40csREEt3aRBys2PccjDPRnHrNs2fnoNDoRWoOT2C5haL8Ht9JoUVjgfeEFXVjUpsaNaqGajWsOJsbeVyoIrWvDVRrBaLqVqLU/wBopM8B2lhZd60EvBrbZ7CLNvlj0eNSVvzZIa+MfzjA+k26Oz0bvtCl2/8Ab6jo9QhegU8EayJvmQUk5D+Of9Aivx1q72+7JD6WLgD3jRBiYcqBem5oTSRI73uGzoBdeREy2LndHjtNy/VVH3ZqztfLz3hzX5sY/TrU/AXEA5VtgcWscZp8A2zZ+cv2PUdOHVkGwPtFdS77mBeGKqXihIRdeUOYEomrbD5GonymuDH9o9PCGKtm64SAQtMH1KNIcbtXEIfv8UdMKFoC7p2jSc7RVQFWBk/yt9nQgm0t98isvc5j029W0/ue/qOj1U01+XxEK3y5CnYi1h30yvd1DmLOFu8gm5a7h+5CKitBbaliFW4jdYL1dpVZ7PEpdb3uj2IAQ94ppg2fBMxl1GECzGEvoW2iQtXp8yKqvCfFsxUjqafANps/OR+X0kITh04lJd3TCgrhcJ3EUAFFWNniuJdllXAgJUc4A+DCY2xhrVu5pERXCd3SzFahaa9yCOt5dwJf1VDV6/gWsdpxViuz37kuWsGKLumXY0ZufBplWHS7XLKPy7X3Jt0d9NvX3f3z6jowdL1tsQAeuMWx9SHPY1gNYy8S+wkrotysrfKsvTq8pS7Zi2habJ2zE5EHjn28VKv3b7lFfzJd5hqYAKcBwPlLO5W2Mecat/rmUCd4Q/SzH/am2o2TA66PwLeLFM2fnL9/pIdNDoaioIdBTQF6+1Q0t8Nnyl/RWMA7Ew5sVfKfYuKomKF6UqAS7jjjuY7w9b1AZ1mMJdq95frQHtMaQJ3LnLHd2VAL2XkEupzjNTseKguGeuHtL5VRrpOfR+Ac/aO/B+x6jo66cS8moNCWFptiCUF2i7/fK/u25pz6SWibyl4cZlyW2RX2bIJ0UFgF8kWmglw8VvRTmATr+x+2URnVer74EsVbALZ7UklKtAgL2YsKFwCFtF4zFoaL2UWOz00+AczZ+cv3PSTTppCEKjSSRYC6+6Xwyw9NgeZc3t+OTT3iq2tkZBaz4uIUQJSTO0Ls7xnM7ER0wXbBfhAvI3iKFX0Ve6mROttZ+HTBdZq7fIpZT4j7fcvc+XmK26AOTwt6Hpv6jmf3nd6j0HEvr2A3AME2w3b7BlmySu/+9Kei8/It1WH6iQNekCsohIoCXXmPltX2vMqYFv2IIrKNPeV1sfb0w1r/AN5wPaHnhMlnbsYVxCgnuZqEf+AF192AcaqngXNtNRmnwDbFV/OX7/SdW17TsS+gOY+kiyF2QB3SpKYZGZdBROPcQ9NSZqObTmLXNC9Sn2Skp1aCfWq6mL6e98taozLk5b2XIXtBT2ItysGLi1GDAVBFTYmhZhK9xzDxZCuAgjaq3W7ZlBNunkvLEz5QpW6XdPbr56EPTtP7nu9R0THt0ICpar3hkg/LqKCuN1jUu2rreP4ZXf3dBtzSNv1ghsiFs8UeVjnO15FSXdBvtsJXs0BU4JUlTQ22VQxm0vwguCk77pzO5DQ5+XF8kYWaB+oD7hiDHAc77/tBkcUt0t0MFysvqp1HMqCHpNvvOfzl+915gyjqqxGBRUIYQbMkBIyFL4595VoN1/NDUoyi0WuV0MWxpjxWsLsqS8r3Hycq1ELwLrjYjzWPrGLmkrXJCKeV3L38PsxzCpHFHskZUwJbFVREtt0Xdx1d/SWrEPvUDjoBnzM+tvGrPP7PqOtbhFSMrpi9sdcDUNqLeFMs84RpoExLtx2rsfcYjCvGvlT5lEMvcebcIGtAD8LiZBm+VEdq0qtxiyG5ilL/ANwH3RyPZgqssPG5bboeB8GVZZq5Sd3Ax6A9Rz7xVb85P5fRjodCDPTSpScBfa4QEmlLp+yRIE1Vz2lNe9x1RaHdTD6CHuzL2QiTVvyGQ/TPaHHltvwhmnABGs7O/tZJVXYG38hzCcOWFyKsbq59b3XpMXBcMSIwOx7kY0Q/RoRA5YxgBToV6q5mz+ufqvqKffoVFCC+7LJ9HTBxiVvc5rs9yGwrivOxYx3hZUu//IjNsUodDnsoIJN6DuWyDaEebsaJjUXs77cGFurk1SizK8IJwbla51DH9a5vDvByRi79G11TtCq9fEhzb6D1nM2fOX5fquLoVCtnS6hDV6DV/ZGN+V07vdQdfhyt9uIoTXob0uoKnlryU4EgcOeOe8Pq3pXSo08MZ1bM17Rqaov8GUihaZp2omQjJ9HJIVB4YDg6PR+Bzj/rt/WPQX1JWB8MP5RhXTBgWrV5HDDbo1o4Jat3nbb8bslfAuhw1sYyssGELV4lvT6DP2tgPJqQIoCw6AStIyl9A8zvxeeU1QAANAcHXfSn4B185Pz/AFqMJg+Ogy41SM2293H/ACHA9kE0JZSh4VhqWS2uJ75IhKELAt9TzLL0Yi/rmoMgRlb8wwmvdd92BBBtmn+8XRQFKCgdgMEeoVOZj18/afcfu+tdRTM34gy52tF4fuOY+qffxOuDr5ydXBjEfWQPAZwBsqqbl6VoFgPsRIEOAWHu6MdHivi/XGOvBo4rsEvrWPg/7Txgb+cvz/XcUqYqmBHoMKQitv7Ey2V7zchvM5q7l9VhwyjYbVqh8c5qWRq+oSvg8/aUtTf8n1kXSjmBHx1ISOJaZraa/dIzazukl1CztJbp+J539uF0UOQFH2IpL6hm4yvgEVfOX874Awb6IJmNZXUWWlNktuCl94xRKIesa9HP2Yat3/Z+AYg303uK9nW2Wl5anUZuVKh1a+ASyzo385fnetrooZ6r4meSpcuXGhbAvrfQFgDq/B5ezGP9HPrUqVK6XBqFJDo31GzZ6P8AWV1WAsKdXo+s+c7874RAK6oO48joWmHVGnEAIKUdWL8I29mVpXVr9apgnXe4yv0sR9HQHVi+iiUSj0aQ/ORfUfhjCBOlHVynV6Y5ihFv4RP0MFB7/t+r336yx9PD0VKiy/g4lEPnNfzeg6vopvpbBw6gpcuLhSMKvWy6+AdD7g/pgATdvSx6KGYmPSKQrKS4sl0SyWRSLL+KQX7PnJ/J8W2W+g/T1MJRd8/C/Q/pmxi7/b/hOstlst63mviE1fHzlh/hQ2itH+E/XtP7Hv8Aj2vPV19LZDbLPxCbPnSnwE+Ab/4VsfAsCC8ftf5vB3fA1/OgP8Dj/gkc8eURsBwT3H+Fx/wia/n0oytvk9fD2+Lmx4r0/kp/c93+G4/wjj8+/n0YnllwLVgvf+E/nfqfn/s+C7/zOn5yJE4XFRvoTvcsMjcB19UQvv2A/mKv6h/MHmvuSn/Ske6/aeV+38x4m7a/mLLIOLS/3Ht/vP6E/mcmv3IOK4QyYjiidr6qVMDdoBiLc1w5vtQe5Le1LPKX35cLhaLlbC+5PJl9yX3pbmHhBjBIvGC+rDlSTx54s8aeL6O4fPHig5j6OjTxK7ZXbHzTHnC+8owyuRKezKe0plPaUymUynpTKezKZTKezKezM9NHzioFsC98viXLly5fW5cuXLlsF6FpaW9Fy5fS5iYjK6YmOpUwRPa3KM0V+wtyyXL9OZcuXLly5cvot1L+PesRUfnH6b0XLly/g3Ll+k9eetdNRhJ6SmOAGAAD/LfVXXiPAfOG2TEqVKleuiUSpRKJUqVKJRKJRKlEqUSpUqVKJUqVKmFR170Itfg1KlSpUCBKlSpUqVKlSulSoU6S+0qVKlSpUolRdo7D83YMjtOl4iAHPwa9N/4nCLPNrl+pTXqvpfpuXLly/TmVy563Lly+u+Uufm7EI8nRyg5JcBwUly5cuXLly5cuXLly5cuXLly5cuXLZaXLS+ly5cuLD3jxS6rBly5cuW+ouIXWel+i5cvpcuXLly5cuX1vpcTB4/NxaO+4ty4LL52qS5cuXLly5cuXLly+i5cuXLly5ctlstly5cuXLly4tPM/d6bly5cuXLly+i+ly5cuXLly5cuXLly5cuXLly5cuYlzKST5usxJzly4QoUWv1ZcuW/4lstlvW5cuXLlyiveVg/qR3mSXLly5cuXLly5cuXLly2XLly5cuXLly5bLly+ly5cuLhjkaPm4cDBly+p/l30uXHNe8A/u10bZcuXLly5cuXLly5cuXLly5cuXLly5cGXLly5cuXLlxYZ9Qho+bQXL+AP8q5cuZm9yMV3/wAK5fqvrfS+l9bZcWXtPySGvm7Yg+If4D8HhjhhYuWP/wAVsn5583fgTl/kvxXXuTnpf/w9k/MPm6kXOH+S/E/N/qEqV1z8AK9Nf4bqCvdPm8Nn/wCN+W/UzZG4Qcv/AMLZPyz5upBouIf/ABFIizyOpd4UAd5SXcwa6x7hpHBNb6mK8cb7rK5ltc8xQQtCzFMQ5d1M9TdGaFVsW3FXEUWy1qRHQZyxrwNldV+8OVN6xKNX7wpgFzNVT7TurFxnBC/D/ETLL8VTKS38GDA/q/xKNwFrpq4F7SCFIp2S/wAFuN/zhb1lf/Ge56Vy60QM4GqOPp2rnvKtgDVq8+52e0dqWlBw+b7zgRWgDF+D37s2tDtgoo5rg8cxarvQHQPKfqUKxpdrNeycvDANhTefOr+nMLaWtY/Z4gKNmg51jPftHwHC7vvfeO6K69+b9jvK2p92Pr3g2UVsO/8AtZVWlGw8ch2vlgLEUNO3/kyGe3FfikXqDuunzvcB7BL7B4mQJZKt7EylmBhqiuEIh7BsQNP/ALGhgzaOP9rdy1LOdRl8tkSlF3SquACNPrf7xyIXbb1AGAHNgoDNDC+6GwjntEqIXyYIAgMgoA6zy1dQODY5uz9AigIEauqhA6MAOlT5ubZNV/8AHYWcxCLjjoXqKwBarZbI4K+hqWIXnC8YoXuwIjSaus9lfeYRWLuql7ONTOWBpVeuzjjiYpYryweMbYB2HF/w1dSvxcSwAZ7TPYTmlf6haWFLyAva6mEICZWYsW3FgtqEsByLW+NRDItaV1f0ILZBsf8AhAWsKC1DylSwEliqntWIG76um30NcTnDW23deEIHeZq00aDUBhFLWys4rXHeYos00JS+CG2QMuGcgikO+t/pNDzRXvVlH8y1kO4TKTdCgTYFdvevELdlHCtWSwoaNC7r38zFLiMv0PHeKraRbTXu1DXtqLvHvKCtu2q194bw1sOlX5uftP8A46V92XPQa1uWyw5ttZixos0y57a7S2c2Y7S2XLxw1L8S/BPKE1qg7T6eUx2J7hLOyWdiX4O8fAlfoYlDovpP+PP9TggD/oIrv7CLVeLWEVbVTlMtM9vTX2n/AD3GoqtDtxFrWxbiYLsRun3fzc7Hsic4QFlp4J4GeDqFuglC0BOB2OklSpXfEqrtAOeJXZGUd/uhS7H1Jjv9xLtWX3Iv/riGz92UbKt5J/1iYr2aj/koK/X2TAO3op/usIlv7SI7+0gsC1O9ln4GQXTXZCWXXPUpL79T/Jd5+bXzd+FOfQcWXBTmZMguqtrvuYVLGMLjmJFFpqrfV9iUjJfArP8A1xBLXfMvs+Y3ixkBYJjLG85PzF0F3W+zt7xpVhuraOPeaawPAO/tHASwFvt95UN3IP7bqyKCU2opdsjWRR/JxHRid/sPdigtbfTcD45lorScW+8TATwTcWwCW0F9pYxQGzUKxQxnuj28zJUYFvsPrLOq21239uO8bVta2XvvUwWA5ZO+DHfntF3tLouPHtElKeA4pMZ7RcClFoNtePMRcrVNF47e3mEOaS6y0eL7Bx3gNCxG3m7u/fxMgkWe+fr9+0RIuRjvp9mwN9anMbnl3LlQoK/zMJ/Pv5uz9p6SeAbzBbrQd1/7KAG7Dt539IkNhK+UthqLmxH7+0tlyrsCQ1V0V0Ta+35mNAI2bIUUzVOT3+k7paMYGJIBttc0czmrUr+Bzf4litiEwcswIdRpvtAE6KTkvk+8KKiOUwFsYFcZZICjeZYdFqlcd895mNuqhrFY3gYFrhLU08l8RZ1KEvPKcRWrKispDvEQW12XaIFGV2+ffMEgtivg6PwAIceRl/vvT6JZKDswmIU0hJdHCkMIah8V2I28UcRirhwfwvb7p2vCKcVXHY8RW+n5P6IdBXSuiXKlq41/m7Pm/AKPaawi7m1fqxBBMBZx7/7QIGrPJPBGjzFEFvRcZoWl++4NK70DwuYlISnKaibCY0racDzOfHGu/vg7xO+cXBjYWrE8Xi3l4gvICzl7DzKNgDt+MCJ1eRuaWlfh7+YBoYKvlrgIxOrC5UVCk97hC7VKjbiI8KoorfFjgGWTpWqcdn6/qAA6YO457sLyXqL3MS9fql14MV73FhoIFvyFJXlnwTGNVpqIxEB9xySgePwPm+3mWrY+AKDRlou1LW3+tHiYIiVpcVvPjt3ivCcj9I76fYsCGHRvprl09pnn0t1joi1XEP8AG2TD5vRr01Csvcw7FglXzlvZHlkVUajN4AgNkA8ExdNizZrQ0VxCI2cJ9JRhRa1Q6wzUDBFy8dsaL26yiMQ2lHjwX+e0Xtq/qYJhbARQy1YXEG7qIAAVXZ3Tc2KNGrTedXnENBaJe2xQM5U7jjard90MYQHG98eDiW9Ixhsl3qtxWwNBBYLIw7BcUroV0r3tXcdVgHJO4u0qCxiCG72+xBmURXWF3ecdiEnqCB2QsUJ4DkhUSsqx+JHaPUuq8ad4W1fDgQF0TD2KM70eOYJSYB3GcaNnjiXHYzATbpYGt/T9Q3w9EihxcP4D/MdTX9fm5qvceklH2QlWVoBD34pi0rJUV+8S4BITq4omdUnByXF0HdcC7tysP5SVT8hhrS1on7SOla51A1HXtKt39veLQtSrz2sEtbWkIUXIVHzCVoJiKbBAP/TftGp1W+wXnvLucfRUVVaIsHX2+nMXejartx/Il4AN6S8jZW+CoHIA8jsX7kTY1Y8CPQokn2tYwKJrGrXPsh5LKtLR1S4q0Ep9+l5qqGM2tSvczWEh7D/32QQeqhGl3Bw5/llXPe5Hb0s9z9PUXClrHHSiX2/zHU0/X5uIEcRq9NEsQo4l6yg5N+LbmoBLTWeLW+XtBaHSm2+1pTm7GtwpZZvjv3agBagABLse7f2memk2zmowrtge2/tGvvwvt5PEoZyGWb/PLzL1CtJSq+/YRfWO9jTGj34lGxzTtaLqjujRoIsuRUbT5obW1XDcEAwNjk0BMPntCcuLkVyFdvzKxANvM8t9jtCAbCxbHZ73+JWuZWofFO67wqJYYZ+ajKtajwLzXv2cQXCW8djgviu8r6dVT9ArdSwwuqUW/Z3C2bxjl7jy971A+DAJZ94bcYi85Z8GYG9yiiDSEuXeAjuaxx/yXGvOb/2O4E/J/Q9TM53HwYDz/navb5vTl0Qg0GUCMImzEPssYa8kXOKnYIMCrU3VRLQp2R+i1xF6sY1ZHZRe9ZgHHZWoA2D3i4sP6XAW4qGp5s9mA0/UqFQUAViBAi/QhKrBVoj3a3QTKUfDRHEvPYhVxsC2rxAGDOSZlXHi5lamDyFVVwPYqoHiBcF7zNeWGDMCsu7vMymHvmL+qTcu/aE/s+D1inpXw7+CfBdTX7PzenKH/wAQ5n97xD1D0B/lhUmr5u40cveHoWpfCexZfYzLiVKu9F5olGxgkw6+EzbHTjO/bGmK2Skyu40CkNWGCQQqWkgL/tle+e3jx3TUYUAYZ7ACPytzQUndrUU9jJi3tTEUrh6E/q+Cc+m6ajqFw7JK5hO3Hulz2WV2yu2VNCCPrp6HxeGfrfN2r29SiAcD9FF9+u/7oW7PeRCP+kjxfUcd7Z75Xr72ZGxrJ+4WxCsBPbCUgYhyd55NfATpDW9i46xUuoblYU1BgAoDsVK3mfnPD3GUa32XB2mB7qqWmjiJfG1wyO01cRHYHvFKoNKT++agCg2ydzGd8fdFU9Cfj/oQ9DL4DN3qLAsrceVnlP79+qB2ayzvD/uYsU/ZP0zMATu2Kt6o5rvACxdD3INlnPW0Qm+RfEfBtiQ27TAfRi4raKYp3lU0BxzoGDPxH14MBuI4iNGLwTmu0NZhNWEI8t/nGI9I2KIDS1dZohFWjuA4Uilm8TpfS6+dLDmDA419zlnqMY5ESIkpLd8djxv4CicT8S6rdUu6N9FAUgFp4O88gGd/foXzynvRM/6WE4wVv1pM37FORtqTsB0Sf1vCG/Su9FPtC4OMQfSxY5EgDOssbQ+51vJ+YHPw20YGZW7tvmyiMVVhxpsOONxzJwtl9Klqg3HaUtEeAFLUNJ7Ay6zD70ArjDdTEBwsWr6QDTuQZg1uj4rvcVNxvyvctSg0NVjWGa9D86GQM1Rsu5VdCgy5cuMMXKtTeDNvl+ANIw489UxTuQDUL3lESUUeg3VtuJdxqdp1fQd0IeBRbDVTf8SIRsKfJmA1U0dWRKLMuV2JMfZAO1LehP7fhOepDcfNVbwwhIJcuKVGFgV+oOclu9syupq1dFF8SsIlyZ/eoKVIUVNXVfsS3NIXlWGx7hVlLhFsdsFajmZt24QIYEDyQX3oyTgQu3USaZQ7LTdXqoN+7DUNHer9D85iXEGw7m5SIWvl2TcFw/yQe8D3PufzA955o94j3ontliCxS0Lha0AH35WCg+Ck8EFCqQlg7quvKnqbwy6ukKygj4JkROIKqNrSDZdtOnuS+hzPxP0Q36CPsGZ5HhI1SGByvtA9/cIdlPGj208pGJTTD6yFOseDDIoIIQTy9S7JVfysMcn4a/ZgoRaFWpX3qKEjn3ojpHBrNUcS5NqWwO0ECQtoSX20zW2gyBc1cGXYFqYPW52ocsaWcDWZYr1T273ojYA+Rd7Cy3d7yPOqhcxWHB59DNj5zENNwp1KB7kRvumPYTwY9nPAjC2IXxFSuwBAjfxKZtUNstr6RFAW1RX4b1cVOY8lP5my6B0npIPoH6xz6QbaF93MKpU/rX+p2PtP46Xf17/UobLe/wD5S9/pfaCbG+yF0flUPTzd36PbHfqwamJaq46CNTN36dPt86A9ulbsS/YnsJ7CewngBFMv4meh97PuqomRHfiZpqFYXUqmD9oG9pxDdAMTZumDd/suKBErUXp3dpcpg6lyzzaIjSV1J+L+p61ui5cue2e3ov8AyNPt83MfGVOX+Thc2m6GrV4ICGGzN81sTiDHIcA7sWoGxQq9qSou1JVZohdxXB9xZSeXRz+xuYd5sEs70w+FguIocAbd8XUn4n6pz/8AG1e3zlAK0biAghHk4JVtRwyVf6kNI0PLQRI1odnYi/ypaSm6svvxH/OANEKpgDINFi0wJzMys3Zoq47r7SmU8XPB0Ke5Ps9TXcl7PybCbBVGA7DQSmTWZxs9jUrx6pvvmGzfeVc5do1in8Kug1LBRZhAWgCpg0B7QwwtoC+VaL8MdiaFPZz0J+B+hOf8Z+I385A16O6w6Xgh3lSe7EUUpTBycsbBh1ontm5HS2ako7UHSQblt7c4VBFFw21dS4QZwKhBAAMHvvuNDboMvFXDyI2ZYc8Od0s20RZlPZFynewTDKmmybDbVnQw95VwfZth/DDB95WwYZzNFvZGHDxvmNRCYy30dhptinptX4gv8tGq6115IewxKOwDoT8H9Cc//GrT5up9P0RpmXQoUvg5i+rD5rtiImgD9rLtMCPZIFaxjCt14R9MJWgErl3vEUA2q+aS5EFxuK9ezfBYyqneILziaWYrGvYwE7Ct7B7WSyCltxyRpDax0qZKPzYeZYqi0NQeg7FO05bP7oylWxh3zkEvfg4DT2HchVJCLx4oBUK4IhyLbm6aajppXegptFYuZS06gm8NdbqBzGraIFVapwQPkObRyvQl8Hv+x/8AiqV+hOXoYHQr84wG0o8mYuzg0RX8qPEYTUS+YB/DBVU57R5YtG7JR5kO1KTq1nEOyB95R+qQdMYl4l25hbtkJNAB4Cpzct6W+rCgMJI/Va3sHNkBCHGz8qC9hYIwSDADFdqmCSLYAsZWhubBR7XCl2z3XdaIhRxjsN+dDSo98rv1Ewhc/wCLjhHd066VR0yyn56nA7ekApzi/ZdQW7MM7iOOvqja7t957qNTJddzCWuMMPqo3okt5eSVE5lpk8Gza9y8vTNgsfS2GviCjYxNdNmU/RtFy4uwqezKKDeXd+gqWKlntQl82wuh9KEq1owKvtQAnoA9BG4iRv8AxDSbtprzaIrdDbNEOKRvotbrpgBQOLhNffZxhnKCHuQaVPzQQaPnep9D0FhYZHLDrEurdTt/bS4avd7lYVaDKxlv8lvT3E4qDhqmD6s0UEeERHImoiCNqB+Z5Tq2fiaEgyJPDBlD7HLH9uVXntemVTSU8/Btjhct9J0Cn7/6k5/xGG0O/ZhB9GTaZ/3C+mHUq5r4jxRFlYYCtgIG/GZW3wOZ+j5uoU9n0C0HVh4kexm5UqaasGY02GFHe4rXOyI1hoTdQXdwCVZXf1jzCik0E9vMNKGLav8AVlqYcgrkmaN+QZ8due7UzLR90CM11xwc8QCgp4BbBoqQHHehLpa1/gNIhrmIvSlDBVKFA0fb1k/M/X/FTE21HyRMF2jqDoJt53Uo9+w1BMVmrqGBhKA4ycP3WfRLzc/A5+b3jdZuaDkn2gIhxKBRs5NbqCrI4S52JnvlURyOBKpQqCVstzDbuLbdu7XvMgtqWzHrbSIYB99dBGZMlBBb5l1eL8oHe3hxKVdRruwoqDQyA5IeYRa9wk89E67OA/ZZTv8AveZ/UP8AcQ0PeD+hfphlATavPvB5d9jiC/dNrL92C0lmOykanY6CxoQR0kGxc0haKmHifQ0e7+hOfiHwgNLO1ORqarcmFkAaErttYt6WxGY6Lh3GcnjHAYxSBYbevgONfN6Aomz1TlAfa4Ndsg9pQlpuOY1RQVcEmKsuFYKYAFewwRRzVbkqbSQnzdylcxRrUB+xP3cX0B4IK9ugVTKTUIGGahgbFT20uyOxUCbhg9VwkPYhCEs7Nw/MJDukvvaWmolcbhYmPkDz0z3/AHk4KvPdiMThcp7XFWVb0D3/AD4QRbtcLVZUs6AHos1ncPMW2HwkIdNYDXZPdL14AXnoT82HP+JShLVXVw2F7FFINlqoYoawjjtO9ZYoCrDVwgFBSvv5YuwwWuyFlzUIdoBlaQ3yuy+Bz83ghT6LGjWVGbum0slY1iXUIaAUJn9joQv2R3vXTFIfcltX0jMWmv8AYS+8z8hYoP3CVBDY6Sjt/wAOGWMW2ZQZVPC5WMAOiiTdntWCGLWa9XFiUJNqkX6+R8o1EB2Z+wq5i0F3UOX4TznEGlsyhm+04YLxsGU7wgjSOfcPQT7R/wAYpJs4AfNRGaYzfwtmIZ3DjK/l9kCvIeoCrWQuEO0GzPhuwuzs/C0fNxCn0Bgk4CorY4nF+yw1AWCJTrI8LE5tgY3a1MSJBCFnO4KirgNW1tRIwBXwRy43267kLuflMBuGMYAyov2LlzLgO69owaFTbICtEOIH4fyYlNelKeuO5e656Gb8ZWIoc2CLFGwO70xwidzqT+x4f45GtAYa4EGr5qKNlehZk6On3wnD7ysWBBqVEpr4H6Pm4hTNodGxqtEDSfylirEYvylJHLrIKWal9I/nBlfAFyzvBKnTgSYjHZU5El94WFfVB7ptiIJWmtiyceHY3D2Yi1qWreyob2giycJr6ko95Y96mybTo6ohttru1XooHT6pgm3fDu6R+9nXHW2dwxKGxx5LwNPYplhun3ht2WXGDk1RGmalavfqJj7n6Rz/AIwKYqtxA4VsV3MTMVfmCn6H26DTN6Vj/wDYeqsurbQtLGD9d/OyIUzbqcvSA81csz5ZpVQ7kCC7uWw0qK8FmNZA/YsMyL+8kef3ftCCAIQ5ttl1wIRU37Um5o64j3hrVTvC0mTywl5VGzAavYsm/N0u+h5il7xzQS36FeixdzTiu/3LT9GCmEbskROYx3mGpaLbmprYsMO153XBl2aLvkrPdJUqpbJ9V6kN+H/QnP8AjNrQJh3ZS1QytRlSinuRqbdAtlxxNBFKrMX3phpN57PWYfm+INJs9U/VVHk4tjQeeHyYqU7mvsKa4sH9iqgGyfK+BMuePI0S6l0z2FVmCi6KjKiwVOgptir85B+0BeXgCig6mPJYnld0kDob76d0eQnGAM74cJbTD0MgI3zBIIKwZPv6HuVwW7hpbTcAhweMdFWw4HLpwjSOx1O0lkjBg3dd3DEErjSOoAoANBrqTP2f0E5/xqq2GY0XjjssfvJz99dogtBSoisK2gU9yByvQUfO0QQTZ6+HpGxNMDD6VMHeoswQ8Tb9YFSMJ2/QFqPAPcOyZyDAXUzFgq4glY9g4+sOD+pcrdSrQQ1nKPkg9Ya8jZ7w4u0r5SxA0FsY1uVyVkyryL2ictd1G0u8O/R9+4av/ofEGadVPxpc/wCNRyCdmHHyhrD2Y639XsdvRY5rkLYmRUU5U6xYT4Bs+3zcAp6ToHlL1I+rcQV+SmEm5/ntKPlanVO5FNK9AynsR9BnLVICv8fa+7H6C8GgyrUIyJCjYnxcvk38ZZc/4+XEuwtX7qZs9Bt2UPcwFMAI9rfA0e3zcAa+hatWGtsV2GAZJ3ZWOCtOxUPSBrkZfUUwDeOdYBddvVxqzpUVtGG2t10VlrFrshfxMHNEdx0yea6sV011pLRhbqeCUuhZXY9CfiQN/wCIe+uUwlsRfPBGkU2mdshrT3Qm0nXp+bkJPiUupQ+0aHJEqWjSFlG9n52ABSb9Xu9LRssEVNXt98paA/rmY6Q0rmaOUxp2RzOJ0Xhi+UJTqVjsGAMN7Ep+F9LeCHQ44uxbEuoqxFaobtQ7EQKDYAvvWLlK31utDACtxzkUK4ItKYD7wG2e9eUaj+tPaig00E3SRHlVA2F2l1LHamNjlI/W+61pHLcJ/Udo5/xH5E9ONbTUGsRVw/jRKU944aJwB10B6wuD3e7zRc5B7EGeAzdZYATNI6+CB+bpABN3qT7ROtGOIhQE7+F+1gR7xKteLcdSnsj2fiBAoRooozLvNDUAolp4tguXS5X3doJn+wQ+G5y/vxLyiob0xibTldXKr2DTLajOJoUm5bz4DH215G2CPBdm7GoGrMuFXEVrzaIL8/KRj36L/wBfR/iCNzx5HV1Mhyqi2CirFYV0Sv8ADh1ZsHxccIFygKpYQ837BxK1grHs/B5+b8gibdRZvKO9AkdCd+6Oy2Yae2nuDOhP1hcTspncGIkR8AgxV9HYyyRtK+zgTlcKAmOAs/8AHEd0ChYfhmJumFHdW2+hyOkw4TzHy+s4/YNQXmUSg4vy+Y4MNGK9xwwOGDlsTscUd1KgxgGgqAvQNLmTp3LF7yRtbd89NulnP+IwWdtfUpcHLWyAj3ELIYFmwIl96et1DQKw3hNMtUbz5mN1mHl+Dz83hBHSf/EJl44rt+K//g6K96bPW9H/ABrly+tkEdcT+l7wb+K/5Oz5uphY5d5c3NLne5d+muPAvsv4g2vuL/Uva+tTP+JEy2n3P6JbLV027/Cf4B4OX3OiFB3PIng6DxSziNd0xVwojD+rmK4uGB7kR2E8PpfDnhR4wxi16hDxTxzxzxzxTxzwzwzx9F5E8yedPMnmTzOiZjsRBC9AQU0nhJ4CeMniRBxrpu+bq6l5VHQUsJ0ptvl/wQjDewl8JbLZbEn9LEu7VQAbjfTf7ZSW/az/AJ6f8/P+Fn/Lz/j5/wAvP+O6W/4LoQ6Wt2Zf+Fj/AOTmb/VnZ+xj/wCJjh5/bMtnq1x30t6ENlfaP5GmUrhUL1an8QnuXtqVLY50QEreXM/5U/40/wCPP+HHFHS48S8iqRGP+zO596J7heeq7mFGV/zWP/kM/wCczxfswLX2Wf8AOZZr7bH/AMNn/DZ/z2PG30ZW15p6jZ0VI9vm50wIgC/yJpNfpuIFoteyYZirVfWeJCAOxO6Fzwo9hPCnhTwTwE8JPAj2ieIj2CeAj2Ji0R7aeAh2SB25LllMplPTaAQY3ZVWuDdQxaGKlEFUmp6KZ/Y90VZL5fqz2E8glOxK9kr2JXgJXsTsHSV4JXtKxXtPbPBKnErKdo+Er2ge0xvG7j6eEdzd83jH5Qmj0ukOP3pmY3+6GN1ULTN1KVrM9kp2mPE01ArOCHwvieyeZKz2T2R8J7IrtGHxnslk4k7l+jaYQ/sY4LzO01Iy5ZLIz+7tL09/7sOVSzxL9uk8ZbtL9uhfkl5ftL9pXtF1qe2Lnsi4rtHw6RWw49Ojocvzea92dpolyyWRZ/W90ygx/u2BtFdo5AYnYC+ZTFAs3pPqRLVL8zGqGSiZHFagjWC8XE3ilLNgHeZcFsRupZwQ4hUxWfWHmZQvXFR5ClmINXMGiXOPnpZLJcdzSCJsW+6ExyQucE1PSq/rYZa9dz7sLFgVA157QPP0hzrmJd3aU8hMF032JVLhV49kxC1L97jDPLKUvXG5drBmUusRJyKi6uHDR7xqsCXumiLuHR2ho9aqV84/XL9H933RKeFhq9s3KH5MQyLt32lFjdUx7agNgAPMrAmrqboZBqeM1HgN3UcHvuUCI3FTVVKtwATSrioOiuHdzA5OsnEqVhXJGqlXWpYLAw5uIvJRuF7ZLmXLl9Hc0mp+1/sqDhd0/BHRNEv0f2XZi0oF3/cBx/JECmrwkUyw5KY0ERmAouw5iLFlWJHiS41q6pt8wZtwpcooTPeOLu7lHLPechNZi1LdCUVRRm18TA2uBwTh2ZQaBjcoK7zxMgpfaCmjvUYL2EX2DouXLi6cbfm+p0NEv0Ol7frjHN5MAGD3IOebjZu2KbY8pYC0CXaM57699RWjezFimCqnuUdzkvvNac3smQiqYL3BzdXBkzV98wS3KwtCmLmrYPKXXtsgeQi5LzZHku+t9Sx0OBcbF/wR0exH6Fz++7MLaijYfAtYmyi3i4tPjJLFL9SN1s03fLMHYEohTVLbtZYDRzuNtGN/WIHK33gjJfsy150zStcgdoPOksuVYtMt+kvNlTP6ykcNpHDZlNxzOe8W1TuCOjCq/wBJ+Afr1zq/m8ZdNHS5cuOv6OJiZigXV+8s5xO29y+0VZPMNu4d5be78xqQBL7SzPCVM2DbqKcluGexLXl1LXIkFbLCWZgFT2inZ4QeqvmM+WLv0+ZrG86y/aEP8AqR0da+ufvP0y9PJj92Cm2O0drJYjdizPaauc3qW5jA8rLBzFq8+0EruzsfpFYHbMoO/Fy1KLDX9Mue6cQr3iuW+0ELkj+HnmYIvm5os5C+6fhHp16ULfm/Z7dNXpNLv+mIalW/uBmHjLuXLpBmJ55llyVdyx2aj3SquWng8RHYO9S16eWHcMTMubaPpKIUYjlSB5rVT2KGAKDnNRRsDHiEaXXKw7+kx36vyGVs0LyQUaTjxSaHsdK+ly4/6XERf92WchvU32HLKU014galJY8sfo8kPJ+sVc/QYTe1IOJYEvFWxDksE9pUG7ZlqmL9exEY4DKxtzzeZUC22RFQ8X+Sz8Y9LroqF+b9nTV1vpVN1n+zEv7v7nYly0D7RR3GLUzQVrll7gGbhsXlg6zXSNF8wjslSHZiLMVi9cO+hqt9bZb0de7MvMH3izTa4/Qj/ET6WX9rDFkGMT92JHD4JZi+Jl79oON5l1iLuclNd5dXm4LRmXRmWkX3RVcDeVZ2jtEU3LOZZx95Zq/MR5l0WtO6ivYnN7p+Kel10wF+b9nt019P9D3dCLeIUIWG7s4ikcjX0jZMpiDtX0jiri8IVBwag7XNaJlcsrN+OgxfEtt5OIr48xfeLKu1Wcstlstly8zGLP8At4nNlCN80BLDUWJZ0zLY/wBTtFf9wtg4H3Zi9oqONS8+WLRmCOI/doghRvZLa8x5My++Zd9ObK9poRNrq8RUVTwy6ljmLhv6QRnfntLcx/2J+F6XoqPm/d7dNZnpmZmd39FFXfBp3jk6X3m5kuorjMvNELis2XNLmagW9y5cvE8n2l+UXEtjdxfVi79JvpeY9/1QAiLr86OjT0/13ZjFdN/7mFc3ZESxzLixqCRa1MpjfEaVw5vvB95txiOWuNWS27rphdeTbG3BgJfeK3EGos5irvrv7p+J6LY9CUvb5v8AxumvS+v9l3Tkgta3DR0rpmFjKaibpa4vryxjrpTiu8bwlxdMsv7c3fpN9Ho3cSn0Y79Fy+v9r3RULu/swYM9obqY46faB3zzLHWPEQ1Lfp0vMukb453O9cTMeh6f33dPxOmZn0bPm/f01ly5fR1/ayhlauBQXHVJWK9MrFY8XQp0PBKdvQA2Ro1MGrg3pcvpHp48oyBMWgIoeJcx1/se6YLvSsHnV7nJ0KbXbKTZPNHkitKYbtw9t0val3ae30HwdJMYV2iuCZj3/tPwul+gm35v39Hj0lHX3UKiJ5Sm1tYEVOWBNMr0ajpzLHvo4Gx7dfe50ETzQVM3n0nQ37IfqMvMOlr1vpw94/umy05X9Uvm0hlhY8FhPJKOZf36HriAoED3gL3K95m3PJGXbj/J0EhwidFzG0v9gn4Hq5m35xNPTxZxCE7B9sthdwYFlst7MtLZctlsWW1LYrLYsWXLZcoq8APa45646G4jN21LPhm4C5ixL6Y6OvBfqKvW5mVQZG+0vLy8HL+8t7Rw0+8B5lvOIPDWsy3Rg2b4l/yy2K9or2mYLBdnD/if3nY9RP3/ADiaS+lnRC217AXKooXhViU8t8Nyqqb3bndD6xUxAU5+/MJx92NuaPDPvneLJfEFTFTDJRT3uZclI8M+G0e5DXhtMW2Ou58xO84ax1L+zA45VHuNy25fo2n4iYHif2udBFTHWyfgeAC46QMzul5gttdbtmhKWLCXtQlNMa8pzJiOSmTbn7SFpa5vEdK6diWbi28esTLWLvPKpRdj8ERrCxxGx+mxxi7mNhTPMe+iUD7hmP7R6SG57hfziHpys1/vQ3AsLFTYchh07dPulpbvLd+v7vWe9Y9HNSc9M+hfYzRm/tZgzWWQZfR1bAbaqrvioJij3lbfwdOL0/8AM119Z59N79WldLDDDGE7JmiWS+lkIfOE0e0YHpzDv+lg2rwj8wwPr1Iz3WOR/mX6A0aipbop6wWbR6b4ef2JfS5fS8ntHXso7s4j9rzMis63LIq8S/mwtenZyRygtsKlKw8hx8QAFOpcYYoREz9yKfQPSfOPo9o+oEJpan6RUV6L8stTFrynRc93Q4bz0CA3fiZSkvopKdCh0PQpP7Zzly5cuXLyRfaRWGAP6G48xS5cvoZux+iWi5CWQrL2m3oF3LlvULtqwq89F16Qegxn7ManseoQbfN+j26HW5c2DyPxKBdj/KUOyHGSS05o2xuF5ZpLWW8C2rMlK3N+XOuhNq+0r3GO9OCp5/eV7XuYm7ZySo67ERaVneU7QF2KOWIDVxGP+jmz6BaK/olHso9Ez+m5jlEoqC6KdBFupqm8QvEW5BCUgvPDBSwGY7omWsQbRcfD5jXdkN8N2xnlgnJMO53qRSspHhVncuLxuBjEJdpr7EHpfUTX83/o9Fy5cWX2ZX/Vylu3g/eGQAAqAF/cXv2gFNXY5e8Lml3LAdxcXKLWJyw4zFzEPdiXHkVCBkRSx7l7CoC2cixembMdom6uqZuUdrrLHN9Vks4m1rCvzBmkJGeJ9Tf7wmr6BgvoixHZIZ39rjnMftDpWdBnZ/0yn2YQBfmkbHJD33aApoxzE4R8Ic+vLNAMaOSwICUOUl1zk5PaBYMO8QqDNL/DKG9fdMb2HcLLVVIxTyJ4aiDGWLqCi6IM7VxAZwmpS+1z7CbsS4S5fQTT83mq+Oty+hY7J3jdk/cgk4kgOMIgCmYhng3VMQ3yshQpY5uaKFvaxMrTBSmpd1SGjcGQrI/jxAnLujvNYu713+sc7TPaBAbW+GI7wQwyqxla05902DkIMaNYV+xHYYbEuIU59pc+Gow/ZQwbh3ysrKw0q64guaFfhLLKeD+4Bg94GV7z39GAvc39ImUL5gr3AuAPLsEAQedJAa8jplAyq+P4hQule3iWp7mu5ANjSfeNgey5VOwXTFAGiLg5YZjY2RFsLxE/dLigvB4GUEoKNEatd9iNmkswSo5AA3NgIQ/eB09iEDLYMe4TX83tb+OjLixhE+7TCrj90XJHKoSy21KItIDw/wAJy20HT2iOCw4IDSrDUpDOU7VSHECwcOlgCltNrfklgQ0yiCqz3NysDy3cC+jidlo7xAvjWmYrQA8S6ayacXMD8u7lQWy7SNbLNEAzi1jBhIdyYquW8T3QfeWtko/cohnfEo0uVrtFU+xlboYMYKe5iO5npmfLWgJQfrnnn2lJGQQ87sQpiKwLYXYaL0xx2laQjYueTMQeT9aiAWN6RWmMBhf0Eb4wcd5ig7LpOINvZ3maAifdHlWWIbJVHUFABpqIgEbHG2CVirLIgS26BL90L8QKQISQRmQTA/N+jqYvUMGVcjdiNo8IB8IHvNoCeGTA3xABl5zmXHLvluVRVvqwZRobbzLrRB2uY9+eYbyz7wN7u1sqDVvvF6W+buUaV7WhXTm+WZQsR2ivi5gttrO4bA9ssLaq5gKFxZuVF8OLgucuCUtbCZMA9idwJixtO9tCkAzJDxodhZuZs0lfCVeqRu1xZMXI0fzANY6alOqjcLtJ4sRFwTFqYcWdm5V/6YnVX3lWVfvMd6NZlmh+saKyd7m9PjLlTu+Fgu/BlgXKr3gLDV5ii7/eC3bJ3YwXcTABT7kDKEvsnctHlUyQO+RQFRRKXhFj83r7deiWKYlWgLWIUa8vf0ggoXBgNa7RoBDMpwGlyy6vhCC3Ye7LXimNkNYe0qhb8y7wGqhjLvie+oF2VuGrWt3LX+YP2S+0svERusLshbfH1gufeWi2gPzANFrG67SlQPOf+4WYf3GpWc+01rNYmxA/foHa4Ny2veLjyR23xH3+sFcVm32maI3vMPDw/eU6lta1UsqoIFEZp79pbwCiApfZKpIuc1K2GcYvurFKzvhjX+yN0ZaOSYsBmbaZVV50w1TQXAu9qQrF7qW2XkllRzeWMLBy5IqH2+DHPyoTX84M6ukRcd5lzX3IQKpue9mcseDRE3Ay1XkjEAlxj3mBwniUKDbFS1pTKBA8D4qBsjYVAbhSk3FhmqhmbBStSpbhl9Zl3SkIUQRkrmtv2R23Te4LmXt/WC1WgzZEKa5gclLBaYUAcwjYh3KjVijKNF3uU0LHdnZaByRlW4VaylNgs7SlM0byTBfYKNkF3BEOhp1BVRRpbcCuI3MVA8zSZymVRBYlBphb94AD7rGrFImXiDcNMti7oa0bJW4Iah7kCnZFQMLC3lxLX8zKvTDLbod4Lba8ag2m8UkPbE+p8ym7qXeUZCYYbnwwN+6vTT83kg2cDCaQRhrxMy7AwcQoTvsyh3dxWndy+RyAVE8QMS1bsWJBvCWRW3UvfNcsPLQlBRtqoN3lUpuC3IsRWozvh7wGDF3cP00EscQsYaZdQAuoJeQlqoAO7mTrZfZUHT7S2vMunIxRKqChcbhV4qW1LjqWmBs4gCGqlxvgsm2C8TO77MUBXcug2y4b9ppSHiPd5pY0V0ZrFS2W30PYy/JlnvTHZls1TL1Ad5SuIpaA4VzGTsLY2ucDUQORZPqlWi8TY8VMmjZhei7pBqBo8rlKfNyr2uiW7PFbTGCOU5T2JYDvDsRB/wBs2asNMEvi+JdhnG5vbJk9rJZiVwEqttlNhDvcHNoXc4Cy+zMa2btNDfIVM3mxqfrjvMU3MGyNUS1crgllAYe7NGWspTTYLMRrFG4Xed3hg9wbvywVKcqJx+veLqxqGN7LK5gq3btUxXh+9yy/EFox5e0tVJ9YhbZjanBdREXSpK2vhjbZ0amZfPH8xVbO4HtcbxbBLPC4cw8MvkcS7ap4vU9+dRLLJeMV57wy9gliio4w4OglZ/0zKh4nvfaUYxC8CIXQgqMCaRmxI6hmftlACm8tdDDHENW7zOGUnTOX5u/B6NdxKbMRkG5BCLipmA13mUe/eImxbLTNE4JSFM0lQmBiWZtgiClvZiO8rblZBS7F1Mo2y7AwCWxC+RzNAVu25Ysx2+sxcmeFlaFCuSPjbEdgULMk2gdl5sgKMWuIqVZdTQdGVNsXS4qVlm2yUl3zmb+kLE5vEsWOSUptg1AwapjU+8VL1uNKGuZX18Ru1lMpNLZnPLLJWBe4UCthczm28fSFdsGPrMB2rD7y/opsg4WB0ysuT3i39OYtirju/u+egK2PiHB9mD207h76zUG6D7zt3lDJrE3VMw73MXWqwzinPaVR0GbH7AE+oSlPm8/Bh6A3HUMjYD9PHiJin0WOeypZSWvalwckzyxXAvtO5YmvaKCrpDG9uq1EizZwRPam+JZcme0cG/FSrs5rUbo4bxEqjvKjb2ImN1AoA07vMbLUuypkefJNtgeP4YXzSWlnMBz7xZVclqbLoHmoOPPEEZWzzsrSSyne8xN237RWtuuIoveqCWeYU2iKWex25gUqOeGVi7tBv/cbBymorQvYmm1upbTrskE4VcpvybjarVdghd2hXdlIye7L8LAiQLKy+URRSrZ8kw0QqqhWzmpW+eYiGaN4ncosl2NbHDLe+ZWnKbc72+jL3fMuYMzd9oCq1LBNGTxVXBR3d/N6PtegZzKm2t0P7YVtAW2WbGrmFYmTBUIPIoObgSdAM7LnMBraI03vTBKoveUyZogMY9maaY3a7VUaqmCITJdRoEwcEwZzXfoQ94W+Ty7Q+pqyW3YtMwP0xBL25M4L2uPaMPFV7St8XKo2hXtABsHO2VdUBNR7F3uVx7maD7ZltBnTKozEGazmyH3diVE0fVjRF5O8Afd1HJ3agFW7SeCruJgLBZYveKi1vi4CmazBqVNYXzLIMuxGGKRAozX0mClSciFd24XF8bmsVOXLt4jdAwbMWidzDL4NVV9EtNpvHIhaotrL7wM2qD73Fa9oBvecJKKC+8dohKeG8M1/N7+L1MSVkgTeLmSFHaAl1REord0XL6cN5joQZzUahhvEtb5mFWqWZDeHaVjQoy1ao5iActbKjYvPlZeEUW1r3hsuG8TIaXA5BshvfES3vhjgEXWgghjbUHNArvAwBe7gprNcRVS29g1LBVJtPreYcgbd9vpO6FgbtlRCwIxqrPzA0eRcRbInBUvyvLMulmYMnBWiv9kWzK8QBeZkWqZ4B7xU5htgHxeQnA3e4yNBWFiilwXk55qZUXriNFFUN1Ch27y20X3RVSrLCVa0Yj2VbbG6qyoAezic2GWICZluNl7ncW4aVM4Z17pDalVkvmUlVQwkUKAB3Nw2rdO0Lc2hmMJilc1OxV8/N7+Gwiz1VmOu/ZDfavE0Z+iQqrWxkZSW1e1SrjboKgtXTAWxC5VC8JbSqKstXcE42TFLFJdliGdQ8HhGjWFmMOfZlbdu0tGxiHJXeU0M8vEx2ZyrMNNjm5hrd3lnfNwalspfNiKtuZFmw1LsC8kM9hIl6wYzLaZdOIR0VZS+Ic17KzVBF91tZlVuqnNksxkXEP0NxtrvdwbGbhujncDqPdlcQ/khbygDyGJyW3cKZVqUsVnmJnOpjg3slDdbqWhrF3OwUQptX6cy3GIU2mGrg2xmYPzK5WjN7XBSBq+e0LwtDiNZxcuzH2iaBw679N1/WUW9vm78Fh0PSrYX64/EtunzKmqSIV3lZUSHCYRptFTjZLphhqIY3C/csC3a8ME5qJYV7QJu5m3BApjgyxtYPvKSLX394C/b6ZfR3odQDxD9pgatuWu1IvJcauUqj6ywJhNscwbiWzEveZZL3l9oFyw7iw5x2ccwdbqoEcwxx3xG+33mOmU4jQxUzzdRbuyVi3c+kEOhzO9SBeMkOSZOUxxK94exnmF4J7TdsUbV8EuxbriBtLcrRSqRCyyBSVlfWKaNcQJVfW5Y7BlYrVlzH6Sa5v8AHzd+Cw6B0DMue5+gjoDfN9GLjmLi3FuFljRxBUkx2+0Wsso/MR9YWazMmFJbLQz9JmC5j3MTc8Szlm0vxBS/XGcy3vCTz6aErXTny1dVOFxLsb6j3pbvLe8Fyzz4nnl7t6XtlLjRDhhIMeJW2nHEt0Wl4QKZlrgdj6xeTFyi1EJg3Apc9rbMYXcJi4PQbn5u/BYRjGE+8fpHdzmMbiMpuBmZdDNMtTiUlStTNzeZmBWY2gcEbm9+pXQ9IUxidL0oiBUw4mzUtjblywmd8z3z1qyVMymUymAxtlNVqIymVKlPQ6EWxRoqETPeV9OgbsK6jmSvm78OYjKj0N+6fqJEiQHMpcAgJkl9wmT69MzOz6+qvQDV8SuvMSUeqpUrpUrpUqV0qV6KlSnrUCVKldKh71B1wy1EjLvoHYbq4lOIbhTt83+XsRLWPSicwv6moYnRlEAlYiRLlSiOeD0V0qVKldaOgV1qVKlSvXXpqB6a6UdK610JUCFdQlEw1B3JZGJ++BNIhG+Pm78BnLHpRKIat02/EyY+lWI68yutdKLnMqIqPYlrrk3FQXaWlPZ6BVzLWTErpjonoq/TXWpUplMt2lu0p7QJUqVKPgtnojDoMbAvxyTMZhfzd+F0ZRKIGYU8qkvU9+ivXxGPoNyszEUHllVXYHt7VGbecuTf3RTQPYTNv7UfxBlP1Amaz2qJTlXvidt8KJ9LijjBr7pPYXX2tjOD1c+sgHBfzURQi9pV1P8AnIGUq96TtNdqQ/3tEu/iQFu/3Eq2v0/9i3c8f+o4yLWd8Q0HYo+jPQ6gxXnpOhM1CS6ntDWcvm7f7eipUp8SSxcfQOh9DSC7wN+Zc4308VJDAZD9tyhbCiV0zKlRJUvT/wB/ggw4FQr2u/8AA3HRAYSpUqVKlSpUHt1ZdurfwCVIq3UhO5BbHD/c1lAX5u0Ycvd9LVBvB3hAaG1GFdR4kPR9FKFoODtNTXBKrrF8FgyChSW6M8y/dtW+51fWZV5Yeq/jvcsCBXAw9eziYyXv8AmnohKlQgcpZoIUSV17djDG06+b3t+zER9J0RRwUfxF3P3c/wCvn/RxB90QqkReT74auC7ubdK9DxfGumuXI0wvLy/aXl5ftLS8KtJKCKx7V7V1QlMzz6K9J0T3NEhjqDl5eXl5eWqXiuL5fd6cdPactFHEtc8lHMBNHf8AoILbe4dFIBzP9v4nlwA1FjKBR84CYF94YFwd3LS2WlsuKy5bAGxlgAb8D5IwHjeGXv8ArZWX4Aqf8dn/AB2f8Blmj7Ilez2ltWBsSyLVXta0x2BPFMCMn7Txo8WDtPung/dNFu9lHy/f/E7KpqlpYEJ3b+JhD8z+ImZ++/iWa+8/iJ7+8jTn7bL9efDEd/YZXx+4wX/hP+Qz/uJ/3X8T/tP4n/TfxKzP3H8QsaUzl/E4H12mEsH0gbkJzhIcATnJuPCPf/yXTA0WFBn53LzH2v4SqqoI0brtkn/AZ/w2f9tP+ezW6aMVUp2ZVEC9TJuODUW3vwJgAAFBoJz6MlgFpcAUA+ctPqfSrzFK19h/Ef8AhP4jw/ESv/AfxK/8H/kf+I/iOZ+o/iUt/YP4lcfsH8Sv/CfxP6Q/iDy+2fxPH7J/Ex/4n8TH/ifxMf8Ah/5Pofj+JZ2Pt/5PoS/B+P4l+Cewl+D7f+TH/gfxKYAx2mhRocTLCvuE/qD+JV7/ABn8TH/iTHaPoSztLb0J2Q/iX/w/8mO32yu5+kr/AMx/E/4z+J/zX8T/AJj+J/xz+In/AIf/ACYmD7f+T6PsfxH+lfxMcr9P/IDT9k/iH/in8Q/5T+JXf/Q/iWH+h/ExU/ZSrNj2Sta8BgPYPVsmz3+c8zDXofW+mpujK6PW5fw/wYaPind1pgbQFOjFPpA+Dz9/nRv8ItMXPSpUx67EiPQe/wALGQ/AfBp+Bsmn264iEp6CJYQfgbspn5zFB8FetehS5ZFAeZcuWSuj1Hv6jrT6UNPb4a+mkRTxARKeZfQyiugwUl0PXszBfnPR8Bi30OjcWDktQWx4qE2L1ca+8y2fZqPaN3hHDd2DKctvFLQFunT1d11RL6X6CfdE4PY+AD0fQiwORYa3xqsfcxRxPdbBWsvaA6PZ/wDUcjmFWFd++N39yElfS3Fe8o6cnRVFZD1bPvMF+c9HS/UvQOrt4li5jJhX3S30gXpguUuSalDbm5m4W3ZLBqob/wBqK7Zgm6WdE+HeD0rQwbL1A6OOoTvMyHg7wauuw6RIAt4eNMa0zb+sVM96iUFObzDVAF3FHYrvLXfuy4lS4HOo09RXTgh6qN3Hl+c3j61CZgdFlmCfvAMCHvrxAbH6TJtj6T76xUWWuSF+iNkJRVLgsMMEmETU4S9R7efJEjH4An4p+4aeuq6LfXOGpXYgj11t2woAKI7ByN/viMRxawljdRoWlqu4yBRdEbNJjcZlSbG/d27I9nXp9icLs30F9Bpj9XL3m7856pfqUIdFBxORb7S/dL2AtCq8RHycdnv9oLfYXBxYR3TrMpcMlhGxnhHfuZG2uYLm2X20S8BSzcXCaR+z7IhBVgJ4c9HoNQ9X6v7nD1HRwddQRcK3dlB2IAcyK7naAaae3EUbsfhPcaJ3lNdWE9o6XTjrGMW72wEIBr0+qqULk8HHvLYGBsid1XcBumC9S9iMMdkZvcYvVszd+c3ZfUxnENdFtwAqwTR7/wABogQ89hgrbriKug08WZbR4viAhtEbOg3KoHBgueDmGaTSPJaqiX2k+qJaVQowaPeJSgpd4lARJ93LfRYwcegfV+v+5wQ6c9QVCOqOgx5zGCOiO013srzKUqR5cXjBimAoFb5KYjF7IbfEVClAUEWwWWy7Lj2ULLEAcQtxv9eGLbRKcCSpD0GOizDXp2Y6F85gCHb0sdehcSoO2FIgGw05Fic2blTJSobjcytpRAaLDVRMuGUaLc7VzUQ+ANw7A9l8EVyGD0F83M+mJg6wuPYxdH4D9X9wyPSTTpv0KxCCwAX9iXYO4Y+jsjM2okwvcZsbJfrhQYuEgGKWKGZCXLeo0GoOXxyzO1m4lij9YD+Ykw5lvcScoEf0wr7AScTWXHmaenaEq3zxsV68dDAFQsdwsp3ZHcl2MzIDR3BuVW72MaB0mp+gQlTmFcBNKVm4JGSgy48lQxAAzjMvLvrDIi8vEN9OfXJ+r+4aekhDoG4cTIWLLOxHYWXhctLSRil0jkd4POKdRSUsDXmYyNs7SkprhJggbZ6HZA4jVK6JnpLzmOyjRm6pvyWEcPX2Yi2bb8dDRjNvU2fefmfOev1aelnNQ5JUv6tGaYnZSOE5LEItpGy1cV2bbXhgrgF51KgOEe/YhReXkdT8oPdhKoovDUzASBfsj9s26O/Ux0/Q/cNPSQhN+g2Ro1cOXl0DvKdv7hiDYPfqh28kLEWrQ8xqCaa/hhlUNBQdPX1I6YKZhlblo2XmDhe10yiAROctgU9rflNE0Yzb1Nn3mvzno9Tr0kNpVpMM3JmojKEWgmz6wtilporEu6ArxfEujRBcxaBqblyLIgbZXxZC+yNusvAIUamdj7SzTUpmw5ltLTn78HQx36tA9P0/2Q9MQ103dBxFs1qAxSXk1cxVOM/3MCyMFpZ9tQ3FZNUb0ZHdjy7uNBDpVKql0iJtqvNUe+gWMN+5Lo72fkHJAsUVyYz5hc0B4G1lDgAqGAiaem3qbPvP3/Oen1PQhGC7O+I2CymvaV9vM185MLxya5vAjtJlX7mvzmZzxB3BbOxFRrWld47yyLOcKalrb7GCEFOW4wEd6bgN9nj8TB0XNfA3+zD8XpIaiXkXxFtHoald2ZRfxCDi/CrjiH9amLAKDFzV7sdDBlLh0UR0Ri8blOHU7EqLEo8xNe+0vNvQY9gI5Ks41wxxNHpt6m77xBa/O69GczicdEiIduHePDeF5fEABQNn+yzhBAHFPpIoBqtRqmZ7O8cILaGFA0eIILZMGAUxZBVZYtPEsI2OJTUAYAoAB2Dox36xP1/2Q09vSQ16HM4QVDM0/bKm7CxYfe4quoh2BZVSkmMLUV2mXKgInBV3ijkM7KRyYhohdkNm5I0FGqZX9ckAAXWAcL4j127T6qzVMFu/JlR01em006Z68/f50U+BuYbs9AGxLvdzEN7BqLu4lreYOgoGucbSUtorGSYCOgG2WCUgE7NS7AZadg3Z28xA+diWWg6RlXBVflHssy8c83IsFB0Y76z0/wBLyQ09vSQ1OJwGq6G4ah3UBsvkhhvshhPaYPawaPZQzwGb9VQYFnd2rNexE1WGXZ3c72bV91+SZABuXx4FQSlWl7+U7PKO16v2lEIrb9OFz10emxNPTu+/zyWPRr0MVAJsl6/M2e0Ld1yOYEjdvZqcirgZCxRGy/4xAKOwYF9opc/SMLMIT6FhdcgbZWbqvLbKDqx6pr0/r/shp6SGvSDNzsBYPPvLLTsbRxJnTYzYDwT7HZCdZV90s+zBst2plZxlIThMneu7rEINiyvsQWijrqw1NE0PTs+81fnkenENenThanHXsGWec4ifkrVMo0Ve85we/RR5oPLkPaUUADQQK9DHfwP6/wC4fg9JDXqBS7lRRdmkenwHE3iPMXtLq0rOx/iIRqywljc4Rid5wJtZbmBXoZbpsTQ64hNn3mr88r1NepqMzGgHbdSmVAPUzb4H879oaekmnTZ6RlkuZ4jebgYlf+Eb+IHpQEu4h1DU29Cum77zV+c8/Wroa+ChY/BZtOPX/N/aaPSTTps6PS5foXENEz6wJmawm/qbvvNX57Xq+t2R+Azb4H9X9zT6Qhrps6PoOrDXwdem/qbMxH5+XfrcvwX4I/V/fwEX1HXpuXFxDT4DHBN5p1uZ46c/nherrpf+CYub6Oj1fo/uafSelX63UVnUz6WboTeaQ9Gz86L3vrcejLjCMvpcvpcuKxcsly5cuXLjHctixBlyyXLj/DHjLly4MIutfSyX1Oi4Zoly5ZLly+lzWIpSqGsWsGDLly4xuoCrfnMJK+8QPiKy76YvengYrsy3sxpwxUFnDPPEr2J34MNOr+2n/FR4vriBJmNrxc899Z2liNX6zdf3/PB8w5voJ/MP/QJTv9xKdz7krUrEH1hDjAYSyEQRlPEvxU+me8nvIY5Fe5O97hP5lJXRlhCeX27h/wChP+5BnDfWaR9kz1DxZYULMK6yT/iv8Qf/ADsr/wADKirpF7ULZpNcD/2QZV4FtTzp42eNmOCq8C6JUYFx86X7g0S8KeInd9BFE8sGEo/1zlw/hKH4iJdMY4/af6hQ9Lyg2izc8lR7yJ4ERoEAFpMtEt4xukTgzyRn0/VmOYfdl4D8iwBtfqyt/wBrAWxp5ZQuzFhSAGi38w/9JP5q4dx+sW7/AKsTv7zElY/dmLSfVFO57Qpx9qAZlxrDiQ3IKIPaGBIFrrYAHBK7CV2ErsJXaSnaKdiUdMTEo7EeyTwJfoTwErsJnv57KlSpUqUdeopsuLMle4Te/SCZui7S7/gnYf2R7f7Jhpkabs+0V49I9+NdsI5cJvEI5TE8spZwlexiLZrLXA7ZCMOaSvf2MOZmHdQm1PkIfJ9p/EQ2l96/iVr8IogHH2SANAf/AMGT/8QAJREAAQAIBgMAAAAAAAAAAAAAAQARICEwMUBgAhBRcJCggJHA/9oACAECAQk/AOiHhQKR9tT2sKo4DEk92Y+KVI9iXwDutva9RUCvHgmNqBbpDABoibJNCeCQ5GIcih4W/wD/xAArEQACAgEDAgUDBQEAAAAAAAAAARFRMAIQUEBgIDFBUpEhcKBhcYCBwbD/2gAIAQMBCT8A/BDf27ey7LWdjfhcDnsp5VLIX/BbcDGPoWMf2nQvwxpJJJJJJJySSSSSSSST2DZXR1jrn7Kx1grHXP2VjrBWOufsrHWCsdc/f+lY6wVjrsCt0LwpbVgrwIQhC3rsCujrHXP3/pWOujrsCsddHXYFYl2ooUDGMYxjGMZqYxmo1GpjGahzI2NjGMYxj2Uijnfq/NI+i2XXKH6avWT5/TnK6+t/NOP65uuArf0fN+3wV1/lHN+3g/bzdcH7ebrg65usSEIWVYa5vyPr29raX7mvV8mtscP1Q0NDQ0NDQ0NbNfJqRqRqRqQ0akakNPdoaGkNfI0NDPP1ZrZr1DersCSRsnZsnedpJJJJ2nZsbJJJJGxv+Xif4gH/2Q==;clipPath=inset(7% 28% 6.33% 30.67%);" vertex="1" parent="1">
          <mxGeometry x="1000" y="2460" width="166.93" height="350" as="geometry" />
        </mxCell>
      </root>
    </mxGraphModel>
  </diagram>
</mxfile>
